<?xml version="1.0" encoding="utf-8"?>
<!-- Generator: Adobe Illustrator 22.1.0, SVG Export Plug-In . SVG Version: 6.00 Build 0)  -->
<svg version="1.1"
	 id="svg1936" inkscape:version="0.91 r13725" sodipodi:docname="Amazon.com-Logo.svg" xmlns:cc="http://creativecommons.org/ns#" xmlns:dc="http://purl.org/dc/elements/1.1/" xmlns:inkscape="http://www.inkscape.org/namespaces/inkscape" xmlns:rdf="http://www.w3.org/1999/02/22-rdf-syntax-ns#" xmlns:sodipodi="http://sodipodi.sourceforge.net/DTD/sodipodi-0.dtd" xmlns:svg="http://www.w3.org/2000/svg"
	 xmlns="http://www.w3.org/2000/svg" xmlns:xlink="http://www.w3.org/1999/xlink" x="0px" y="0px" viewBox="0 0 265 265"
	 style="enable-background:new 0 0 265 265;" xml:space="preserve">
<style type="text/css">
	.st0{fill:#AED477;}
</style>
<sodipodi:namedview  bordercolor="#666666" borderopacity="1" gridtolerance="10" guidetolerance="10" id="namedview19" inkscape:current-layer="svg1936" inkscape:cx="515.8293" inkscape:cy="60.382118" inkscape:pageopacity="0" inkscape:pageshadow="2" inkscape:window-height="706" inkscape:window-maximized="1" inkscape:window-width="1280" inkscape:window-x="-8" inkscape:window-y="-8" inkscape:zoom="0.72245926" objecttolerance="10" pagecolor="#ffffff" showgrid="false">
	</sodipodi:namedview>
<path id="path8" inkscape:connector-curvature="0" class="st0" d="M238.3,129.6c-28.7,21.1-70.2,32.4-106,32.4
	c-50.2,0-95.3-18.6-129.5-49.4c-2.7-2.4-0.3-5.7,2.9-3.8c36.9,21.5,82.5,34.4,129.6,34.4c31.8,0,66.7-6.6,98.8-20.2
	C239,120.8,243,126.1,238.3,129.6"/>
<path id="path10" inkscape:connector-curvature="0" class="st0" d="M250.2,115.9c-3.7-4.7-24.2-2.2-33.5-1.1
	c-2.8,0.3-3.2-2.1-0.7-3.9c16.4-11.5,43.3-8.2,46.4-4.3c3.1,3.9-0.8,30.8-16.2,43.7c-2.4,2-4.6,0.9-3.6-1.7
	C246.1,140,253.9,120.6,250.2,115.9"/>
</svg>
