<?xml version="1.0" encoding="utf-8"?>
<!-- Generator: Adobe Illustrator 22.1.0, SVG Export Plug-In . SVG Version: 6.00 Build 0)  -->
<svg version="1.1" id="Layer_1" xmlns="http://www.w3.org/2000/svg" xmlns:xlink="http://www.w3.org/1999/xlink" x="0px" y="0px"
	 viewBox="0 0 265 265" style="enable-background:new 0 0 265 265;" xml:space="preserve">
<style type="text/css">
	.st0{fill:#AED477;}
</style>
<path class="st0" d="M247.2,3.7H17.9c-7.8,0-14.2,6.4-14.2,14.2v229.3c0,7.9,6.4,14.2,14.2,14.2h123.4v-99.8h-33.6v-38.9h33.6V94
	c0-33.3,20.3-51.4,50-51.4c14.2,0,26.5,1.1,30,1.5v34.8h-20.6c-16.1,0-19.3,7.7-19.3,18.9v24.8h38.5l-5,38.9h-33.5v99.8H247
	c7.9,0,14.2-6.4,14.2-14.2V17.9C261.3,10.1,254.9,3.7,247.2,3.7z"/>
</svg>
