<?xml version="1.0" encoding="utf-8"?>
<!-- Generator: Adobe Illustrator 22.1.0, SVG Export Plug-In . SVG Version: 6.00 Build 0)  -->
<svg version="1.1" id="Layer_1" xmlns="http://www.w3.org/2000/svg" xmlns:xlink="http://www.w3.org/1999/xlink" x="0px" y="0px"
	 viewBox="0 0 265 265" style="enable-background:new 0 0 265 265;" xml:space="preserve">
<style type="text/css">
	.st0{fill:#AED477;}
</style>
<path class="st0" d="M151.3,132.5c0,10.4-8.4,18.8-18.8,18.8c-10.4,0-18.8-8.4-18.8-18.8s8.4-18.8,18.8-18.8
	S151.3,122.1,151.3,132.5z"/>
<path class="st0" d="M206.9,132.5c0,10.4-8.4,18.8-18.8,18.8s-18.8-8.4-18.8-18.8s8.4-18.8,18.8-18.8S206.9,122.1,206.9,132.5z"/>
<path class="st0" d="M262.6,132.5c0,10.4-8.4,18.8-18.8,18.8c-10.4,0-18.8-8.4-18.8-18.8s8.4-18.8,18.8-18.8
	C254.1,113.6,262.6,122.1,262.6,132.5z"/>
<path class="st0" d="M95.7,132.5c0,10.4-8.4,18.8-18.8,18.8S58,142.9,58,132.5s8.4-18.8,18.8-18.8S95.7,122.1,95.7,132.5z"/>
<path class="st0" d="M151.3,243.8c0,10.4-8.4,18.8-18.8,18.8s-18.8-8.4-18.8-18.8c0-10.4,8.4-18.8,18.8-18.8
	S151.3,233.4,151.3,243.8z"/>
<path class="st0" d="M151.3,21.2c0,10.4-8.4,18.8-18.8,18.8s-18.8-8.4-18.8-18.8s8.4-18.8,18.8-18.8S151.3,10.8,151.3,21.2z"/>
<path class="st0" d="M151.3,190.4c0,10.4-8.4,18.8-18.8,18.8s-18.8-8.4-18.8-18.8c0-10.4,8.4-18.8,18.8-18.8S151.3,180,151.3,190.4z
	"/>
<path class="st0" d="M206.9,190.4c0,10.4-8.4,18.8-18.8,18.8c-10.4,0-18.8-8.4-18.8-18.8c0-10.4,8.4-18.8,18.8-18.8
	C198.5,171.5,206.9,180,206.9,190.4z"/>
<path class="st0" d="M95.7,190.4c0,10.4-8.4,18.8-18.8,18.8S58,200.8,58,190.4c0-10.4,8.4-18.8,18.8-18.8S95.7,180,95.7,190.4z"/>
<path class="st0" d="M151.3,73.8c0,10.4-8.4,18.8-18.8,18.8s-18.8-8.4-18.8-18.8S122.1,55,132.5,55S151.3,63.4,151.3,73.8z"/>
<path class="st0" d="M206.9,73.8c0,10.4-8.4,18.8-18.8,18.8c-10.4,0-18.8-8.4-18.8-18.8S177.7,55,188.1,55
	C198.5,55,206.9,63.4,206.9,73.8z"/>
<path class="st0" d="M95.7,73.8c0,10.4-8.4,18.8-18.8,18.8S58,84.2,58,73.8S66.4,55,76.8,55S95.7,63.4,95.7,73.8z"/>
<path class="st0" d="M40.1,132.5c0,10.4-8.4,18.8-18.8,18.8s-18.8-8.4-18.8-18.8s8.4-18.8,18.8-18.8S40.1,122.1,40.1,132.5z"/>
</svg>
