<?xml version="1.0" encoding="utf-8"?>
<!-- Generator: Adobe Illustrator 22.1.0, SVG Export Plug-In . SVG Version: 6.00 Build 0)  -->
<svg version="1.1" id="Layer_1" xmlns="http://www.w3.org/2000/svg" xmlns:xlink="http://www.w3.org/1999/xlink" x="0px" y="0px"
	 viewBox="0 0 265 265" style="enable-background:new 0 0 265 265;" xml:space="preserve">
<style type="text/css">
	.st0{fill:#AED477;}
</style>
<g>
	<g>
		<path class="st0" d="M132.5,70C98.1,70,70,98.1,70,132.5s28,62.5,62.5,62.5s62.5-28,62.5-62.5S166.9,70,132.5,70z M132.5,186.1
			c-29.6,0-53.6-24.1-53.6-53.6s24.1-53.6,53.6-53.6s53.6,24.1,53.6,53.6S162.1,186.1,132.5,186.1z"/>
		<path class="st0" d="M174.4,4.6H90.6c-47.4,0-86,38.6-86,86v83.8c0,47.4,38.6,86,86,86h83.8c47.4,0,86-38.6,86-86V90.6
			C260.4,43.2,221.8,4.6,174.4,4.6z M251.5,174.4c0,42.5-34.6,77.2-77.2,77.2H90.6c-42.5,0-77.2-34.6-77.2-77.2V90.6
			c0-42.5,34.6-77.2,77.2-77.2h83.8c42.5,0,77.2,34.6,77.2,77.2C251.5,90.6,251.5,174.4,251.5,174.4z"/>
		<path class="st0" d="M202.3,42.5c-11.1,0-20.2,9.1-20.2,20.2s9.1,20.2,20.2,20.2s20.2-9.1,20.2-20.2S213.5,42.5,202.3,42.5z
			 M202.3,74.1c-6.3,0-11.4-5.1-11.4-11.4s5.1-11.4,11.4-11.4c6.3,0,11.4,5.1,11.4,11.4S208.6,74.1,202.3,74.1z"/>
	</g>
</g>
</svg>
