<?xml version="1.0" encoding="utf-8"?>
<!-- Generator: Adobe Illustrator 22.1.0, SVG Export Plug-In . SVG Version: 6.00 Build 0)  -->
<svg version="1.1" id="Layer_1" xmlns="http://www.w3.org/2000/svg" xmlns:xlink="http://www.w3.org/1999/xlink" x="0px" y="0px"
	 viewBox="0 0 265 265" style="enable-background:new 0 0 265 265;" xml:space="preserve">
<style type="text/css">
	.st0{fill:#AED477;}
</style>
<title>uber_rides_api_icon</title>
<desc>Created with Sketch.</desc>
<path class="st0" d="M241.6,3.9H23.4c-10.8,0-19.5,8.7-19.5,19.5v218.2c0,10.8,8.7,19.5,19.5,19.5h218.2c10.8,0,19.5-8.7,19.5-19.5
	V23.4C261.1,12.6,252.4,3.9,241.6,3.9z M137.7,210.3c-41.9,2.8-78.5-28.2-82.8-70h54.2V152c0,2.2,1.7,3.9,3.9,3.9h39
	c2.2,0,3.9-1.7,3.9-3.9v-39c0-2.2-1.7-3.9-3.9-3.9h-39c-2.2,0-3.9,1.7-3.9,3.9v11.7H54.9c4-39.8,37.5-70.1,77.6-70.1
	c42,0,76.5,33.3,77.9,75.3S179.6,207.5,137.7,210.3z"/>
</svg>
