<?xml version="1.0" encoding="utf-8"?>
<!-- Generator: Adobe Illustrator 22.1.0, SVG Export Plug-In . SVG Version: 6.00 Build 0)  -->
<svg version="1.1" id="Layer_1" xmlns="http://www.w3.org/2000/svg" xmlns:xlink="http://www.w3.org/1999/xlink" x="0px" y="0px"
	 viewBox="0 0 185 215" style="enable-background:new 0 0 185 215;" xml:space="preserve">
<style type="text/css">
	.st0{fill:#AED477;}
</style>
<path class="st0" d="M153.4,49.9c-0.1-0.2-0.1-0.4-0.2-0.6c-0.1-0.2-0.2-0.6-0.3-0.8l-0.5-1.6c0-0.1-0.1-0.2-0.2-0.2
	c-9.1-25.9-33.3-43.3-60.9-43.7c-0.3,0-0.6,0-0.9,0c-14.1,0-27.6,4.6-39,13.4C35.2,28.7,26.9,48.9,29.8,68.9
	c0.8,5.9,2.2,9.3,3.1,10.8c-0.2,1.1-0.3,2.1-0.3,3.2c0,6,3.5,11.5,8.8,14.1v0.2c0,0.6,0.1,1.2,0.1,1.7c-0.1,6-1.1,15.7-5.1,20.5
	c-0.8,0.9-0.8,2.3,0,3.2c0.2,0.3,6.1,7.2,16.5,7.2c0.3,0,0.7,0,1.1-0.1c6.7,7.5,15.7,13,26.1,15.2v4.2c-3.2,0.7-6.4,1.7-9.5,3.2
	c-3.2,1.4-6.2,3.2-9,5.2l0,0c-3.2,2.3-6,5-8.4,7.9c-0.1,0.1-0.1,0.1-0.1,0.2c-7.3,8.6-11.5,19.8-11.5,31.5v12.4
	c0,1.4,1.2,2.6,2.6,2.6h93c1.4,0,2.6-1.2,2.6-2.6v-12.4c0-15.3-7.2-29.5-19-38.6l-0.1-0.1c-3.1-2.3-6.4-4.4-10-6
	c-3.1-1.4-6.3-2.5-9.5-3.2v-4.2c10.4-2.2,19.4-7.7,26.1-15.2c0.4,0,0.8,0.1,1.2,0.1c10.5,0,16.3-7,16.5-7.2c0.7-0.9,0.7-2.3,0-3.2
	c-4.9-5.9-5.1-18.3-5.1-22.5c2.1-1.1,3.9-2.6,5.3-4.4c0.1-0.1,0.2-0.2,0.2-0.2l0.6-0.9c0.1-0.1,0.2-0.2,0.2-0.3l2.4-3.6
	c7.5-10.9,9.4-24.3,5.4-36.9L153.4,49.9z M35.8,73.3c-0.3-1.3-0.7-3-1-5.1c-2.7-18.3,4.9-36.6,19.6-47.8C65,12.3,77.4,8.1,90.4,8.1
	c0.2,0,0.5,0,0.8,0c26.1,0.3,48.8,17.2,56.9,42l0.3,1.2c2.2,7.5-0.6,15.6-6.9,19.8c-0.5,0.3-0.7,0.5-0.7,0.5
	c-15.9,7.8-30.5,9.4-43.7,4.6c-21.6-7.9-31.8-30.5-31.9-30.7c-0.1-0.2-0.2-0.5-0.4-0.7c-0.1-0.1-0.1-0.1-0.2-0.2
	c-0.2-0.2-0.2-0.2-0.4-0.3c-0.1,0-0.1-0.1-0.2-0.1C64,44.1,63.8,44,63.5,44c-0.1,0-0.2,0-0.2,0C63.2,44,63.1,44,63,44
	c-0.1,0-0.2,0-0.2,0c-0.2,0-0.5,0.1-0.7,0.2c-0.7,0.3-1.3,0.9-1.5,1.7C57.7,57,45.3,66.4,42.9,68.1c-0.1,0.1-0.2,0.1-0.2,0.2
	c-0.7,0.2-1.4,0.6-2.1,1c-0.2,0.2-0.5,0.3-0.7,0.5c-0.4,0.2-0.7,0.5-1.1,0.7c-0.3,0.2-0.6,0.5-0.8,0.7c-0.2,0.2-0.5,0.5-0.8,0.7
	c-0.3,0.3-0.6,0.6-0.8,0.9C36.1,73,36,73.2,35.8,73.3z M41.5,120.9c1.2-1.9,2.1-4.2,2.8-6.4c1.3,3.6,3.1,7,5.2,10.1
	C45.8,123.9,43.1,122.2,41.5,120.9z M75.5,166.2C75.6,166.2,75.6,166.2,75.5,166.2c0.7,0.7,1.6,1.3,2.3,1.8c0.1,0.1,0.2,0.2,0.2,0.2
	c0.7,0.5,1.6,1,2.5,1.4c0.2,0.1,0.2,0.2,0.4,0.2c0.8,0.4,1.7,0.7,2.6,1c0.2,0.1,0.3,0.1,0.5,0.2c0.9,0.2,1.8,0.5,2.8,0.7
	c0.1,0,0.2,0,0.3,0.1c1,0.2,2,0.2,3.1,0.2c1,0,2.1-0.1,3.1-0.2c0.1,0,0.2,0,0.3-0.1c0.9-0.2,1.9-0.3,2.8-0.7
	c0.2-0.1,0.3-0.1,0.5-0.2c0.9-0.2,1.7-0.6,2.6-1c0.2-0.1,0.3-0.2,0.4-0.2c0.8-0.4,1.7-0.9,2.4-1.4c0.1-0.1,0.2-0.2,0.2-0.2
	c0.8-0.6,1.6-1.2,2.2-1.7c0,0,0.1,0,0.1-0.1c0.7-0.7,1.4-1.3,2-2.1c0.1-0.1,0.2-0.2,0.2-0.3c0.6-0.7,1.2-1.5,1.7-2.3
	c0.1-0.2,0.2-0.2,0.2-0.4c0.5-0.8,0.9-1.7,1.3-2.5c0-0.1,0.1-0.1,0.1-0.2c1.7,0.9,3.3,1.9,4.9,3c-2,4.6-8.8,17-25.2,17
	c-16.4,0-22.7-12.9-24.4-17.5c1.3-0.8,2.7-1.7,4-2.4c0,0.1,0.1,0.1,0.1,0.2c0.4,0.9,0.8,1.7,1.3,2.6c0.1,0.2,0.2,0.2,0.2,0.4
	c0.5,0.8,1.1,1.6,1.7,2.3c0.1,0.1,0.2,0.2,0.2,0.2C74.1,164.9,74.8,165.6,75.5,166.2z M61.8,164c2.8,6.5,10.7,19.5,28.6,19.5
	c17.8,0,26.2-12.6,29.3-18.8c1.2,1.1,2.3,2.2,3.4,3.4V207H57.2v-38.5C58.6,166.9,60.1,165.4,61.8,164z M46.4,197.3
	c0-7.7,2.1-15.1,5.7-21.6v31.4h-5.7V197.3z M134.3,207h-6.1v-32c3.9,6.6,6.1,14.2,6.1,22.2V207z M131,124.6c2.2-3.2,4-6.7,5.3-10.4
	c0.7,2.4,1.6,4.6,2.8,6.6C137.7,122.2,134.9,124,131,124.6z M135.9,93c-1,0.3-1.7,1.3-1.7,2.4v1.9c0,21.4-15.4,39.6-36.5,43.2
	c-1.2,0.2-2.2,1.2-2.2,2.5v8.4c0,1.2,0.9,2.3,2.2,2.5c2.7,0.5,5.6,1.2,8.2,2.3c0,0.1-0.1,0.2-0.1,0.3c-0.2,0.3-0.3,0.7-0.5,1
	c-0.2,0.5-0.5,0.9-0.7,1.3c-0.2,0.3-0.4,0.7-0.7,0.9c-0.3,0.4-0.6,0.8-0.9,1.2c-0.2,0.2-0.5,0.6-0.7,0.8c-0.3,0.3-0.7,0.7-1.1,1
	c-0.2,0.2-0.6,0.5-0.9,0.7c-0.4,0.3-0.8,0.6-1.2,0.8c-0.3,0.2-0.7,0.4-0.9,0.6c-0.5,0.2-1,0.4-1.5,0.7c-0.3,0.2-0.7,0.2-1,0.4
	c-0.6,0.2-1.2,0.3-1.7,0.4c-0.2,0.1-0.6,0.2-0.8,0.2c-0.9,0.2-1.7,0.2-2.7,0.2c-0.9,0-1.8-0.1-2.7-0.2c-0.3-0.1-0.6-0.2-0.8-0.2
	c-0.6-0.2-1.2-0.2-1.7-0.4c-0.3-0.1-0.7-0.2-1-0.4c-0.5-0.2-1-0.4-1.5-0.7c-0.3-0.2-0.7-0.3-0.9-0.6c-0.4-0.2-0.8-0.5-1.2-0.8
	c-0.3-0.2-0.6-0.4-0.9-0.7c-0.4-0.3-0.7-0.7-1.1-1c-0.2-0.2-0.5-0.5-0.7-0.8c-0.3-0.4-0.7-0.7-0.9-1.2c-0.2-0.3-0.4-0.6-0.7-0.9
	c-0.2-0.4-0.5-0.9-0.7-1.4c-0.2-0.3-0.3-0.7-0.5-1c-0.1-0.1-0.1-0.2-0.1-0.3c2.7-1.1,5.5-1.8,8.2-2.3c1.2-0.2,2.2-1.2,2.2-2.5V143
	c0-1.2-0.9-2.3-2.2-2.5c-10.4-1.7-19.3-7.1-25.7-14.4c-0.2-0.2-0.3-0.5-0.7-0.7c-6.1-7.3-9.7-16.5-10.1-26.6c0-2-0.1-3.4-0.1-3.6
	c0-0.1,0-0.1-0.1-0.2c0-0.2-0.1-0.5-0.2-0.7c0-0.1-0.1-0.2-0.1-0.2c-0.2-0.2-0.3-0.4-0.5-0.7l-0.1-0.1c-0.2-0.2-0.5-0.3-0.7-0.5
	c-4.2-1.6-7.1-5.6-7.1-10c0-1,0.2-2,0.4-2.9l0,0c0.1-0.3,0.2-0.7,0.4-1.1c0-0.1,0.1-0.2,0.1-0.2c0.2-0.3,0.3-0.7,0.5-0.9
	c0.1-0.1,0.2-0.2,0.2-0.3c0.2-0.2,0.3-0.6,0.5-0.8c0.2-0.3,0.5-0.7,0.8-1c0.1-0.2,0.2-0.2,0.4-0.3c0.2-0.2,0.5-0.5,0.7-0.7
	c0.1-0.1,0.2-0.2,0.3-0.2c0.3-0.2,0.7-0.4,1-0.7c0.1-0.1,0.2-0.1,0.2-0.2c0.5-0.2,0.9-0.5,1.4-0.7c0.2-0.1,0.4-0.2,0.6-0.2
	c0.1-0.1,0.7-0.5,1.7-1.2c4-2.9,12.1-10,16.4-18.8c0.6,0.9,1.2,2,1.9,3.1c4.9,7.5,13.7,18.1,27,23.9c1,0.4,2.1,0.9,3.2,1.2
	c1.2,0.4,2.5,0.8,3.7,1.2c0.2,0.1,0.6,0.2,0.8,0.2c1.2,0.3,2.5,0.6,3.7,0.8c0.2,0,0.4,0.1,0.6,0.1c1.2,0.2,2.3,0.3,3.5,0.4
	c0.2,0,0.5,0.1,0.7,0.1c1.2,0.1,2.6,0.2,3.9,0.2c0.1,0,0.2,0,0.3,0c0.2,0,0.4,0,0.7,0c0.8,0,1.6,0,2.4-0.1c0.3,0,0.7,0,1-0.1
	c1-0.1,2-0.2,3-0.3c0.1,0,0.2,0,0.3,0c1.2-0.2,2.3-0.3,3.5-0.6c0.2,0,0.4-0.1,0.6-0.2c1-0.2,1.9-0.4,2.9-0.7
	c0.2-0.1,0.6-0.2,0.8-0.2c1-0.2,2-0.6,3-0.8c0.2-0.1,0.4-0.1,0.6-0.2c2.4-0.7,4.8-1.7,7.3-2.7c0.3-0.2,0.6-0.2,0.9-0.4
	c0.5-0.2,1-0.4,1.5-0.7c1.2,1.7,1.8,3.8,1.8,6c0,2.1-0.7,4.1-1.7,5.8l-0.3,0.5C139.8,90.9,138,92.3,135.9,93z M147.5,78.4
	c-0.4-1.4-1.1-2.7-1.8-4c1.7-1.3,3.2-2.9,4.4-4.7C149.5,72.7,148.7,75.6,147.5,78.4z"/>
</svg>
