<?xml version="1.0" encoding="utf-8"?>
<!-- Generator: Adobe Illustrator 22.1.0, SVG Export Plug-In . SVG Version: 6.00 Build 0)  -->
<svg version="1.1" id="Layer_1" xmlns="http://www.w3.org/2000/svg" xmlns:xlink="http://www.w3.org/1999/xlink" x="0px" y="0px"
	 viewBox="0 0 265 265" style="enable-background:new 0 0 265 265;" xml:space="preserve">
<style type="text/css">
	.st0{fill:#AED477;}
</style>
<path class="st0" d="M205.9,63.1c-0.1-0.2-0.1-0.5-0.2-0.7c-0.1-0.3-0.2-0.7-0.4-1l-0.6-1.9c0-0.1-0.1-0.2-0.2-0.3
	C193.5,28,164.4,7,131.1,6.5c-0.4,0-0.7,0-1.1,0c-17,0-33.2,5.5-47,16.1C63.5,37.5,53.5,61.8,57,86c1,7.1,2.7,11.2,3.7,13
	c-0.3,1.3-0.4,2.5-0.4,3.8c0,7.2,4.2,13.8,10.6,17v0.2c0,0.7,0.1,1.4,0.1,2.1c-0.1,7.2-1.3,18.9-6.1,24.7c-1,1.1-1,2.8,0,3.9
	c0.3,0.4,7.3,8.7,19.9,8.7c0.4,0,0.8,0,1.3-0.1c8.1,9,18.9,15.6,31.4,18.3v5.1c-3.9,0.9-7.7,2.1-11.5,3.8c-3.9,1.7-7.5,3.9-10.8,6.3
	c0,0,0,0,0,0c-3.8,2.8-7.2,6-10.1,9.5c-0.1,0.1-0.1,0.1-0.1,0.2c-8.8,10.4-13.9,23.8-13.9,37.9v14.9c0,1.7,1.4,3.1,3.1,3.1h112
	c1.7,0,3.1-1.4,3.1-3.1v-14.9c0-18.4-8.7-35.5-22.9-46.5c0,0-0.1-0.1-0.1-0.1c-3.7-2.8-7.7-5.3-12-7.2c-3.7-1.7-7.6-3-11.5-3.8v-5.1
	c12.5-2.7,23.4-9.3,31.4-18.3c0.5,0,1,0.1,1.4,0.1c12.6,0,19.6-8.4,19.9-8.7c0.9-1.1,0.9-2.8,0-3.9c-5.9-7.1-6.2-22-6.1-27.1
	c2.5-1.3,4.7-3.1,6.4-5.3c0.1-0.1,0.2-0.2,0.3-0.3l0.7-1.1c0.1-0.1,0.2-0.2,0.2-0.4l2.9-4.3c9-13.1,11.3-29.3,6.5-44.4L205.9,63.1z
	 M64.3,91.2c-0.4-1.6-0.9-3.6-1.2-6.1C59.9,63.1,69,41,86.7,27.5c12.7-9.7,27.7-14.8,43.3-14.8c0.3,0,0.6,0,1,0
	c31.4,0.4,58.8,20.7,68.5,50.6l0.4,1.4c2.6,9-0.7,18.8-8.3,23.9c-0.6,0.4-0.9,0.6-0.9,0.6c-19.1,9.4-36.8,11.3-52.6,5.6
	c-26-9.5-38.3-36.8-38.4-37c-0.1-0.3-0.3-0.6-0.5-0.8c-0.1-0.1-0.1-0.1-0.2-0.2c-0.2-0.2-0.3-0.3-0.5-0.4c-0.1,0-0.1-0.1-0.2-0.1
	C98.2,56.1,98,56,97.7,56c-0.1,0-0.2,0-0.2,0c-0.2,0-0.3-0.1-0.5-0.1c-0.1,0-0.2,0-0.3,0c-0.3,0-0.6,0.1-0.9,0.2
	c-0.9,0.4-1.6,1.1-1.8,2.1C90.6,71.6,75.7,82.9,72.8,85c-0.1,0.1-0.2,0.1-0.3,0.2c-0.9,0.3-1.7,0.7-2.5,1.2
	c-0.3,0.2-0.6,0.4-0.9,0.6c-0.5,0.3-0.9,0.6-1.3,0.9c-0.4,0.3-0.7,0.6-1,0.9c-0.3,0.3-0.6,0.6-1,0.9c-0.4,0.4-0.7,0.7-1,1.1
	C64.6,90.9,64.5,91.1,64.3,91.2z M71.2,148.6c1.5-2.3,2.5-5,3.4-7.7c1.6,4.3,3.7,8.4,6.3,12.2C76.3,152.2,73.1,150.1,71.2,148.6z
	 M112.1,203.2C112.2,203.2,112.2,203.2,112.1,203.2c0.9,0.8,1.9,1.6,2.8,2.2c0.1,0.1,0.2,0.2,0.3,0.2c0.9,0.6,1.9,1.2,3,1.7
	c0.2,0.1,0.3,0.2,0.5,0.3c1,0.5,2.1,0.9,3.1,1.2c0.2,0.1,0.4,0.1,0.6,0.2c1.1,0.3,2.2,0.6,3.4,0.8c0.1,0,0.3,0,0.4,0.1
	c1.2,0.2,2.4,0.3,3.7,0.3c1.2,0,2.5-0.1,3.7-0.3c0.1,0,0.3,0,0.4-0.1c1.1-0.2,2.3-0.4,3.4-0.8c0.2-0.1,0.4-0.1,0.6-0.2
	c1.1-0.3,2.1-0.7,3.1-1.2c0.2-0.1,0.4-0.2,0.5-0.3c1-0.5,2-1.1,2.9-1.7c0.1-0.1,0.2-0.2,0.3-0.2c1-0.7,1.9-1.4,2.7-2.1
	c0,0,0.1,0,0.1-0.1c0.9-0.8,1.7-1.6,2.4-2.5c0.1-0.1,0.2-0.2,0.3-0.4c0.7-0.9,1.4-1.8,2-2.8c0.1-0.2,0.2-0.3,0.3-0.5
	c0.6-1,1.1-2,1.6-3c0-0.1,0.1-0.1,0.1-0.2c2,1.1,4,2.3,5.9,3.6c-2.4,5.5-10.6,20.5-30.4,20.5c-19.7,0-27.3-15.5-29.4-21.1
	c1.6-1,3.2-2,4.8-2.9c0,0.1,0.1,0.1,0.1,0.2c0.5,1.1,1,2.1,1.6,3.1c0.1,0.2,0.2,0.3,0.3,0.5c0.6,1,1.3,1.9,2,2.8
	c0.1,0.1,0.2,0.2,0.3,0.3C110.4,201.6,111.3,202.4,112.1,203.2z M95.6,200.5C99,208.3,108.5,224,130,224c21.4,0,31.6-15.2,35.3-22.7
	c1.5,1.3,2.8,2.7,4.1,4.1v46.9H90.1v-46.4C91.8,204,93.6,202.2,95.6,200.5z M77,240.6c0-9.3,2.5-18.2,6.9-26v37.8H77V240.6z
	 M182.9,252.3h-7.3v-38.5c4.7,8,7.3,17.1,7.3,26.7V252.3z M179,153.1c2.6-3.9,4.8-8.1,6.4-12.5c0.8,2.9,1.9,5.6,3.4,8
	C187,150.1,183.6,152.3,179,153.1z M184.9,115c-1.2,0.4-2,1.6-2,2.9v2.3c0,25.8-18.5,47.7-44,52.1c-1.5,0.3-2.6,1.5-2.6,3v10.1
	c0,1.5,1.1,2.8,2.6,3c3.3,0.6,6.7,1.5,9.9,2.8c0,0.1-0.1,0.2-0.1,0.4c-0.2,0.4-0.4,0.8-0.6,1.2c-0.3,0.6-0.6,1.1-0.9,1.6
	c-0.2,0.4-0.5,0.8-0.8,1.1c-0.4,0.5-0.7,1-1.1,1.4c-0.3,0.3-0.6,0.7-0.9,1c-0.4,0.4-0.9,0.8-1.3,1.2c-0.3,0.3-0.7,0.6-1.1,0.8
	c-0.5,0.4-1,0.7-1.5,1c-0.4,0.2-0.8,0.5-1.1,0.7c-0.6,0.3-1.2,0.5-1.8,0.8c-0.4,0.2-0.8,0.3-1.2,0.5c-0.7,0.2-1.4,0.4-2.1,0.5
	c-0.3,0.1-0.7,0.2-1,0.2c-1.1,0.2-2.1,0.3-3.3,0.3c-1.1,0-2.2-0.1-3.3-0.3c-0.4-0.1-0.7-0.2-1-0.2c-0.7-0.2-1.4-0.3-2.1-0.5
	c-0.4-0.1-0.8-0.3-1.2-0.5c-0.6-0.2-1.2-0.5-1.8-0.8c-0.4-0.2-0.8-0.4-1.1-0.7c-0.5-0.3-1-0.6-1.5-1c-0.4-0.3-0.7-0.5-1.1-0.8
	c-0.5-0.4-0.9-0.8-1.3-1.2c-0.3-0.3-0.6-0.6-0.9-1c-0.4-0.5-0.8-0.9-1.1-1.4c-0.3-0.4-0.5-0.7-0.8-1.1c-0.3-0.5-0.6-1.1-0.9-1.7
	c-0.2-0.4-0.4-0.8-0.6-1.2c-0.1-0.1-0.1-0.3-0.1-0.4c3.3-1.3,6.6-2.2,9.9-2.8c1.5-0.3,2.6-1.5,2.6-3v-10.1c0-1.5-1.1-2.8-2.6-3
	c-12.5-2.1-23.2-8.5-31-17.4c-0.2-0.3-0.4-0.6-0.8-0.9c-7.3-8.8-11.7-19.9-12.2-32c0-2.4-0.1-4.1-0.1-4.3c0-0.1,0-0.1-0.1-0.2
	c0-0.3-0.1-0.6-0.2-0.8c0-0.1-0.1-0.2-0.1-0.3c-0.2-0.3-0.4-0.5-0.6-0.8c0,0-0.1-0.1-0.1-0.1c-0.3-0.2-0.6-0.4-0.9-0.6
	c-5.1-1.9-8.6-6.7-8.6-12.1c0-1.2,0.2-2.4,0.5-3.5c0,0,0,0,0,0c0.1-0.4,0.3-0.9,0.5-1.3c0-0.1,0.1-0.2,0.1-0.3
	c0.2-0.4,0.4-0.8,0.6-1.1c0.1-0.1,0.2-0.3,0.2-0.4c0.2-0.3,0.4-0.7,0.6-1c0.3-0.4,0.6-0.8,1-1.2c0.1-0.2,0.3-0.3,0.5-0.4
	c0.3-0.3,0.6-0.6,0.9-0.8c0.1-0.1,0.3-0.2,0.4-0.3c0.4-0.3,0.8-0.5,1.2-0.8c0.1-0.1,0.2-0.1,0.3-0.2c0.6-0.3,1.1-0.6,1.7-0.8
	c0.2-0.1,0.5-0.2,0.7-0.3c0.1-0.1,0.9-0.6,2-1.4c4.8-3.5,14.6-12,19.8-22.6c0.7,1.1,1.4,2.4,2.3,3.7c5.9,9,16.5,21.8,32.5,28.8
	c1.2,0.5,2.5,1.1,3.8,1.5c1.5,0.5,3,1,4.5,1.4c0.3,0.1,0.7,0.2,1,0.3c1.5,0.4,3,0.7,4.5,1c0.2,0,0.5,0.1,0.7,0.1
	c1.4,0.2,2.8,0.4,4.2,0.5c0.3,0,0.6,0.1,0.9,0.1c1.5,0.1,3.1,0.2,4.7,0.2c0.1,0,0.3,0,0.4,0c0.3,0,0.5,0,0.8,0c1,0,1.9,0,2.9-0.1
	c0.4,0,0.8,0,1.2-0.1c1.2-0.1,2.4-0.2,3.6-0.4c0.1,0,0.3,0,0.4,0c1.4-0.2,2.8-0.4,4.2-0.7c0.2,0,0.5-0.1,0.7-0.2
	c1.2-0.2,2.3-0.5,3.5-0.8c0.3-0.1,0.7-0.2,1-0.3c1.2-0.3,2.4-0.7,3.6-1c0.2-0.1,0.5-0.1,0.7-0.2c2.9-0.9,5.8-2,8.8-3.3
	c0.4-0.2,0.7-0.3,1.1-0.5c0.6-0.3,1.2-0.5,1.8-0.8c1.4,2.1,2.2,4.6,2.2,7.2c0,2.5-0.8,4.9-2.1,7l-0.4,0.6
	C189.5,112.5,187.4,114.1,184.9,115z M198.8,97.4c-0.5-1.7-1.3-3.3-2.2-4.8c2.1-1.6,3.9-3.5,5.3-5.7C201.3,90.5,200.3,94,198.8,97.4
	z"/>
</svg>
