<?xml version="1.0" encoding="utf-8"?>
<!-- Generator: Adobe Illustrator 22.1.0, SVG Export Plug-In . SVG Version: 6.00 Build 0)  -->
<svg version="1.1" id="Layer_1" xmlns="http://www.w3.org/2000/svg" xmlns:xlink="http://www.w3.org/1999/xlink" x="0px" y="0px"
	 viewBox="0 0 171.8 253" style="enable-background:new 0 0 171.8 253;" xml:space="preserve">
<style type="text/css">
	.st0{fill:#AED477;}
</style>
<path class="st0" d="M168.4,34.5c-0.2,0-19.9,0.9-40.6-18.9c-14.3-13.7-53.4-27.2-84.3,0.9c-16.3-2.3-31.8,8-35.9,24L2.5,60.6
	c-0.4,1.3-0.7,2.7-1,4l-0.1,0.6c0,0.1-0.1,0.3-0.1,0.4c-1.5,7.3-1.7,14.8-0.7,22.1c1,6.8,2.6,10.7,3.6,12.5
	c-0.3,1.2-0.4,2.4-0.4,3.7c0,6.9,4,13.2,10.2,16.3v0.2c0,26.8,18.6,49.6,44.6,55.3v4.8c-3.7,0.8-7.4,2-11,3.7
	c-3.7,1.7-7.2,3.7-10.4,6.1l0,0c-3.6,2.7-6.9,5.7-9.7,9.1c-0.1,0-0.1,0.1-0.1,0.2c-8.4,10-13.3,22.8-13.3,36.3V250c0,1.6,1.3,3,3,3
	h107.3c1.6,0,3-1.3,3-3v-14.2c0-17.6-8.3-34-22-44.6l-0.1-0.1c-3.5-2.7-7.3-5.1-11.5-6.9c-3.6-1.6-7.3-2.8-11-3.7v-4.8
	c26-5.6,44.6-28.5,44.6-55.3v-0.2c6.2-3.1,10.2-9.4,10.2-16.3c0-3.4-1-6.8-2.8-9.6c11.7-6,21.2-15.1,27.6-26.6l0.1-0.3
	c0.5-0.9,0.5-1.9,0.1-2.8c-0.4-0.9-1.3-1.5-2.3-1.6c-0.5-0.1-11.4-1.5-14.8-10.5c8.2,0.6,20.3-1.9,26-13.8c0.4-0.9,0.4-2.1-0.2-2.9
	C170.4,34.9,169.4,34.5,168.4,34.5z M53.4,200C53.4,200,53.5,200.1,53.4,200c0.9,0.8,1.8,1.5,2.7,2.1c0.1,0.1,0.2,0.1,0.3,0.2
	c0.9,0.6,1.9,1.1,2.8,1.6c0.2,0.1,0.3,0.2,0.5,0.2c1,0.5,2,0.8,3,1.2c0.2,0.1,0.4,0.1,0.5,0.2c1.1,0.3,2.1,0.6,3.2,0.7
	c0.1,0,0.3,0,0.4,0.1c1.2,0.2,2.3,0.3,3.5,0.3s2.4-0.1,3.5-0.3c0.1,0,0.3,0,0.4-0.1c1.1-0.2,2.2-0.4,3.2-0.7
	c0.2-0.1,0.4-0.1,0.5-0.2c1-0.3,2-0.7,3-1.2c0.2-0.1,0.3-0.2,0.5-0.2c1-0.5,1.9-1,2.8-1.6c0.1-0.1,0.2-0.2,0.3-0.2
	c0.9-0.6,1.8-1.3,2.6-2c0,0,0.1,0,0.1-0.1c0.8-0.8,1.6-1.6,2.3-2.4c0.1-0.1,0.2-0.2,0.3-0.3c0.7-0.8,1.3-1.7,1.9-2.6
	c0.1-0.2,0.2-0.3,0.3-0.5c0.6-0.9,1.1-1.9,1.5-2.9c0-0.1,0.1-0.1,0.1-0.2c2,1,3.8,2.2,5.6,3.4c-2.3,5.3-10.2,19.6-29.1,19.6
	S44,199.2,42,193.8c1.5-1,3-1.9,4.6-2.8c0,0.1,0.1,0.1,0.1,0.2c0.4,1,0.9,2,1.5,2.9c0.1,0.2,0.2,0.3,0.3,0.5
	c0.6,0.9,1.2,1.8,1.9,2.7c0.1,0.1,0.2,0.2,0.3,0.3C51.8,198.4,52.6,199.3,53.4,200z M37.5,197.5c3.3,7.5,12.4,22.5,33,22.5
	c20.5,0,30.3-14.6,33.8-21.7c1.4,1.3,2.7,2.6,4,4v44.9h-76v-44.5C33.9,200.8,35.7,199.1,37.5,197.5z M19.8,235.8
	c0-8.9,2.4-17.4,6.7-24.9v36.2h-6.7V235.8z M121.2,247.1h-7v-36.9c4.5,7.6,7,16.4,7,25.6V247.1z M123.1,115.5
	c-1.2,0.4-1.9,1.5-1.9,2.8v2.2c0,24.7-17.7,45.7-42.2,49.9c-1.4,0.2-2.5,1.5-2.5,2.9v9.7c0,1.4,1,2.7,2.5,2.9
	c3.2,0.6,6.4,1.4,9.5,2.7c0,0.1-0.1,0.2-0.1,0.3c-0.2,0.4-0.4,0.8-0.6,1.2c-0.3,0.5-0.6,1.1-0.9,1.6c-0.2,0.4-0.5,0.7-0.8,1.1
	c-0.3,0.5-0.7,0.9-1.1,1.4c-0.3,0.3-0.6,0.6-0.9,1c-0.4,0.4-0.8,0.8-1.3,1.2c-0.3,0.3-0.7,0.5-1,0.8c-0.5,0.3-1,0.7-1.5,1
	c-0.4,0.2-0.7,0.4-1.1,0.6c-0.5,0.3-1.1,0.5-1.7,0.7c-0.4,0.1-0.7,0.3-1.1,0.4c-0.6,0.2-1.3,0.4-2,0.5c-0.3,0.1-0.7,0.2-1,0.2
	c-1,0.2-2.1,0.3-3.1,0.3c-1.1,0-2.1-0.1-3.1-0.3c-0.3-0.1-0.7-0.2-1-0.2c-0.7-0.1-1.3-0.3-2-0.5c-0.4-0.1-0.7-0.3-1.1-0.4
	c-0.6-0.2-1.1-0.5-1.7-0.7c-0.4-0.2-0.7-0.4-1.1-0.6c-0.5-0.3-1-0.6-1.5-1c-0.3-0.3-0.7-0.5-1-0.8c-0.4-0.4-0.9-0.8-1.3-1.2
	c-0.3-0.3-0.6-0.6-0.9-0.9c-0.4-0.4-0.7-0.9-1.1-1.4c-0.3-0.3-0.5-0.7-0.7-1c-0.3-0.5-0.6-1.1-0.9-1.6c-0.2-0.4-0.4-0.7-0.6-1.1
	c-0.1-0.1-0.1-0.2-0.1-0.4c3.1-1.2,6.3-2.1,9.5-2.7c1.4-0.2,2.5-1.5,2.5-2.9v-9.7c0-1.4-1-2.7-2.5-2.9
	c-24.4-4.2-42.2-25.2-42.2-49.9v-2.2c0-1.2-0.8-2.4-1.9-2.8c-4.9-1.8-8.2-6.4-8.2-11.6c0-1.1,0.2-2.3,0.5-3.3l0,0
	c0.1-0.4,0.3-0.8,0.4-1.2c0-0.1,0.1-0.2,0.1-0.3c0.2-0.4,0.3-0.7,0.5-1.1c0.1-0.1,0.2-0.3,0.2-0.4c0.2-0.3,0.4-0.6,0.6-0.9
	c0.3-0.4,0.6-0.8,0.9-1.1c0.1-0.1,0.3-0.3,0.4-0.4c0.3-0.3,0.6-0.5,0.9-0.8c0.1-0.1,0.3-0.2,0.4-0.3c0.4-0.3,0.7-0.5,1.1-0.7
	c0.1-0.1,0.2-0.1,0.3-0.2c0.5-0.3,1.1-0.5,1.7-0.7c0.2-0.1,0.4-0.2,0.7-0.3c0.1-0.1,0.8-0.6,1.9-1.4c4.6-3.4,14-11.5,19-21.6
	c0.6,1.1,1.4,2.3,2.2,3.5c5.6,8.6,15.8,20.8,31.2,27.6c1.2,0.5,2.4,1,3.6,1.5c1.4,0.5,2.9,1,4.3,1.4c0.3,0.1,0.6,0.2,1,0.3
	c1.4,0.4,2.9,0.7,4.3,1c0.2,0,0.5,0.1,0.7,0.1c1.3,0.2,2.6,0.4,4,0.5c0.3,0,0.6,0.1,0.8,0.1c1.5,0.1,3,0.2,4.5,0.2
	c0.1,0,0.2,0,0.4,0s0.5,0,0.7,0c0.9,0,1.8,0,2.8-0.1c0.4,0,0.8,0,1.2-0.1c1.1-0.1,2.3-0.2,3.5-0.3c0.1,0,0.3,0,0.4,0
	c1.3-0.2,2.7-0.4,4.1-0.7c0.2,0,0.5-0.1,0.7-0.1c1.1-0.2,2.2-0.5,3.4-0.8c0.3-0.1,0.7-0.2,1-0.3c1.1-0.3,2.3-0.6,3.4-1
	c0.2-0.1,0.5-0.1,0.7-0.2c2.8-0.9,5.6-2,8.4-3.2c0.4-0.2,0.7-0.3,1.1-0.5c0.6-0.3,1.1-0.5,1.7-0.8c1.4,2,2.1,4.4,2.1,6.9
	C131.4,109.1,128.1,113.7,123.1,115.5z M142,46.1c-0.9-0.2-1.9,0-2.6,0.7c-0.7,0.6-1.1,1.6-1,2.5c1.2,11.1,9.9,16.6,16.6,18.6
	c-6.1,9.5-14.7,17.1-25,22c-0.1,0.1-0.3,0.1-0.4,0.2c-0.5,0.4-0.9,0.6-0.9,0.6c-18.3,9-35.3,10.8-50.4,5.3
	c-24.8-9-36.6-35.1-36.7-35.4s-0.3-0.5-0.5-0.8c-0.1-0.1-0.1-0.1-0.2-0.1c-0.2-0.2-0.3-0.3-0.5-0.4c-0.1,0-0.1-0.1-0.2-0.1
	c-0.2-0.1-0.4-0.2-0.6-0.3c-0.1,0-0.2,0-0.2,0c-0.2,0-0.3-0.1-0.5-0.1c-0.1,0-0.2,0-0.2,0c-0.3,0-0.6,0.1-0.9,0.2
	c-0.8,0.4-1.5,1.1-1.7,2c-3.3,12.9-17.5,23.7-20.4,25.7c-0.1,0.1-0.2,0.1-0.2,0.2c-0.8,0.3-1.6,0.7-2.4,1.1
	c-0.3,0.2-0.6,0.4-0.9,0.6c-0.4,0.3-0.9,0.6-1.3,0.9c-0.3,0.3-0.7,0.6-1,0.8c-0.3,0.3-0.6,0.5-0.9,0.8c-0.3,0.3-0.6,0.7-1,1.1
	c-0.1,0.2-0.3,0.3-0.4,0.5c-0.4-1.6-0.8-3.5-1.2-5.8c-1-6.7-0.7-13.6,0.7-20.3c0-0.1,0-0.1,0-0.2L7.2,66c0.3-1.2,0.6-2.5,1-3.8
	L13.3,42c3.4-13.5,16.8-22.1,30.5-19.5c0.9,0.2,1.9-0.1,2.6-0.8c30.4-28.7,67.3-11.4,77.2-1.9c16.2,15.5,31.8,19.3,39.7,20.3
	C155.9,49,142.6,46.2,142,46.1z"/>
</svg>
