<?xml version="1.0" encoding="utf-8"?>
<!-- Generator: Adobe Illustrator 22.1.0, SVG Export Plug-In . SVG Version: 6.00 Build 0)  -->
<svg version="1.1" id="Layer_1" xmlns="http://www.w3.org/2000/svg" xmlns:xlink="http://www.w3.org/1999/xlink" x="0px" y="0px"
	 viewBox="0 0 265 265" style="enable-background:new 0 0 265 265;" xml:space="preserve">
<style type="text/css">
	.st0{fill:#AED477;}
</style>
<path class="st0" d="M215.2,40.5c-0.2,0-19.9,0.9-40.6-18.9c-14.3-13.7-53.4-27.2-84.3,0.9C74,20.2,58.5,30.5,54.4,46.5l-5.1,20.1
	c-0.4,1.3-0.7,2.7-1,4l-0.1,0.6c0,0.1-0.1,0.3-0.1,0.4c-1.5,7.3-1.7,14.8-0.7,22.1c1,6.8,2.6,10.7,3.6,12.5
	c-0.3,1.2-0.4,2.4-0.4,3.7c0,6.9,4,13.2,10.2,16.3v0.2c0,26.8,18.6,49.6,44.6,55.3v4.8c-3.7,0.8-7.4,2-11,3.7
	c-3.7,1.7-7.2,3.7-10.4,6.1c0,0,0,0,0,0c-3.6,2.7-6.9,5.7-9.7,9.1c-0.1,0-0.1,0.1-0.1,0.2c-8.4,10-13.3,22.8-13.3,36.3V256
	c0,1.6,1.3,3,3,3h107.3c1.6,0,3-1.3,3-3v-14.2c0-17.6-8.3-34-22-44.6c0,0-0.1-0.1-0.1-0.1c-3.5-2.7-7.3-5.1-11.5-6.9
	c-3.6-1.6-7.3-2.8-11-3.7v-4.8c26-5.6,44.6-28.5,44.6-55.3v-0.2c6.2-3.1,10.2-9.4,10.2-16.3c0-3.4-1-6.8-2.8-9.6
	c11.7-6,21.2-15.1,27.6-26.6l0.1-0.3c0.5-0.9,0.5-1.9,0.1-2.8c-0.4-0.9-1.3-1.5-2.3-1.6c-0.5-0.1-11.4-1.5-14.8-10.5
	c8.2,0.6,20.3-1.9,26-13.8c0.4-0.9,0.4-2.1-0.2-2.9C217.2,40.9,216.2,40.5,215.2,40.5z M100.2,206C100.2,206,100.3,206.1,100.2,206
	c0.9,0.8,1.8,1.5,2.7,2.1c0.1,0.1,0.2,0.1,0.3,0.2c0.9,0.6,1.9,1.1,2.8,1.6c0.2,0.1,0.3,0.2,0.5,0.2c1,0.5,2,0.8,3,1.2
	c0.2,0.1,0.4,0.1,0.5,0.2c1.1,0.3,2.1,0.6,3.2,0.7c0.1,0,0.3,0,0.4,0.1c1.2,0.2,2.3,0.3,3.5,0.3c1.2,0,2.4-0.1,3.5-0.3
	c0.1,0,0.3,0,0.4-0.1c1.1-0.2,2.2-0.4,3.2-0.7c0.2-0.1,0.4-0.1,0.5-0.2c1-0.3,2-0.7,3-1.2c0.2-0.1,0.3-0.2,0.5-0.2
	c1-0.5,1.9-1,2.8-1.6c0.1-0.1,0.2-0.2,0.3-0.2c0.9-0.6,1.8-1.3,2.6-2c0,0,0.1,0,0.1-0.1c0.8-0.8,1.6-1.6,2.3-2.4
	c0.1-0.1,0.2-0.2,0.3-0.3c0.7-0.8,1.3-1.7,1.9-2.6c0.1-0.2,0.2-0.3,0.3-0.5c0.6-0.9,1.1-1.9,1.5-2.9c0-0.1,0.1-0.1,0.1-0.2
	c2,1,3.8,2.2,5.6,3.4c-2.3,5.3-10.2,19.6-29.1,19.6c-18.9,0-26.1-14.9-28.1-20.3c1.5-1,3-1.9,4.6-2.8c0,0.1,0.1,0.1,0.1,0.2
	c0.4,1,0.9,2,1.5,2.9c0.1,0.2,0.2,0.3,0.3,0.5c0.6,0.9,1.2,1.8,1.9,2.7c0.1,0.1,0.2,0.2,0.3,0.3C98.6,204.4,99.4,205.3,100.2,206z
	 M84.3,203.5c3.3,7.5,12.4,22.5,33,22.5c20.5,0,30.3-14.6,33.8-21.7c1.4,1.3,2.7,2.6,4,4v44.9H79.1v-44.5
	C80.7,206.8,82.5,205.1,84.3,203.5z M66.6,241.8c0-8.9,2.4-17.4,6.7-24.9v36.2h-6.7V241.8z M168,253.1h-7v-36.9
	c4.5,7.6,7,16.4,7,25.6V253.1z M169.9,121.5c-1.2,0.4-1.9,1.5-1.9,2.8v2.2c0,24.7-17.7,45.7-42.2,49.9c-1.4,0.2-2.5,1.5-2.5,2.9v9.7
	c0,1.4,1,2.7,2.5,2.9c3.2,0.6,6.4,1.4,9.5,2.7c0,0.1-0.1,0.2-0.1,0.3c-0.2,0.4-0.4,0.8-0.6,1.2c-0.3,0.5-0.6,1.1-0.9,1.6
	c-0.2,0.4-0.5,0.7-0.8,1.1c-0.3,0.5-0.7,0.9-1.1,1.4c-0.3,0.3-0.6,0.6-0.9,1c-0.4,0.4-0.8,0.8-1.3,1.2c-0.3,0.3-0.7,0.5-1,0.8
	c-0.5,0.3-1,0.7-1.5,1c-0.4,0.2-0.7,0.4-1.1,0.6c-0.5,0.3-1.1,0.5-1.7,0.7c-0.4,0.1-0.7,0.3-1.1,0.4c-0.6,0.2-1.3,0.4-2,0.5
	c-0.3,0.1-0.7,0.2-1,0.2c-1,0.2-2.1,0.3-3.1,0.3c-1.1,0-2.1-0.1-3.1-0.3c-0.3-0.1-0.7-0.2-1-0.2c-0.7-0.1-1.3-0.3-2-0.5
	c-0.4-0.1-0.7-0.3-1.1-0.4c-0.6-0.2-1.1-0.5-1.7-0.7c-0.4-0.2-0.7-0.4-1.1-0.6c-0.5-0.3-1-0.6-1.5-1c-0.3-0.3-0.7-0.5-1-0.8
	c-0.4-0.4-0.9-0.8-1.3-1.2c-0.3-0.3-0.6-0.6-0.9-0.9c-0.4-0.4-0.7-0.9-1.1-1.4c-0.3-0.3-0.5-0.7-0.7-1c-0.3-0.5-0.6-1.1-0.9-1.6
	c-0.2-0.4-0.4-0.7-0.6-1.1c-0.1-0.1-0.1-0.2-0.1-0.4c3.1-1.2,6.3-2.1,9.5-2.7c1.4-0.2,2.5-1.5,2.5-2.9v-9.7c0-1.4-1-2.7-2.5-2.9
	c-24.4-4.2-42.2-25.2-42.2-49.9v-2.2c0-1.2-0.8-2.4-1.9-2.8c-4.9-1.8-8.2-6.4-8.2-11.6c0-1.1,0.2-2.3,0.5-3.3c0,0,0,0,0,0
	c0.1-0.4,0.3-0.8,0.4-1.2c0-0.1,0.1-0.2,0.1-0.3c0.2-0.4,0.3-0.7,0.5-1.1c0.1-0.1,0.2-0.3,0.2-0.4c0.2-0.3,0.4-0.6,0.6-0.9
	c0.3-0.4,0.6-0.8,0.9-1.1c0.1-0.1,0.3-0.3,0.4-0.4c0.3-0.3,0.6-0.5,0.9-0.8c0.1-0.1,0.3-0.2,0.4-0.3c0.4-0.3,0.7-0.5,1.1-0.7
	c0.1-0.1,0.2-0.1,0.3-0.2c0.5-0.3,1.1-0.5,1.7-0.7c0.2-0.1,0.4-0.2,0.7-0.3c0.1-0.1,0.8-0.6,1.9-1.4c4.6-3.4,14-11.5,19-21.6
	c0.6,1.1,1.4,2.3,2.2,3.5c5.6,8.6,15.8,20.8,31.2,27.6c1.2,0.5,2.4,1,3.6,1.5c1.4,0.5,2.9,1,4.3,1.4c0.3,0.1,0.6,0.2,1,0.3
	c1.4,0.4,2.9,0.7,4.3,1c0.2,0,0.5,0.1,0.7,0.1c1.3,0.2,2.6,0.4,4,0.5c0.3,0,0.6,0.1,0.8,0.1c1.5,0.1,3,0.2,4.5,0.2
	c0.1,0,0.2,0,0.4,0c0.2,0,0.5,0,0.7,0c0.9,0,1.8,0,2.8-0.1c0.4,0,0.8,0,1.2-0.1c1.1-0.1,2.3-0.2,3.5-0.3c0.1,0,0.3,0,0.4,0
	c1.3-0.2,2.7-0.4,4.1-0.7c0.2,0,0.5-0.1,0.7-0.1c1.1-0.2,2.2-0.5,3.4-0.8c0.3-0.1,0.7-0.2,1-0.3c1.1-0.3,2.3-0.6,3.4-1
	c0.2-0.1,0.5-0.1,0.7-0.2c2.8-0.9,5.6-2,8.4-3.2c0.4-0.2,0.7-0.3,1.1-0.5c0.6-0.3,1.1-0.5,1.7-0.8c1.4,2,2.1,4.4,2.1,6.9
	C178.2,115.1,174.9,119.7,169.9,121.5z M188.8,52.1c-0.9-0.2-1.9,0-2.6,0.7c-0.7,0.6-1.1,1.6-1,2.5c1.2,11.1,9.9,16.6,16.6,18.6
	c-6.1,9.5-14.7,17.1-25,22c-0.1,0.1-0.3,0.1-0.4,0.2c-0.5,0.4-0.9,0.6-0.9,0.6c-18.3,9-35.3,10.8-50.4,5.3
	C100.3,93,88.5,66.9,88.4,66.6c-0.1-0.3-0.3-0.5-0.5-0.8c-0.1-0.1-0.1-0.1-0.2-0.1c-0.2-0.2-0.3-0.3-0.5-0.4c-0.1,0-0.1-0.1-0.2-0.1
	c-0.2-0.1-0.4-0.2-0.6-0.3c-0.1,0-0.2,0-0.2,0c-0.2,0-0.3-0.1-0.5-0.1c-0.1,0-0.2,0-0.2,0c-0.3,0-0.6,0.1-0.9,0.2
	c-0.8,0.4-1.5,1.1-1.7,2c-3.3,12.9-17.5,23.7-20.4,25.7c-0.1,0.1-0.2,0.1-0.2,0.2c-0.8,0.3-1.6,0.7-2.4,1.1
	c-0.3,0.2-0.6,0.4-0.9,0.6c-0.4,0.3-0.9,0.6-1.3,0.9c-0.3,0.3-0.7,0.6-1,0.8c-0.3,0.3-0.6,0.5-0.9,0.8c-0.3,0.3-0.6,0.7-1,1.1
	c-0.1,0.2-0.3,0.3-0.4,0.5c-0.4-1.6-0.8-3.5-1.2-5.8c-1-6.7-0.7-13.6,0.7-20.3c0-0.1,0-0.1,0-0.2L54,72c0.3-1.2,0.6-2.5,1-3.8
	L60.1,48c3.4-13.5,16.8-22.1,30.5-19.5c0.9,0.2,1.9-0.1,2.6-0.8c30.4-28.7,67.3-11.4,77.2-1.9c16.2,15.5,31.8,19.3,39.7,20.3
	C202.7,55,189.4,52.2,188.8,52.1z"/>
</svg>
