<?xml version="1.0" encoding="utf-8"?>
<!-- Generator: Adobe Illustrator 22.1.0, SVG Export Plug-In . SVG Version: 6.00 Build 0)  -->
<svg version="1.1" id="Layer_1" xmlns="http://www.w3.org/2000/svg" xmlns:xlink="http://www.w3.org/1999/xlink" x="0px" y="0px"
	 viewBox="0 0 185 215" style="enable-background:new 0 0 185 215;" xml:space="preserve">
<style type="text/css">
	.st0{fill:#AED477;}
</style>
<path class="st0" d="M170.8,31.5c-0.2,0-16.5,0.7-33.6-15.7C125.3,4.5,92.9-6.7,67.3,16.6C53.8,14.7,41,23.2,37.6,36.5l-4.2,16.7
	c-0.3,1.1-0.6,2.2-0.8,3.3l-0.1,0.5c0,0.1-0.1,0.2-0.1,0.3c-1.2,6-1.4,12.3-0.6,18.3c0.8,5.6,2.2,8.9,3,10.4c-0.2,1-0.3,2-0.3,3.1
	c0,5.7,3.3,10.9,8.4,13.5v0.2c0,22.2,15.4,41.1,36.9,45.8v4c-3.1,0.7-6.1,1.7-9.1,3.1c-3.1,1.4-6,3.1-8.6,5.1l0,0
	c-3,2.2-5.7,4.7-8,7.5c-0.1,0-0.1,0.1-0.1,0.2c-7,8.3-11,18.9-11,30.1V210c0,1.3,1.1,2.5,2.5,2.5h88.9c1.3,0,2.5-1.1,2.5-2.5v-11.8
	c0-14.6-6.9-28.2-18.2-36.9l-0.1-0.1c-2.9-2.2-6-4.2-9.5-5.7c-3-1.3-6-2.3-9.1-3.1v-4c21.5-4.6,36.9-23.6,36.9-45.8v-0.2
	c5.1-2.6,8.4-7.8,8.4-13.5c0-2.8-0.8-5.6-2.3-8c9.7-5,17.6-12.5,22.9-22l0.1-0.2c0.4-0.7,0.4-1.6,0.1-2.3c-0.3-0.7-1.1-1.2-1.9-1.3
	c-0.4-0.1-9.4-1.2-12.3-8.7c6.8,0.5,16.8-1.6,21.5-11.4c0.3-0.7,0.3-1.7-0.2-2.4C172.5,31.8,171.6,31.5,170.8,31.5z M75.5,168.6
	C75.5,168.6,75.6,168.7,75.5,168.6c0.7,0.7,1.5,1.2,2.2,1.7c0.1,0.1,0.2,0.1,0.2,0.2c0.7,0.5,1.6,0.9,2.3,1.3
	c0.2,0.1,0.2,0.2,0.4,0.2c0.8,0.4,1.7,0.7,2.5,1c0.2,0.1,0.3,0.1,0.4,0.2c0.9,0.2,1.7,0.5,2.7,0.6c0.1,0,0.2,0,0.3,0.1
	c1,0.2,1.9,0.2,2.9,0.2s2-0.1,2.9-0.2c0.1,0,0.2,0,0.3-0.1c0.9-0.2,1.8-0.3,2.7-0.6c0.2-0.1,0.3-0.1,0.4-0.2c0.8-0.2,1.7-0.6,2.5-1
	c0.2-0.1,0.2-0.2,0.4-0.2c0.8-0.4,1.6-0.8,2.3-1.3c0.1-0.1,0.2-0.2,0.2-0.2c0.7-0.5,1.5-1.1,2.2-1.7c0,0,0.1,0,0.1-0.1
	c0.7-0.7,1.3-1.3,1.9-2c0.1-0.1,0.2-0.2,0.2-0.2c0.6-0.7,1.1-1.4,1.6-2.2c0.1-0.2,0.2-0.2,0.2-0.4c0.5-0.7,0.9-1.6,1.2-2.4
	c0-0.1,0.1-0.1,0.1-0.2c1.7,0.8,3.1,1.8,4.6,2.8c-1.9,4.4-8.4,16.2-24.1,16.2s-21.6-12.3-23.3-16.8c1.2-0.8,2.5-1.6,3.8-2.3
	c0,0.1,0.1,0.1,0.1,0.2c0.3,0.8,0.7,1.7,1.2,2.4c0.1,0.2,0.2,0.2,0.2,0.4c0.5,0.7,1,1.5,1.6,2.2c0.1,0.1,0.2,0.2,0.2,0.2
	C74.2,167.3,74.9,168,75.5,168.6z M62.4,166.5c2.7,6.2,10.3,18.6,27.3,18.6c17,0,25.1-12.1,28-18c1.2,1.1,2.2,2.2,3.3,3.3v37.2h-63
	v-36.9C59.4,169.3,60.9,167.9,62.4,166.5z M47.7,198.3c0-7.4,2-14.4,5.6-20.6v30h-5.6V198.3z M131.7,207.6h-5.8v-30.6
	c3.7,6.3,5.8,13.6,5.8,21.2V207.6z M133.3,98.6c-1,0.3-1.6,1.2-1.6,2.3v1.8c0,20.5-14.7,37.9-35,41.3c-1.2,0.2-2.1,1.2-2.1,2.4v8
	c0,1.2,0.8,2.2,2.1,2.4c2.7,0.5,5.3,1.2,7.9,2.2c0,0.1-0.1,0.2-0.1,0.2c-0.2,0.3-0.3,0.7-0.5,1c-0.2,0.4-0.5,0.9-0.7,1.3
	c-0.2,0.3-0.4,0.6-0.7,0.9c-0.2,0.4-0.6,0.7-0.9,1.2c-0.2,0.2-0.5,0.5-0.7,0.8c-0.3,0.3-0.7,0.7-1.1,1c-0.2,0.2-0.6,0.4-0.8,0.7
	c-0.4,0.2-0.8,0.6-1.2,0.8c-0.3,0.2-0.6,0.3-0.9,0.5c-0.4,0.2-0.9,0.4-1.4,0.6c-0.3,0.1-0.6,0.2-0.9,0.3c-0.5,0.2-1.1,0.3-1.7,0.4
	c-0.2,0.1-0.6,0.2-0.8,0.2c-0.8,0.2-1.7,0.2-2.6,0.2c-0.9,0-1.7-0.1-2.6-0.2c-0.2-0.1-0.6-0.2-0.8-0.2c-0.6-0.1-1.1-0.2-1.7-0.4
	c-0.3-0.1-0.6-0.2-0.9-0.3c-0.5-0.2-0.9-0.4-1.4-0.6c-0.3-0.2-0.6-0.3-0.9-0.5c-0.4-0.2-0.8-0.5-1.2-0.8c-0.2-0.2-0.6-0.4-0.8-0.7
	c-0.3-0.3-0.7-0.7-1.1-1c-0.2-0.2-0.5-0.5-0.7-0.7c-0.3-0.3-0.6-0.7-0.9-1.2c-0.2-0.2-0.4-0.6-0.6-0.8c-0.2-0.4-0.5-0.9-0.7-1.3
	c-0.2-0.3-0.3-0.6-0.5-0.9c-0.1-0.1-0.1-0.2-0.1-0.3c2.6-1,5.2-1.7,7.9-2.2c1.2-0.2,2.1-1.2,2.1-2.4v-8c0-1.2-0.8-2.2-2.1-2.4
	c-20.2-3.5-35-20.9-35-41.3v-1.8c0-1-0.7-2-1.6-2.3c-4.1-1.5-6.8-5.3-6.8-9.6c0-0.9,0.2-1.9,0.4-2.7l0,0c0.1-0.3,0.2-0.7,0.3-1
	c0-0.1,0.1-0.2,0.1-0.2c0.2-0.3,0.2-0.6,0.4-0.9c0.1-0.1,0.2-0.2,0.2-0.3c0.2-0.2,0.3-0.5,0.5-0.7c0.2-0.3,0.5-0.7,0.7-0.9
	c0.1-0.1,0.2-0.2,0.3-0.3c0.2-0.2,0.5-0.4,0.7-0.7c0.1-0.1,0.2-0.2,0.3-0.2c0.3-0.2,0.6-0.4,0.9-0.6c0.1-0.1,0.2-0.1,0.2-0.2
	c0.4-0.2,0.9-0.4,1.4-0.6c0.2-0.1,0.3-0.2,0.6-0.2c0.1-0.1,0.7-0.5,1.6-1.2c3.8-2.8,11.6-9.5,15.7-17.9c0.5,0.9,1.2,1.9,1.8,2.9
	c4.6,7.1,13.1,17.2,25.8,22.9c1,0.4,2,0.8,3,1.2c1.2,0.4,2.4,0.8,3.6,1.2c0.2,0.1,0.5,0.2,0.8,0.2c1.2,0.3,2.4,0.6,3.6,0.8
	c0.2,0,0.4,0.1,0.6,0.1c1.1,0.2,2.2,0.3,3.3,0.4c0.2,0,0.5,0.1,0.7,0.1c1.2,0.1,2.5,0.2,3.7,0.2c0.1,0,0.2,0,0.3,0
	c0.2,0,0.4,0,0.6,0c0.7,0,1.5,0,2.3-0.1c0.3,0,0.7,0,1-0.1c0.9-0.1,1.9-0.2,2.9-0.2c0.1,0,0.2,0,0.3,0c1.1-0.2,2.2-0.3,3.4-0.6
	c0.2,0,0.4-0.1,0.6-0.1c0.9-0.2,1.8-0.4,2.8-0.7c0.2-0.1,0.6-0.2,0.8-0.2c0.9-0.2,1.9-0.5,2.8-0.8c0.2-0.1,0.4-0.1,0.6-0.2
	c2.3-0.7,4.6-1.7,7-2.7c0.3-0.2,0.6-0.2,0.9-0.4c0.5-0.2,0.9-0.4,1.4-0.7c1.2,1.7,1.7,3.6,1.7,5.7C140.1,93.3,137.4,97.1,133.3,98.6
	z M148.9,41.1c-0.7-0.2-1.6,0-2.2,0.6c-0.6,0.5-0.9,1.3-0.8,2.1c1,9.2,8.2,13.8,13.8,15.4c-5.1,7.9-12.2,14.2-20.7,18.2
	c-0.1,0.1-0.2,0.1-0.3,0.2c-0.4,0.3-0.7,0.5-0.7,0.5c-15.2,7.5-29.2,8.9-41.8,4.4C75.6,75,65.8,53.4,65.8,53.1
	c-0.1-0.2-0.2-0.4-0.4-0.7c-0.1-0.1-0.1-0.1-0.2-0.1c-0.2-0.2-0.2-0.2-0.4-0.3c-0.1,0-0.1-0.1-0.2-0.1c-0.2-0.1-0.3-0.2-0.5-0.2
	c-0.1,0-0.2,0-0.2,0c-0.2,0-0.2-0.1-0.4-0.1c-0.1,0-0.2,0-0.2,0c-0.2,0-0.5,0.1-0.7,0.2c-0.7,0.3-1.2,0.9-1.4,1.7
	c-2.7,10.7-14.5,19.6-16.9,21.3c-0.1,0.1-0.2,0.1-0.2,0.2c-0.7,0.2-1.3,0.6-2,0.9c-0.2,0.2-0.5,0.3-0.7,0.5
	c-0.3,0.2-0.7,0.5-1.1,0.7c-0.2,0.2-0.6,0.5-0.8,0.7c-0.2,0.2-0.5,0.4-0.7,0.7c-0.2,0.2-0.5,0.6-0.8,0.9c-0.1,0.2-0.2,0.2-0.3,0.4
	c-0.3-1.3-0.7-2.9-1-4.8c-0.8-5.6-0.6-11.3,0.6-16.8c0-0.1,0-0.1,0-0.2l0.1-0.3c0.2-1,0.5-2.1,0.8-3.1l4.2-16.7
	c2.8-11.2,13.9-18.3,25.3-16.2c0.7,0.2,1.6-0.1,2.2-0.7c25.2-23.8,55.8-9.4,64-1.6c13.4,12.8,26.3,16,32.9,16.8
	C160.4,43.5,149.4,41.2,148.9,41.1z"/>
</svg>
