<?xml version="1.0" encoding="utf-8"?>
<!-- Generator: Adobe Illustrator 22.1.0, SVG Export Plug-In . SVG Version: 6.00 Build 0)  -->
<svg version="1.1" id="Layer_1" xmlns="http://www.w3.org/2000/svg" xmlns:xlink="http://www.w3.org/1999/xlink" x="0px" y="0px"
	 viewBox="0 0 265 265" style="enable-background:new 0 0 265 265;" xml:space="preserve">
<style type="text/css">
	.st0{fill:#AED477;}
</style>
<path d="M193.5,693h16.2v0.2c-1.3,0.3-2.5,0.7-3.7,1.2c-6.9,3.1-11.4,10-11.4,17.5v4.8c0,0.6,0.4,1,1,1h36.4c0.6,0,1-0.4,1-1v-4.8
	c0-7.5-4.5-14.4-11.4-17.5c-1.2-0.5-2.5-1-3.7-1.2V693H234c3,0,5.5-2.5,5.5-5.5v-25.8c0-14-11.4-25.6-25.4-25.7
	c-6.8-0.1-13.2,2.5-18.1,7.4c-5.1,5-8,11.9-8,18.9v25.3C188,690.6,190.5,693,193.5,693z M230.9,711.9v3.8h-34.4v-3.8
	c0-6.4,3.6-12.2,9.2-15.2c0,0,0,0,0,0.1c0.1,0.3,0.3,0.7,0.5,1c0,0.1,0.1,0.1,0.1,0.2c0.2,0.3,0.4,0.6,0.6,0.9c0,0,0.1,0.1,0.1,0.1
	c0.2,0.3,0.5,0.6,0.8,0.8c0,0,0,0,0,0c0.3,0.3,0.6,0.5,0.9,0.7c0,0,0.1,0,0.1,0.1c0.3,0.2,0.6,0.4,1,0.5c0.1,0,0.1,0.1,0.2,0.1
	c0.3,0.2,0.7,0.3,1,0.4c0.1,0,0.1,0,0.2,0.1c0.4,0.1,0.7,0.2,1.1,0.2c0,0,0.1,0,0.1,0c0.4,0.1,0.8,0.1,1.2,0.1c0.4,0,0.8,0,1.2-0.1
	c0,0,0.1,0,0.1,0c0.4-0.1,0.7-0.1,1.1-0.2c0.1,0,0.1,0,0.2-0.1c0.3-0.1,0.7-0.2,1-0.4c0.1,0,0.1-0.1,0.2-0.1c0.3-0.2,0.7-0.3,1-0.5
	c0,0,0.1,0,0.1-0.1c0.3-0.2,0.6-0.4,0.9-0.7c0,0,0,0,0,0c0.3-0.3,0.5-0.5,0.8-0.8c0,0,0.1-0.1,0.1-0.1c0.2-0.3,0.4-0.6,0.6-0.9
	c0-0.1,0.1-0.1,0.1-0.2c0.2-0.3,0.4-0.6,0.5-1c0,0,0,0,0-0.1C227.3,699.7,230.9,705.5,230.9,711.9z M219.9,695.9c0,0,0,0.1,0,0.1
	c-0.1,0.1-0.1,0.3-0.2,0.4c-0.1,0.2-0.2,0.4-0.3,0.5c-0.1,0.1-0.2,0.2-0.3,0.4c-0.1,0.2-0.2,0.3-0.4,0.5c-0.1,0.1-0.2,0.2-0.3,0.3
	c-0.1,0.1-0.3,0.3-0.4,0.4c-0.1,0.1-0.2,0.2-0.3,0.3c-0.2,0.1-0.3,0.2-0.5,0.3c-0.1,0.1-0.2,0.1-0.4,0.2c-0.2,0.1-0.4,0.2-0.6,0.3
	c-0.1,0-0.2,0.1-0.4,0.1c-0.2,0.1-0.4,0.1-0.7,0.2c-0.1,0-0.2,0.1-0.3,0.1c-0.3,0.1-0.7,0.1-1.1,0.1c-0.4,0-0.7,0-1.1-0.1
	c-0.1,0-0.2-0.1-0.3-0.1c-0.2,0-0.5-0.1-0.7-0.2c-0.1,0-0.3-0.1-0.4-0.1c-0.2-0.1-0.4-0.2-0.6-0.2c-0.1-0.1-0.2-0.1-0.4-0.2
	c-0.2-0.1-0.3-0.2-0.5-0.3c-0.1-0.1-0.2-0.2-0.3-0.3c-0.2-0.1-0.3-0.3-0.4-0.4c-0.1-0.1-0.2-0.2-0.3-0.3c-0.1-0.1-0.3-0.3-0.4-0.5
	c-0.1-0.1-0.2-0.2-0.2-0.4c-0.1-0.2-0.2-0.4-0.3-0.5c-0.1-0.1-0.1-0.2-0.2-0.4c0,0,0-0.1,0-0.1c1.1-0.4,2.1-0.7,3.2-0.9
	c0.5-0.1,0.8-0.5,0.8-1v-2v-1.3c0-0.5-0.4-0.9-0.8-1c-8.3-1.4-14.3-8.5-14.3-16.9v-11.4c1-2.1,4.2-7.7,10.6-9.8
	c0.4-0.1,0.9-0.3,1.3-0.4c0.9,3.6,4.7,15.7,15.7,15.7c2.6,0,4.9-0.6,6.8-1.7v7.6c0,8.4-6,15.5-14.3,16.9c-0.5,0.1-0.8,0.5-0.8,1v1.3
	v2c0,0.5,0.4,0.9,0.8,1C217.7,695.2,218.8,695.5,219.9,695.9z M190,662.3c0-6.5,2.7-12.9,7.4-17.5c4.6-4.5,10.5-6.9,16.7-6.8
	c12.9,0.2,23.4,10.8,23.4,23.7v25.8c0,1.9-1.6,3.5-3.5,3.5h-14.3c0.3-0.1,0.6-0.2,0.8-0.3c0.2-0.1,0.3-0.1,0.5-0.2
	c0.4-0.2,0.8-0.3,1.2-0.5c0.1,0,0.2-0.1,0.3-0.1c0.5-0.2,0.9-0.5,1.4-0.8c0.1-0.1,0.2-0.2,0.4-0.2c0.3-0.2,0.6-0.4,0.9-0.6
	c0.2-0.1,0.3-0.2,0.5-0.4c0.3-0.2,0.5-0.4,0.7-0.6c0.2-0.1,0.3-0.3,0.5-0.4c0.2-0.2,0.4-0.4,0.6-0.6c0.2-0.2,0.3-0.3,0.5-0.5
	c0.2-0.2,0.4-0.4,0.6-0.7c0.1-0.2,0.3-0.4,0.4-0.5c0.2-0.2,0.3-0.5,0.5-0.7c0.1-0.2,0.3-0.4,0.4-0.6c0.2-0.2,0.3-0.5,0.5-0.7
	c0.1-0.2,0.2-0.4,0.3-0.6c0.1-0.3,0.3-0.5,0.4-0.8c0.1-0.2,0.2-0.4,0.3-0.6c0.1-0.3,0.2-0.5,0.3-0.8c0.1-0.2,0.2-0.4,0.2-0.6
	c0.1-0.3,0.2-0.6,0.3-0.9c0.1-0.2,0.1-0.4,0.2-0.6c0.1-0.3,0.1-0.6,0.2-0.9c0-0.2,0.1-0.4,0.1-0.6c0.1-0.3,0.1-0.7,0.1-1.1
	c0-0.2,0-0.4,0.1-0.5c0-0.5,0.1-1.1,0.1-1.6V664c0-0.2,0-0.4,0-0.6l0-0.1l0-0.1c0-0.4-0.3-0.7-0.6-0.9c-0.4-0.1-0.8-0.1-1.1,0.2
	c-1.1,1-2.5,1.7-4,2.1c-0.9,0.2-2,0.3-3,0.3c-11.1,0-13.9-14.9-13.9-15.1c-0.1-0.5-0.6-0.9-1.2-0.8c-9.1,1.6-13.3,9.4-14.4,11.7
	c-0.1,0.1-0.1,0.3-0.1,0.4v11.7c0,0.5,0,1.1,0.1,1.6c0,0.2,0,0.4,0.1,0.5c0,0.4,0.1,0.7,0.1,1.1c0,0.2,0.1,0.4,0.1,0.6
	c0.1,0.3,0.1,0.6,0.2,0.9c0.1,0.2,0.1,0.4,0.2,0.6c0.1,0.3,0.2,0.6,0.3,0.9c0.1,0.2,0.2,0.4,0.2,0.6c0.1,0.3,0.2,0.5,0.3,0.8
	c0.1,0.2,0.2,0.4,0.3,0.6c0.1,0.3,0.3,0.5,0.4,0.8c0.1,0.2,0.2,0.4,0.3,0.6c0.1,0.2,0.3,0.5,0.5,0.7c0.1,0.2,0.3,0.4,0.4,0.6
	c0.2,0.2,0.3,0.5,0.5,0.7c0.1,0.2,0.3,0.4,0.4,0.5c0.2,0.2,0.4,0.4,0.6,0.7c0.1,0.2,0.3,0.3,0.5,0.5c0.2,0.2,0.4,0.4,0.6,0.6
	c0.2,0.1,0.3,0.3,0.5,0.4c0.2,0.2,0.5,0.4,0.7,0.6c0.2,0.1,0.3,0.2,0.5,0.4c0.3,0.2,0.6,0.4,0.9,0.6c0.1,0.1,0.2,0.2,0.4,0.2
	c0.4,0.3,0.9,0.5,1.4,0.8c0.1,0,0.2,0.1,0.3,0.1c0.4,0.2,0.8,0.4,1.2,0.5c0.2,0.1,0.3,0.1,0.5,0.2c0.3,0.1,0.6,0.2,0.8,0.3h-14.3
	c-1.9,0-3.5-1.6-3.5-3.5V662.3z"/>
<path d="M193.5,693h16.2v0.2c-1.3,0.3-2.5,0.7-3.7,1.2c-6.9,3.1-11.4,10-11.4,17.5v4.8c0,0.6,0.4,1,1,1h36.4c0.6,0,1-0.4,1-1v-4.8
	c0-7.5-4.5-14.4-11.4-17.5c-1.2-0.5-2.5-1-3.7-1.2V693H234c3,0,5.5-2.5,5.5-5.5v-25.8c0-14-11.4-25.6-25.4-25.7
	c-6.8-0.1-13.2,2.5-18.1,7.4c-5.1,5-8,11.9-8,18.9v25.3C188,690.6,190.5,693,193.5,693z M230.9,711.9v3.8h-34.4v-3.8
	c0-6.4,3.6-12.2,9.2-15.2c0,0,0,0,0,0.1c0.1,0.3,0.3,0.7,0.5,1c0,0.1,0.1,0.1,0.1,0.2c0.2,0.3,0.4,0.6,0.6,0.9c0,0,0.1,0.1,0.1,0.1
	c0.2,0.3,0.5,0.6,0.8,0.8c0,0,0,0,0,0c0.3,0.3,0.6,0.5,0.9,0.7c0,0,0.1,0,0.1,0.1c0.3,0.2,0.6,0.4,1,0.5c0.1,0,0.1,0.1,0.2,0.1
	c0.3,0.2,0.7,0.3,1,0.4c0.1,0,0.1,0,0.2,0.1c0.4,0.1,0.7,0.2,1.1,0.2c0,0,0.1,0,0.1,0c0.4,0.1,0.8,0.1,1.2,0.1c0.4,0,0.8,0,1.2-0.1
	c0,0,0.1,0,0.1,0c0.4-0.1,0.7-0.1,1.1-0.2c0.1,0,0.1,0,0.2-0.1c0.3-0.1,0.7-0.2,1-0.4c0.1,0,0.1-0.1,0.2-0.1c0.3-0.2,0.7-0.3,1-0.5
	c0,0,0.1,0,0.1-0.1c0.3-0.2,0.6-0.4,0.9-0.7c0,0,0,0,0,0c0.3-0.3,0.5-0.5,0.8-0.8c0,0,0.1-0.1,0.1-0.1c0.2-0.3,0.4-0.6,0.6-0.9
	c0-0.1,0.1-0.1,0.1-0.2c0.2-0.3,0.4-0.6,0.5-1c0,0,0,0,0-0.1C227.3,699.7,230.9,705.5,230.9,711.9z M219.9,695.9c0,0,0,0.1,0,0.1
	c-0.1,0.1-0.1,0.3-0.2,0.4c-0.1,0.2-0.2,0.4-0.3,0.5c-0.1,0.1-0.2,0.2-0.3,0.4c-0.1,0.2-0.2,0.3-0.4,0.5c-0.1,0.1-0.2,0.2-0.3,0.3
	c-0.1,0.1-0.3,0.3-0.4,0.4c-0.1,0.1-0.2,0.2-0.3,0.3c-0.2,0.1-0.3,0.2-0.5,0.3c-0.1,0.1-0.2,0.1-0.4,0.2c-0.2,0.1-0.4,0.2-0.6,0.3
	c-0.1,0-0.2,0.1-0.4,0.1c-0.2,0.1-0.4,0.1-0.7,0.2c-0.1,0-0.2,0.1-0.3,0.1c-0.3,0.1-0.7,0.1-1.1,0.1c-0.4,0-0.7,0-1.1-0.1
	c-0.1,0-0.2-0.1-0.3-0.1c-0.2,0-0.5-0.1-0.7-0.2c-0.1,0-0.3-0.1-0.4-0.1c-0.2-0.1-0.4-0.2-0.6-0.2c-0.1-0.1-0.2-0.1-0.4-0.2
	c-0.2-0.1-0.3-0.2-0.5-0.3c-0.1-0.1-0.2-0.2-0.3-0.3c-0.2-0.1-0.3-0.3-0.4-0.4c-0.1-0.1-0.2-0.2-0.3-0.3c-0.1-0.1-0.3-0.3-0.4-0.5
	c-0.1-0.1-0.2-0.2-0.2-0.4c-0.1-0.2-0.2-0.4-0.3-0.5c-0.1-0.1-0.1-0.2-0.2-0.4c0,0,0-0.1,0-0.1c1.1-0.4,2.1-0.7,3.2-0.9
	c0.5-0.1,0.8-0.5,0.8-1v-2v-1.3c0-0.5-0.4-0.9-0.8-1c-8.3-1.4-14.3-8.5-14.3-16.9v-11.4c1-2.1,4.2-7.7,10.6-9.8
	c0.4-0.1,0.9-0.3,1.3-0.4c0.9,3.6,4.7,15.7,15.7,15.7c2.6,0,4.9-0.6,6.8-1.7v7.6c0,8.4-6,15.5-14.3,16.9c-0.5,0.1-0.8,0.5-0.8,1v1.3
	v2c0,0.5,0.4,0.9,0.8,1C217.7,695.2,218.8,695.5,219.9,695.9z M190,662.3c0-6.5,2.7-12.9,7.4-17.5c4.6-4.5,10.5-6.9,16.7-6.8
	c12.9,0.2,23.4,10.8,23.4,23.7v25.8c0,1.9-1.6,3.5-3.5,3.5h-14.3c0.3-0.1,0.6-0.2,0.8-0.3c0.2-0.1,0.3-0.1,0.5-0.2
	c0.4-0.2,0.8-0.3,1.2-0.5c0.1,0,0.2-0.1,0.3-0.1c0.5-0.2,0.9-0.5,1.4-0.8c0.1-0.1,0.2-0.2,0.4-0.2c0.3-0.2,0.6-0.4,0.9-0.6
	c0.2-0.1,0.3-0.2,0.5-0.4c0.3-0.2,0.5-0.4,0.7-0.6c0.2-0.1,0.3-0.3,0.5-0.4c0.2-0.2,0.4-0.4,0.6-0.6c0.2-0.2,0.3-0.3,0.5-0.5
	c0.2-0.2,0.4-0.4,0.6-0.7c0.1-0.2,0.3-0.4,0.4-0.5c0.2-0.2,0.3-0.5,0.5-0.7c0.1-0.2,0.3-0.4,0.4-0.6c0.2-0.2,0.3-0.5,0.5-0.7
	c0.1-0.2,0.2-0.4,0.3-0.6c0.1-0.3,0.3-0.5,0.4-0.8c0.1-0.2,0.2-0.4,0.3-0.6c0.1-0.3,0.2-0.5,0.3-0.8c0.1-0.2,0.2-0.4,0.2-0.6
	c0.1-0.3,0.2-0.6,0.3-0.9c0.1-0.2,0.1-0.4,0.2-0.6c0.1-0.3,0.1-0.6,0.2-0.9c0-0.2,0.1-0.4,0.1-0.6c0.1-0.3,0.1-0.7,0.1-1.1
	c0-0.2,0-0.4,0.1-0.5c0-0.5,0.1-1.1,0.1-1.6V664c0-0.2,0-0.4,0-0.6l0-0.1l0-0.1c0-0.4-0.3-0.7-0.6-0.9c-0.4-0.1-0.8-0.1-1.1,0.2
	c-1.1,1-2.5,1.7-4,2.1c-0.9,0.2-2,0.3-3,0.3c-11.1,0-13.9-14.9-13.9-15.1c-0.1-0.5-0.6-0.9-1.2-0.8c-9.1,1.6-13.3,9.4-14.4,11.7
	c-0.1,0.1-0.1,0.3-0.1,0.4v11.7c0,0.5,0,1.1,0.1,1.6c0,0.2,0,0.4,0.1,0.5c0,0.4,0.1,0.7,0.1,1.1c0,0.2,0.1,0.4,0.1,0.6
	c0.1,0.3,0.1,0.6,0.2,0.9c0.1,0.2,0.1,0.4,0.2,0.6c0.1,0.3,0.2,0.6,0.3,0.9c0.1,0.2,0.2,0.4,0.2,0.6c0.1,0.3,0.2,0.5,0.3,0.8
	c0.1,0.2,0.2,0.4,0.3,0.6c0.1,0.3,0.3,0.5,0.4,0.8c0.1,0.2,0.2,0.4,0.3,0.6c0.1,0.2,0.3,0.5,0.5,0.7c0.1,0.2,0.3,0.4,0.4,0.6
	c0.2,0.2,0.3,0.5,0.5,0.7c0.1,0.2,0.3,0.4,0.4,0.5c0.2,0.2,0.4,0.4,0.6,0.7c0.1,0.2,0.3,0.3,0.5,0.5c0.2,0.2,0.4,0.4,0.6,0.6
	c0.2,0.1,0.3,0.3,0.5,0.4c0.2,0.2,0.5,0.4,0.7,0.6c0.2,0.1,0.3,0.2,0.5,0.4c0.3,0.2,0.6,0.4,0.9,0.6c0.1,0.1,0.2,0.2,0.4,0.2
	c0.4,0.3,0.9,0.5,1.4,0.8c0.1,0,0.2,0.1,0.3,0.1c0.4,0.2,0.8,0.4,1.2,0.5c0.2,0.1,0.3,0.1,0.5,0.2c0.3,0.1,0.6,0.2,0.8,0.3h-14.3
	c-1.9,0-3.5-1.6-3.5-3.5V662.3z"/>
<path class="st0" d="M192.6,258.7v-15.2c0-6-0.9-11.8-2.6-17.4c2.3,0.4,4.7,0.6,7,0.6c3.4,0,6.8-0.4,10.2-1.2
	c19.3-4.4,34-21.3,35.7-40.9c1.3-15.9-5.4-31.2-18.2-40.8c-7.1-5.4-11.3-14.3-11.3-23.8V84.6c0-44.3-36-80.8-80.3-81.4
	c-21.3-0.2-41.8,8-57.4,23.5c-16,15.8-25.2,37.6-25.2,59.8v33.8c0,9.7-4.2,18.8-11.2,24.4c-12.5,10-18.9,25.5-17,41.5
	c2.4,20.3,18.2,36.8,38.4,39.9c4.4,0.7,8.8,0.7,13.2,0.2c-1.7,5.5-2.5,11.3-2.5,17.2v15.2c0,1.7,1.4,3.2,3.2,3.2h115
	C191.2,261.9,192.6,260.4,192.6,258.7z M76.3,219.4c-4.8,1-9.7,1.2-14.7,0.4c-17.2-2.7-31.1-17.2-33.1-34.4
	c-1.6-13.8,3.9-27.2,14.7-35.8c8.5-6.8,13.6-17.8,13.6-29.4V86.4c0-20.5,8.5-40.7,23.3-55.3c14.4-14.2,33.3-22,52.9-21.6
	c40.9,0.5,74.1,34.2,74.1,75.1V120c0,11.5,5.2,22.3,13.9,28.9c0,0,0,0,0,0c11,8.3,16.8,21.4,15.7,35.2
	c-1.4,16.9-14.1,31.4-30.8,35.2c-6.1,1.4-12.3,1.3-18.4-0.2c0-0.1-0.1-0.2-0.1-0.2c-1.4-3.2-3.1-6.2-5-9c-0.3-0.5-0.6-0.9-1-1.4
	c-0.6-0.9-1.3-1.8-2-2.7c-0.4-0.5-0.8-1-1.2-1.5c-0.7-0.8-1.5-1.7-2.2-2.5c-0.4-0.4-0.8-0.8-1.2-1.2c-1.1-1.1-2.3-2.2-3.5-3.2
	c-0.5-0.4-1-0.8-1.5-1.2c-0.8-0.7-1.7-1.3-2.5-1.9c-0.5-0.4-1.1-0.8-1.6-1.1c-0.9-0.6-1.9-1.2-2.9-1.8c-0.5-0.3-1-0.6-1.5-0.9
	c-1.5-0.8-3-1.6-4.6-2.3c-3.8-1.7-7.8-3-11.8-3.9V179c0.2,0,0.4-0.1,0.7-0.2c1.3-0.3,2.7-0.6,4-1c0.9-0.3,1.8-0.6,2.7-0.9
	c0.6-0.2,1.2-0.4,1.7-0.6c1.1-0.4,2.2-0.9,3.2-1.4c0.3-0.1,0.6-0.3,0.9-0.4c1.2-0.6,2.4-1.2,3.6-1.9c0,0,0.1,0,0.1-0.1
	c18.7-10.5,30.9-30.3,30.9-52.8V84.7c0-1.7-1.4-3.2-3.2-3.2c-1.3,0-2.5-0.1-3.7-0.3c-0.1,0-0.3-0.1-0.4-0.1
	c-1.2-0.2-2.3-0.5-3.3-0.8c-0.4-0.1-0.8-0.3-1.2-0.5c-0.7-0.3-1.4-0.6-2.1-0.9c-0.4-0.2-0.8-0.4-1.2-0.6c-0.7-0.4-1.3-0.8-1.9-1.3
	c-0.3-0.2-0.6-0.4-0.9-0.6c-4.7-3.7-7.7-8.9-9.7-13.5c-0.6-1.3-1-2.5-1.3-3.5c-0.3-0.9-0.5-1.6-0.6-2c0-0.1,0-0.2-0.1-0.2
	c-0.3-1.3-1.3-2.2-2.6-2.4c-1.3-0.2-2.6,0.4-3.2,1.6c-0.1,0.1-7.8,13.2-25.4,13.2c-17.1,0-22.7-12.4-23-12.9c0-0.1-0.1-0.2-0.2-0.3
	c-0.1-0.1-0.1-0.2-0.2-0.3c-0.2-0.2-0.4-0.4-0.6-0.6c0,0,0,0,0,0c-0.5-0.4-1.1-0.6-1.8-0.6c-0.1,0-0.1,0-0.2,0c0,0-0.1,0-0.1,0
	c0,0,0,0-0.1,0c-0.1,0-0.2,0-0.2,0c-0.2,0-0.3,0-0.5,0.1c-0.1,0-0.1,0-0.2,0c-0.1,0-0.1,0.1-0.2,0.1c0,0,0,0,0,0
	c-0.1,0-0.2,0.1-0.3,0.2c-0.2,0.1-0.4,0.3-0.6,0.5c-0.1,0.1-0.2,0.2-0.2,0.2c-0.2,0.3-0.4,0.6-0.6,1c-0.5,1.4-1,2.7-1.6,3.9
	c-0.2,0.5-0.5,0.9-0.7,1.4c0,0,0,0,0,0l-0.3,0.6c-0.3,0.5-0.5,1-0.8,1.4c-0.2,0.3-0.4,0.6-0.6,1c0,0,0,0,0,0l-0.4,0.5c0,0,0,0,0,0
	l-0.4,0.6c-0.2,0.3-0.4,0.7-0.7,1c0,0,0,0,0,0c-0.1,0.1-0.2,0.2-0.3,0.3l-0.4,0.5c0,0,0,0,0,0l-0.2,0.2l0,0c-0.3,0.4-0.7,0.8-1,1.2
	c-0.2,0.2-0.3,0.3-0.5,0.5l-0.4,0.3c-0.6,0.6-1.2,1.2-1.8,1.8L92.1,73c-0.5,0.4-1.1,0.9-1.6,1.3l-0.8,0.6c0,0,0,0,0,0l-0.4,0.2
	c-0.4,0.3-0.8,0.5-1.2,0.8c-0.2,0.1-0.4,0.2-0.6,0.3l-0.4,0.2c0,0,0,0,0,0l-0.4,0.2c-0.2,0.1-0.5,0.2-0.7,0.4
	c-0.1,0.1-0.3,0.1-0.5,0.2c0,0-0.3,0.1-0.3,0.1c-0.5,0.2-0.9,0.4-1.4,0.6c-0.2,0.1-0.4,0.2-0.7,0.3l-0.4,0.1c-0.5,0.2-1,0.4-1.5,0.6
	c0,0,0,0,0,0c0,0,0,0,0,0c-0.6,0.2-1.1,0.3-1.6,0.5c0,0,0,0,0,0v0c0,0-0.4,0.1-0.4,0.1c-0.4,0.1-0.8,0.2-1.3,0.3v0
	c-0.1,0-0.3,0.1-0.3,0.1l0,0c0,0-0.1,0-0.1,0l0,0l-0.4,0.1c0,0-0.3,0.1-0.3,0.1L76,80.4c0,0-0.3,0.1-0.3,0.1L75,80.6
	c-0.2,0-0.4,0.1-0.5,0.1c-0.1,0-0.2,0-0.2,0c-1.2,0.1-2.3,0.9-2.7,2c-0.1,0.4-0.2,0.8-0.2,1.2v36c0,24.6,14.7,46.1,36.4,55.5
	c0.1,0.1,0.3,0.1,0.4,0.2c0.8,0.4,1.7,0.7,2.5,1c0.7,0.3,1.4,0.5,2.1,0.7c0.7,0.2,1.3,0.4,2,0.6c1.3,0.4,2.7,0.8,4.1,1.1
	c0.1,0,0.2,0.1,0.3,0.1v5.2c-4,0.9-7.9,2.2-11.8,3.9c-1.6,0.7-3.2,1.5-4.7,2.4c-0.3,0.2-0.6,0.4-0.9,0.6c-1.3,0.8-2.6,1.6-3.8,2.4
	c-0.2,0.1-0.4,0.3-0.6,0.4c-6.1,4.3-11.3,9.6-15.5,15.7c0,0,0,0,0,0.1c-2,3-3.7,6.1-5.2,9.3C76.5,219.1,76.4,219.3,76.3,219.4z
	 M104.8,196.6c0.3-0.2,0.6-0.3,0.9-0.5c0.4-0.2,0.8-0.4,1.1-0.6c0,0.1,0.1,0.1,0.1,0.1c0.5,1.1,1,2.1,1.6,3.1
	c0.1,0.2,0.2,0.3,0.3,0.5c0.6,1,1.3,2,2,2.9c0.1,0.1,0.2,0.2,0.3,0.3c0.8,0.9,1.6,1.8,2.5,2.6c0,0,0,0,0.1,0
	c0.9,0.8,1.9,1.5,2.9,2.2c0.1,0.1,0.2,0.2,0.3,0.2c1,0.6,2,1.2,3,1.7c0.2,0.1,0.3,0.2,0.5,0.3c1,0.5,2.1,0.9,3.2,1.3
	c0.2,0.1,0.4,0.1,0.6,0.2c1,0.3,2,0.6,3.1,0.7c-1.8,2.5-5.6,5.6-14,5.6c-11.5,0-16.4-9.6-18-13.7
	C98.2,200.9,101.4,198.6,104.8,196.6z M117.1,191.3c0.3-0.1,0.7-0.2,1-0.3c1.5-0.4,3.1-0.8,4.6-1c1.5-0.3,2.6-1.6,2.6-3.1v-10.4
	c0-1.5-1.1-2.9-2.6-3.1c-1.4-0.2-2.8-0.6-4.2-0.9c-0.5-0.1-1-0.3-1.6-0.4c-0.8-0.2-1.6-0.5-2.4-0.8c-0.7-0.2-1.3-0.5-2-0.7
	c-0.4-0.2-0.9-0.4-1.3-0.5c-14-5.8-25.3-17.4-30.5-32.1c0,0,0-0.1,0-0.1c-1-2.9-1.8-5.8-2.3-8.7l-0.1-0.9c-0.2-1.2-0.4-2.4-0.5-3.6
	c-0.1-1.6-0.2-3.2-0.2-4.8V86.6c6.3-1.2,20.9-5.6,29.1-21.8c0.2,0.2,0.4,0.4,0.6,0.6c0.4,0.4,0.7,0.8,1.1,1.2
	c0.2,0.2,0.5,0.4,0.7,0.6c0.4,0.4,0.9,0.9,1.4,1.3c0.3,0.2,0.6,0.4,0.8,0.6c0.5,0.4,1,0.8,1.6,1.2c0.3,0.2,0.7,0.4,1,0.6
	c0.6,0.4,1.2,0.8,1.8,1.1c0.4,0.2,0.9,0.4,1.4,0.7c0.6,0.3,1.2,0.6,1.9,0.9c0.6,0.2,1.3,0.4,1.9,0.6c0.6,0.2,1.2,0.4,1.9,0.6
	c0.8,0.2,1.7,0.3,2.5,0.5c0.6,0.1,1.1,0.2,1.8,0.3c1.5,0.2,3.1,0.3,4.8,0.3c1.7,0,3.3-0.1,4.9-0.3c0.5-0.1,1-0.2,1.5-0.3
	c1-0.2,2-0.3,3-0.5c0.6-0.1,1.1-0.3,1.6-0.5c0.8-0.2,1.6-0.4,2.3-0.7c0.6-0.2,1.1-0.5,1.7-0.7c0.6-0.3,1.3-0.5,1.8-0.8
	c0.7-0.3,1.3-0.7,1.9-1.1c0.4-0.2,0.9-0.5,1.2-0.7c0.7-0.4,1.3-0.9,2-1.4c0.2-0.2,0.5-0.3,0.7-0.5c0.7-0.6,1.3-1.1,2-1.7
	c0.1-0.1,0.2-0.2,0.3-0.3c0.6-0.6,1.2-1.1,1.7-1.7c0.1-0.1,0.1-0.1,0.2-0.2c0.1,0.3,0.2,0.5,0.3,0.8c2.4,5.6,7.3,14.3,16.2,19
	c0.2,0.1,0.3,0.2,0.5,0.3c0.6,0.3,1.1,0.6,1.7,0.8c0.3,0.1,0.6,0.2,0.9,0.3c0.5,0.2,1,0.4,1.5,0.5c0.4,0.1,0.8,0.2,1.2,0.3
	c0.5,0.1,1,0.3,1.5,0.4c0.4,0.1,0.9,0.2,1.3,0.3c0.3,0,0.5,0.1,0.7,0.1c0.5,0.1,1,0.1,1.5,0.2v32.1c0,1.6-0.1,3.2-0.2,4.8
	c-0.1,1.4-0.3,2.8-0.6,4.1l-0.1,0.5c-3,16.8-13.6,30.9-28.2,38.6c-0.2,0.1-0.4,0.2-0.5,0.3c-1,0.5-2,1-3,1.4
	c-0.4,0.2-0.9,0.4-1.3,0.5c-0.9,0.4-1.7,0.7-2.6,1c-0.7,0.3-1.5,0.5-2.2,0.7c-0.7,0.2-1.3,0.4-2,0.6c-1.5,0.4-2.9,0.7-4.5,1
	c-1.5,0.3-2.6,1.6-2.6,3.1v10.4c0,1.5,1.1,2.9,2.6,3.1c1.5,0.3,3.1,0.6,4.6,1c0.3,0.1,0.7,0.2,1,0.3c1.5,0.4,3,0.9,4.4,1.5
	c0,0,0.1,0,0.1,0.1c0,0.1-0.1,0.2-0.1,0.4c-0.2,0.4-0.4,0.8-0.6,1.2c-0.3,0.6-0.6,1.1-0.9,1.7c-0.3,0.4-0.5,0.8-0.8,1.1
	c-0.4,0.5-0.8,1-1.2,1.5c-0.3,0.3-0.6,0.7-1,1c-0.4,0.4-0.9,0.9-1.4,1.3c-0.4,0.3-0.7,0.6-1.1,0.8c-0.5,0.4-1,0.7-1.6,1
	c-0.4,0.2-0.8,0.5-1.2,0.7c-0.6,0.3-1.2,0.6-1.8,0.8c-0.4,0.2-0.8,0.3-1.2,0.5c-0.7,0.2-1.4,0.4-2.1,0.5c-0.4,0.1-0.7,0.2-1.1,0.2
	c-1.1,0.2-2.2,0.3-3.3,0.3s-2.2-0.1-3.3-0.3c-0.4-0.1-0.7-0.2-1.1-0.2c-0.7-0.2-1.4-0.3-2.1-0.5c-0.4-0.1-0.8-0.3-1.2-0.5
	c-0.6-0.2-1.2-0.5-1.8-0.8c-0.4-0.2-0.8-0.4-1.2-0.7c-0.5-0.3-1.1-0.7-1.6-1c-0.4-0.3-0.7-0.5-1.1-0.8c-0.5-0.4-0.9-0.8-1.4-1.3
	c-0.3-0.3-0.6-0.7-0.9-1c-0.4-0.5-0.8-1-1.2-1.5c-0.3-0.4-0.5-0.7-0.8-1.1c-0.4-0.6-0.7-1.1-1-1.7c-0.2-0.4-0.4-0.8-0.6-1.2
	c-0.1-0.1-0.1-0.3-0.1-0.4c0.1,0,0.1,0,0.2-0.1C114.2,192.2,115.7,191.7,117.1,191.3z M139.6,211c0.2-0.1,0.4-0.1,0.6-0.2
	c1.1-0.3,2.2-0.8,3.2-1.2c0.2-0.1,0.4-0.2,0.5-0.3c1-0.5,2.1-1.1,3-1.7c0.1-0.1,0.2-0.2,0.3-0.2c1-0.7,1.9-1.4,2.8-2.2
	c0,0,0.1,0,0.1-0.1c0.9-0.8,1.7-1.7,2.5-2.6c0.1-0.1,0.2-0.2,0.3-0.4c0.7-0.9,1.4-1.8,2-2.8c0.1-0.2,0.2-0.3,0.3-0.5
	c0.6-1,1.1-2,1.6-3.1c0-0.1,0.1-0.1,0.1-0.2c0.4,0.2,0.7,0.4,1.1,0.6c0.3,0.2,0.6,0.3,0.9,0.5c3.3,1.9,6.3,4.2,9.2,6.7
	c-1.4,3.9-6.2,14.1-17.9,14.1c-8.3,0-12.1-3.1-13.9-5.6C137.5,211.6,138.6,211.3,139.6,211z M186.3,255.5H77.6v-12.1
	c0-7.2,1.5-14.1,4.1-20.6c1.3-3,2.8-6,4.6-8.7c0-0.1,0.1-0.1,0.1-0.2c1.3-1.9,2.7-3.7,4.1-5.4c3.4,6.9,10.7,15.1,22.8,15.1
	c9.7,0,15.4-3.6,18.6-7.5c3.1,3.9,8.8,7.5,18.4,7.5c12.2,0,19.4-8.5,22.7-15.5c3.8,4.4,6.9,9.3,9.1,14.6c2.7,6.4,4.2,13.4,4.2,20.6
	V255.5z"/>
</svg>
