<?xml version="1.0" encoding="utf-8"?>
<!-- Generator: Adobe Illustrator 22.1.0, SVG Export Plug-In . SVG Version: 6.00 Build 0)  -->
<svg version="1.1" id="Layer_1" xmlns="http://www.w3.org/2000/svg" xmlns:xlink="http://www.w3.org/1999/xlink" x="0px" y="0px"
	 viewBox="0 0 185 215" style="enable-background:new 0 0 185 215;" xml:space="preserve">
<style type="text/css">
	.st0{fill:#AED477;}
</style>
<path d="M153.4,667.9h16.2v0.2c-1.3,0.3-2.5,0.7-3.7,1.2c-6.9,3.1-11.4,10-11.4,17.5v4.8c0,0.6,0.4,1,1,1h36.4c0.6,0,1-0.4,1-1v-4.8
	c0-7.5-4.5-14.4-11.4-17.5c-1.2-0.5-2.5-1-3.7-1.2v-0.2h16.1c3,0,5.5-2.5,5.5-5.5v-25.8c0-14-11.4-25.6-25.4-25.7
	c-6.8-0.1-13.2,2.5-18.1,7.4c-5.1,5-8,11.9-8,18.9v25.3C147.9,665.5,150.4,667.9,153.4,667.9z M190.8,686.8v3.8h-34.4v-3.8
	c0-6.4,3.6-12.2,9.2-15.2c0,0,0,0,0,0.1c0.1,0.3,0.3,0.7,0.5,1c0,0.1,0.1,0.1,0.1,0.2c0.2,0.3,0.4,0.6,0.6,0.9l0.1,0.1
	c0.2,0.3,0.5,0.6,0.8,0.8l0,0c0.3,0.3,0.6,0.5,0.9,0.7c0,0,0.1,0,0.1,0.1c0.3,0.2,0.6,0.4,1,0.5c0.1,0,0.1,0.1,0.2,0.1
	c0.3,0.2,0.7,0.3,1,0.4c0.1,0,0.1,0,0.2,0.1c0.4,0.1,0.7,0.2,1.1,0.2h0.1c0.4,0.1,0.8,0.1,1.2,0.1s0.8,0,1.2-0.1h0.1
	c0.4-0.1,0.7-0.1,1.1-0.2c0.1,0,0.1,0,0.2-0.1c0.3-0.1,0.7-0.2,1-0.4c0.1,0,0.1-0.1,0.2-0.1c0.3-0.2,0.7-0.3,1-0.5
	c0,0,0.1,0,0.1-0.1c0.3-0.2,0.6-0.4,0.9-0.7l0,0c0.3-0.3,0.5-0.5,0.8-0.8l0.1-0.1c0.2-0.3,0.4-0.6,0.6-0.9c0-0.1,0.1-0.1,0.1-0.2
	c0.2-0.3,0.4-0.6,0.5-1c0,0,0,0,0-0.1C187.2,674.6,190.8,680.4,190.8,686.8z M179.8,670.8L179.8,670.8c-0.1,0.2-0.1,0.4-0.2,0.5
	c-0.1,0.2-0.2,0.4-0.3,0.5s-0.2,0.2-0.3,0.4s-0.2,0.3-0.4,0.5c-0.1,0.1-0.2,0.2-0.3,0.3s-0.3,0.3-0.4,0.4c-0.1,0.1-0.2,0.2-0.3,0.3
	c-0.2,0.1-0.3,0.2-0.5,0.3c-0.1,0.1-0.2,0.1-0.4,0.2c-0.2,0.1-0.4,0.2-0.6,0.3c-0.1,0-0.2,0.1-0.4,0.1c-0.2,0.1-0.4,0.1-0.7,0.2
	c-0.1,0-0.2,0.1-0.3,0.1c-0.3,0.1-0.7,0.1-1.1,0.1c-0.4,0-0.7,0-1.1-0.1c-0.1,0-0.2-0.1-0.3-0.1c-0.2,0-0.5-0.1-0.7-0.2
	c-0.1,0-0.3-0.1-0.4-0.1c-0.2-0.1-0.4-0.2-0.6-0.2c-0.1-0.1-0.2-0.1-0.4-0.2c-0.2-0.1-0.3-0.2-0.5-0.3c-0.1-0.1-0.2-0.2-0.3-0.3
	c-0.2-0.1-0.3-0.3-0.4-0.4c-0.1-0.1-0.2-0.2-0.3-0.3s-0.3-0.3-0.4-0.5c-0.1-0.1-0.2-0.2-0.2-0.4c-0.1-0.2-0.2-0.4-0.3-0.5
	s-0.1-0.2-0.2-0.4v-0.1c1.1-0.4,2.1-0.7,3.2-0.9c0.5-0.1,0.8-0.5,0.8-1v-2v-1.3c0-0.5-0.4-0.9-0.8-1c-8.3-1.4-14.3-8.5-14.3-16.9
	v-11.4c1-2.1,4.2-7.7,10.6-9.8c0.4-0.1,0.9-0.3,1.3-0.4c0.9,3.6,4.7,15.7,15.7,15.7c2.6,0,4.9-0.6,6.8-1.7v7.6
	c0,8.4-6,15.5-14.3,16.9c-0.5,0.1-0.8,0.5-0.8,1v1.3v2c0,0.5,0.4,0.9,0.8,1C177.6,670.1,178.8,670.4,179.8,670.8z M149.9,637.2
	c0-6.5,2.7-12.9,7.4-17.5c4.6-4.5,10.5-6.9,16.7-6.8c12.9,0.2,23.4,10.8,23.4,23.7v25.8c0,1.9-1.6,3.5-3.5,3.5h-14.3
	c0.3-0.1,0.6-0.2,0.8-0.3s0.3-0.1,0.5-0.2c0.4-0.2,0.8-0.3,1.2-0.5c0.1,0,0.2-0.1,0.3-0.1c0.5-0.2,0.9-0.5,1.4-0.8
	c0.1-0.1,0.2-0.2,0.4-0.2c0.3-0.2,0.6-0.4,0.9-0.6c0.2-0.1,0.3-0.2,0.5-0.4c0.3-0.2,0.5-0.4,0.7-0.6c0.2-0.1,0.3-0.3,0.5-0.4
	c0.2-0.2,0.4-0.4,0.6-0.6c0.2-0.2,0.3-0.3,0.5-0.5s0.4-0.4,0.6-0.7c0.1-0.2,0.3-0.4,0.4-0.5c0.2-0.2,0.3-0.5,0.5-0.7
	c0.1-0.2,0.3-0.4,0.4-0.6c0.2-0.2,0.3-0.5,0.5-0.7c0.1-0.2,0.2-0.4,0.3-0.6c0.1-0.3,0.3-0.5,0.4-0.8c0.1-0.2,0.2-0.4,0.3-0.6
	c0.1-0.3,0.2-0.5,0.3-0.8c0.1-0.2,0.2-0.4,0.2-0.6c0.1-0.3,0.2-0.6,0.3-0.9c0.1-0.2,0.1-0.4,0.2-0.6c0.1-0.3,0.1-0.6,0.2-0.9
	c0-0.2,0.1-0.4,0.1-0.6c0.1-0.3,0.1-0.7,0.1-1.1c0-0.2,0-0.4,0.1-0.5c0-0.5,0.1-1.1,0.1-1.6v-9c0-0.2,0-0.4,0-0.6v-0.1v-0.1
	c0-0.4-0.3-0.7-0.6-0.9c-0.4-0.1-0.8-0.1-1.1,0.2c-1.1,1-2.5,1.7-4,2.1c-0.9,0.2-2,0.3-3,0.3c-11.1,0-13.9-14.9-13.9-15.1
	c-0.1-0.5-0.6-0.9-1.2-0.8c-9.1,1.6-13.3,9.4-14.4,11.7c-0.1,0.1-0.1,0.3-0.1,0.4v11.7c0,0.5,0,1.1,0.1,1.6c0,0.2,0,0.4,0.1,0.5
	c0,0.4,0.1,0.7,0.1,1.1c0,0.2,0.1,0.4,0.1,0.6c0.1,0.3,0.1,0.6,0.2,0.9c0.1,0.2,0.1,0.4,0.2,0.6c0.1,0.3,0.2,0.6,0.3,0.9
	c0.1,0.2,0.2,0.4,0.2,0.6c0.1,0.3,0.2,0.5,0.3,0.8c0.1,0.2,0.2,0.4,0.3,0.6c0.1,0.3,0.3,0.5,0.4,0.8c0.1,0.2,0.2,0.4,0.3,0.6
	c0.1,0.2,0.3,0.5,0.5,0.7c0.1,0.2,0.3,0.4,0.4,0.6c0.2,0.2,0.3,0.5,0.5,0.7c0.1,0.2,0.3,0.4,0.4,0.5c0.2,0.2,0.4,0.4,0.6,0.7
	c0.1,0.2,0.3,0.3,0.5,0.5s0.4,0.4,0.6,0.6c0.2,0.1,0.3,0.3,0.5,0.4c0.2,0.2,0.5,0.4,0.7,0.6c0.2,0.1,0.3,0.2,0.5,0.4
	c0.3,0.2,0.6,0.4,0.9,0.6c0.1,0.1,0.2,0.2,0.4,0.2c0.4,0.3,0.9,0.5,1.4,0.8c0.1,0,0.2,0.1,0.3,0.1c0.4,0.2,0.8,0.4,1.2,0.5
	c0.2,0.1,0.3,0.1,0.5,0.2c0.3,0.1,0.6,0.2,0.8,0.3h-14.3c-1.9,0-3.5-1.6-3.5-3.5v-25L149.9,637.2L149.9,637.2z"/>
<path d="M153.4,667.9h16.2v0.2c-1.3,0.3-2.5,0.7-3.7,1.2c-6.9,3.1-11.4,10-11.4,17.5v4.8c0,0.6,0.4,1,1,1h36.4c0.6,0,1-0.4,1-1v-4.8
	c0-7.5-4.5-14.4-11.4-17.5c-1.2-0.5-2.5-1-3.7-1.2v-0.2h16.1c3,0,5.5-2.5,5.5-5.5v-25.8c0-14-11.4-25.6-25.4-25.7
	c-6.8-0.1-13.2,2.5-18.1,7.4c-5.1,5-8,11.9-8,18.9v25.3C147.9,665.5,150.4,667.9,153.4,667.9z M190.8,686.8v3.8h-34.4v-3.8
	c0-6.4,3.6-12.2,9.2-15.2c0,0,0,0,0,0.1c0.1,0.3,0.3,0.7,0.5,1c0,0.1,0.1,0.1,0.1,0.2c0.2,0.3,0.4,0.6,0.6,0.9l0.1,0.1
	c0.2,0.3,0.5,0.6,0.8,0.8l0,0c0.3,0.3,0.6,0.5,0.9,0.7c0,0,0.1,0,0.1,0.1c0.3,0.2,0.6,0.4,1,0.5c0.1,0,0.1,0.1,0.2,0.1
	c0.3,0.2,0.7,0.3,1,0.4c0.1,0,0.1,0,0.2,0.1c0.4,0.1,0.7,0.2,1.1,0.2h0.1c0.4,0.1,0.8,0.1,1.2,0.1s0.8,0,1.2-0.1h0.1
	c0.4-0.1,0.7-0.1,1.1-0.2c0.1,0,0.1,0,0.2-0.1c0.3-0.1,0.7-0.2,1-0.4c0.1,0,0.1-0.1,0.2-0.1c0.3-0.2,0.7-0.3,1-0.5
	c0,0,0.1,0,0.1-0.1c0.3-0.2,0.6-0.4,0.9-0.7l0,0c0.3-0.3,0.5-0.5,0.8-0.8l0.1-0.1c0.2-0.3,0.4-0.6,0.6-0.9c0-0.1,0.1-0.1,0.1-0.2
	c0.2-0.3,0.4-0.6,0.5-1c0,0,0,0,0-0.1C187.2,674.6,190.8,680.4,190.8,686.8z M179.8,670.8L179.8,670.8c-0.1,0.2-0.1,0.4-0.2,0.5
	c-0.1,0.2-0.2,0.4-0.3,0.5s-0.2,0.2-0.3,0.4s-0.2,0.3-0.4,0.5c-0.1,0.1-0.2,0.2-0.3,0.3s-0.3,0.3-0.4,0.4c-0.1,0.1-0.2,0.2-0.3,0.3
	c-0.2,0.1-0.3,0.2-0.5,0.3c-0.1,0.1-0.2,0.1-0.4,0.2c-0.2,0.1-0.4,0.2-0.6,0.3c-0.1,0-0.2,0.1-0.4,0.1c-0.2,0.1-0.4,0.1-0.7,0.2
	c-0.1,0-0.2,0.1-0.3,0.1c-0.3,0.1-0.7,0.1-1.1,0.1c-0.4,0-0.7,0-1.1-0.1c-0.1,0-0.2-0.1-0.3-0.1c-0.2,0-0.5-0.1-0.7-0.2
	c-0.1,0-0.3-0.1-0.4-0.1c-0.2-0.1-0.4-0.2-0.6-0.2c-0.1-0.1-0.2-0.1-0.4-0.2c-0.2-0.1-0.3-0.2-0.5-0.3c-0.1-0.1-0.2-0.2-0.3-0.3
	c-0.2-0.1-0.3-0.3-0.4-0.4c-0.1-0.1-0.2-0.2-0.3-0.3s-0.3-0.3-0.4-0.5c-0.1-0.1-0.2-0.2-0.2-0.4c-0.1-0.2-0.2-0.4-0.3-0.5
	s-0.1-0.2-0.2-0.4v-0.1c1.1-0.4,2.1-0.7,3.2-0.9c0.5-0.1,0.8-0.5,0.8-1v-2v-1.3c0-0.5-0.4-0.9-0.8-1c-8.3-1.4-14.3-8.5-14.3-16.9
	v-11.4c1-2.1,4.2-7.7,10.6-9.8c0.4-0.1,0.9-0.3,1.3-0.4c0.9,3.6,4.7,15.7,15.7,15.7c2.6,0,4.9-0.6,6.8-1.7v7.6
	c0,8.4-6,15.5-14.3,16.9c-0.5,0.1-0.8,0.5-0.8,1v1.3v2c0,0.5,0.4,0.9,0.8,1C177.6,670.1,178.8,670.4,179.8,670.8z M149.9,637.2
	c0-6.5,2.7-12.9,7.4-17.5c4.6-4.5,10.5-6.9,16.7-6.8c12.9,0.2,23.4,10.8,23.4,23.7v25.8c0,1.9-1.6,3.5-3.5,3.5h-14.3
	c0.3-0.1,0.6-0.2,0.8-0.3s0.3-0.1,0.5-0.2c0.4-0.2,0.8-0.3,1.2-0.5c0.1,0,0.2-0.1,0.3-0.1c0.5-0.2,0.9-0.5,1.4-0.8
	c0.1-0.1,0.2-0.2,0.4-0.2c0.3-0.2,0.6-0.4,0.9-0.6c0.2-0.1,0.3-0.2,0.5-0.4c0.3-0.2,0.5-0.4,0.7-0.6c0.2-0.1,0.3-0.3,0.5-0.4
	c0.2-0.2,0.4-0.4,0.6-0.6c0.2-0.2,0.3-0.3,0.5-0.5s0.4-0.4,0.6-0.7c0.1-0.2,0.3-0.4,0.4-0.5c0.2-0.2,0.3-0.5,0.5-0.7
	c0.1-0.2,0.3-0.4,0.4-0.6c0.2-0.2,0.3-0.5,0.5-0.7c0.1-0.2,0.2-0.4,0.3-0.6c0.1-0.3,0.3-0.5,0.4-0.8c0.1-0.2,0.2-0.4,0.3-0.6
	c0.1-0.3,0.2-0.5,0.3-0.8c0.1-0.2,0.2-0.4,0.2-0.6c0.1-0.3,0.2-0.6,0.3-0.9c0.1-0.2,0.1-0.4,0.2-0.6c0.1-0.3,0.1-0.6,0.2-0.9
	c0-0.2,0.1-0.4,0.1-0.6c0.1-0.3,0.1-0.7,0.1-1.1c0-0.2,0-0.4,0.1-0.5c0-0.5,0.1-1.1,0.1-1.6v-9c0-0.2,0-0.4,0-0.6v-0.1v-0.1
	c0-0.4-0.3-0.7-0.6-0.9c-0.4-0.1-0.8-0.1-1.1,0.2c-1.1,1-2.5,1.7-4,2.1c-0.9,0.2-2,0.3-3,0.3c-11.1,0-13.9-14.9-13.9-15.1
	c-0.1-0.5-0.6-0.9-1.2-0.8c-9.1,1.6-13.3,9.4-14.4,11.7c-0.1,0.1-0.1,0.3-0.1,0.4v11.7c0,0.5,0,1.1,0.1,1.6c0,0.2,0,0.4,0.1,0.5
	c0,0.4,0.1,0.7,0.1,1.1c0,0.2,0.1,0.4,0.1,0.6c0.1,0.3,0.1,0.6,0.2,0.9c0.1,0.2,0.1,0.4,0.2,0.6c0.1,0.3,0.2,0.6,0.3,0.9
	c0.1,0.2,0.2,0.4,0.2,0.6c0.1,0.3,0.2,0.5,0.3,0.8c0.1,0.2,0.2,0.4,0.3,0.6c0.1,0.3,0.3,0.5,0.4,0.8c0.1,0.2,0.2,0.4,0.3,0.6
	c0.1,0.2,0.3,0.5,0.5,0.7c0.1,0.2,0.3,0.4,0.4,0.6c0.2,0.2,0.3,0.5,0.5,0.7c0.1,0.2,0.3,0.4,0.4,0.5c0.2,0.2,0.4,0.4,0.6,0.7
	c0.1,0.2,0.3,0.3,0.5,0.5s0.4,0.4,0.6,0.6c0.2,0.1,0.3,0.3,0.5,0.4c0.2,0.2,0.5,0.4,0.7,0.6c0.2,0.1,0.3,0.2,0.5,0.4
	c0.3,0.2,0.6,0.4,0.9,0.6c0.1,0.1,0.2,0.2,0.4,0.2c0.4,0.3,0.9,0.5,1.4,0.8c0.1,0,0.2,0.1,0.3,0.1c0.4,0.2,0.8,0.4,1.2,0.5
	c0.2,0.1,0.3,0.1,0.5,0.2c0.3,0.1,0.6,0.2,0.8,0.3h-14.3c-1.9,0-3.5-1.6-3.5-3.5v-25L149.9,637.2L149.9,637.2z"/>
<path class="st0" d="M140.4,208.5v-12.2c0-4.8-0.7-9.5-2.1-14c1.8,0.3,3.8,0.5,5.6,0.5c2.7,0,5.5-0.3,8.2-1
	c15.5-3.5,27.3-17.1,28.7-32.8c1-12.8-4.3-25-14.6-32.8c-5.7-4.3-9.1-11.5-9.1-19.1V68.7c0-35.6-28.9-64.9-64.5-65.4
	C75.6,3.2,59.1,9.8,46.6,22.2c-12.8,12.7-20.2,30.2-20.2,48v27.1c0,7.8-3.4,15.1-9,19.6c-10,8-15.2,20.5-13.6,33.3
	c1.9,16.3,14.6,29.5,30.8,32c3.5,0.6,7.1,0.6,10.6,0.2c-1.4,4.4-2,9.1-2,13.8v12.2c0,1.4,1.1,2.6,2.6,2.6H138
	C139.3,211,140.4,209.8,140.4,208.5z M47.1,176.9c-3.9,0.8-7.8,1-11.8,0.3c-13.8-2.2-25-13.8-26.6-27.6
	c-1.3-11.1,3.1-21.8,11.8-28.7c6.8-5.5,10.9-14.3,10.9-23.6V70.1c0-16.5,6.8-32.7,18.7-44.4C61.7,14.3,76.9,8.1,92.6,8.4
	c32.8,0.4,59.5,27.5,59.5,60.3v28.4c0,9.2,4.2,17.9,11.2,23.2l0,0c8.8,6.7,13.5,17.2,12.6,28.3c-1.1,13.6-11.3,25.2-24.7,28.3
	c-4.9,1.1-9.9,1-14.8-0.2c0-0.1-0.1-0.2-0.1-0.2c-1.1-2.6-2.5-5-4-7.2c-0.2-0.4-0.5-0.7-0.8-1.1c-0.5-0.7-1-1.4-1.6-2.2
	c-0.3-0.4-0.6-0.8-1-1.2c-0.6-0.6-1.2-1.4-1.8-2c-0.3-0.3-0.6-0.6-1-1c-0.9-0.9-1.8-1.8-2.8-2.6c-0.4-0.3-0.8-0.6-1.2-1
	c-0.6-0.6-1.4-1-2-1.5c-0.4-0.3-0.9-0.6-1.3-0.9c-0.7-0.5-1.5-1-2.3-1.4c-0.4-0.2-0.8-0.5-1.2-0.7c-1.2-0.6-2.4-1.3-3.7-1.8
	c-3.1-1.4-6.3-2.4-9.5-3.1v-4.3c0.2,0,0.3-0.1,0.6-0.2c1-0.2,2.2-0.5,3.2-0.8c0.7-0.2,1.4-0.5,2.2-0.7c0.5-0.2,1-0.3,1.4-0.5
	c0.9-0.3,1.8-0.7,2.6-1.1c0.2-0.1,0.5-0.2,0.7-0.3c1-0.5,1.9-1,2.9-1.5c0,0,0.1,0,0.1-0.1c15-8.4,24.8-24.3,24.8-42.4V68.8
	c0-1.4-1.1-2.6-2.6-2.6c-1,0-2-0.1-3-0.2c-0.1,0-0.2-0.1-0.3-0.1c-1-0.2-1.8-0.4-2.6-0.6c-0.3-0.1-0.6-0.2-1-0.4
	c-0.6-0.2-1.1-0.5-1.7-0.7c-0.3-0.2-0.6-0.3-1-0.5c-0.6-0.3-1-0.6-1.5-1c-0.2-0.2-0.5-0.3-0.7-0.5c-3.8-3-6.2-7.1-7.8-10.8
	c-0.5-1-0.8-2-1-2.8c-0.2-0.7-0.4-1.3-0.5-1.6c0-0.1,0-0.2-0.1-0.2c-0.2-1-1-1.8-2.1-1.9c-1-0.2-2.1,0.3-2.6,1.3
	c-0.1,0.1-6.3,10.6-20.4,10.6c-13.7,0-18.2-10-18.5-10.4c0-0.1-0.1-0.2-0.2-0.2s-0.1-0.2-0.2-0.2c-0.2-0.2-0.3-0.3-0.5-0.5l0,0
	C72,45,71.6,44.8,71,44.8c-0.1,0-0.1,0-0.2,0h-0.1c0,0,0,0-0.1,0c-0.1,0-0.2,0-0.2,0c-0.2,0-0.2,0-0.4,0.1c-0.1,0-0.1,0-0.2,0
	S69.9,45,69.8,45l0,0c-0.1,0-0.2,0.1-0.2,0.2c-0.2,0.1-0.3,0.2-0.5,0.4c-0.1,0.1-0.2,0.2-0.2,0.2c-0.2,0.2-0.3,0.5-0.5,0.8
	c-0.4,1.1-0.8,2.2-1.3,3.1c-0.2,0.4-0.4,0.7-0.6,1.1l0,0l-0.2,0.5c-0.2,0.4-0.4,0.8-0.6,1.1c-0.2,0.2-0.3,0.5-0.5,0.8l0,0l-0.3,0.4
	l0,0l-0.3,0.5c-0.2,0.2-0.3,0.6-0.6,0.8l0,0c-0.1,0.1-0.2,0.2-0.2,0.2l-0.3,0.4l0,0l-0.2,0.2l0,0c-0.2,0.3-0.6,0.6-0.8,1
	c-0.2,0.2-0.2,0.2-0.4,0.4l-0.3,0.2c-0.5,0.5-1,1-1.4,1.4l-0.6,0.6c-0.4,0.3-0.9,0.7-1.3,1l-0.6,0.5l0,0l-0.3,0.2
	c-0.3,0.2-0.6,0.4-1,0.6c-0.2,0.1-0.3,0.2-0.5,0.2l-0.3,0.2l0,0l-0.3,0.2c-0.2,0.1-0.4,0.2-0.6,0.3c-0.1,0.1-0.2,0.1-0.4,0.2
	l-0.2,0.1c-0.4,0.2-0.7,0.3-1.1,0.5c-0.2,0.1-0.3,0.2-0.6,0.2l-0.3,0.1c-0.4,0.2-0.8,0.3-1.2,0.5l0,0l0,0c-0.5,0.2-0.9,0.2-1.3,0.4
	l0,0l0,0l-0.3,0.1c-0.3,0.1-0.6,0.2-1,0.2l0,0c-0.1,0-0.2,0.1-0.2,0.1l0,0H48l0,0L47.7,65l-0.2,0.1l-0.6,0.2l-0.2,0.1L46,65.5
	c-0.2,0-0.3,0.1-0.4,0.1c-0.1,0-0.2,0-0.2,0c-1,0.1-1.8,0.7-2.2,1.6c-0.1,0.3-0.2,0.6-0.2,1V97c0,19.7,11.8,37,29.2,44.6
	c0.1,0.1,0.2,0.1,0.3,0.2c0.6,0.3,1.4,0.6,2,0.8c0.6,0.2,1.1,0.4,1.7,0.6s1,0.3,1.6,0.5c1,0.3,2.2,0.6,3.3,0.9
	c0.1,0,0.2,0.1,0.2,0.1v4.2c-3.2,0.7-6.3,1.8-9.5,3.1c-1.3,0.6-2.6,1.2-3.8,1.9c-0.2,0.2-0.5,0.3-0.7,0.5c-1,0.6-2.1,1.3-3.1,1.9
	c-0.2,0.1-0.3,0.2-0.5,0.3c-4.9,3.5-9.1,7.7-12.4,12.6c0,0,0,0,0,0.1c-1.6,2.4-3,4.9-4.2,7.5C47.2,176.7,47.1,176.8,47.1,176.9z
	 M69.9,158.6c0.2-0.2,0.5-0.2,0.7-0.4c0.3-0.2,0.6-0.3,0.9-0.5c0,0.1,0.1,0.1,0.1,0.1c0.4,0.9,0.8,1.7,1.3,2.5
	c0.1,0.2,0.2,0.2,0.2,0.4c0.5,0.8,1,1.6,1.6,2.3c0.1,0.1,0.2,0.2,0.2,0.2c0.6,0.7,1.3,1.4,2,2.1c0,0,0,0,0.1,0
	c0.7,0.6,1.5,1.2,2.3,1.8c0.1,0.1,0.2,0.2,0.2,0.2c0.8,0.5,1.6,1,2.4,1.4c0.2,0.1,0.2,0.2,0.4,0.2c0.8,0.4,1.7,0.7,2.6,1
	c0.2,0.1,0.3,0.1,0.5,0.2c0.8,0.2,1.6,0.5,2.5,0.6c-1.4,2-4.5,4.5-11.2,4.5c-9.2,0-13.2-7.7-14.5-11
	C64.7,162.1,67.2,160.2,69.9,158.6z M79.8,154.4c0.2-0.1,0.6-0.2,0.8-0.2c1.2-0.3,2.5-0.6,3.7-0.8c1.2-0.2,2.1-1.3,2.1-2.5v-8.3
	c0-1.2-0.9-2.3-2.1-2.5c-1.1-0.2-2.2-0.5-3.4-0.7c-0.4-0.1-0.8-0.2-1.3-0.3c-0.6-0.2-1.3-0.4-1.9-0.6c-0.6-0.2-1-0.4-1.6-0.6
	c-0.3-0.2-0.7-0.3-1-0.4c-11.2-4.7-20.3-14-24.5-25.8v-0.1c-0.8-2.3-1.4-4.7-1.8-7l-0.1-0.7c-0.2-1-0.3-1.9-0.4-2.9
	c-0.1-1.3-0.2-2.6-0.2-3.9V70.3c5.1-1,16.8-4.5,23.4-17.5c0.2,0.2,0.3,0.3,0.5,0.5c0.3,0.3,0.6,0.6,0.9,1c0.2,0.2,0.4,0.3,0.6,0.5
	c0.3,0.3,0.7,0.7,1.1,1c0.2,0.2,0.5,0.3,0.6,0.5c0.4,0.3,0.8,0.6,1.3,1c0.2,0.2,0.6,0.3,0.8,0.5c0.5,0.3,1,0.6,1.4,0.9
	c0.3,0.2,0.7,0.3,1.1,0.6c0.5,0.2,1,0.5,1.5,0.7c0.5,0.2,1,0.3,1.5,0.5c0.5,0.2,1,0.3,1.5,0.5c0.6,0.2,1.4,0.2,2,0.4
	c0.5,0.1,0.9,0.2,1.4,0.2c1.2,0.2,2.5,0.2,3.9,0.2s2.6-0.1,3.9-0.2c0.4-0.1,0.8-0.2,1.2-0.2c0.8-0.2,1.6-0.2,2.4-0.4
	c0.5-0.1,0.9-0.2,1.3-0.4c0.6-0.2,1.3-0.3,1.8-0.6c0.5-0.2,0.9-0.4,1.4-0.6c0.5-0.2,1-0.4,1.4-0.6c0.6-0.2,1-0.6,1.5-0.9
	c0.3-0.2,0.7-0.4,1-0.6c0.6-0.3,1-0.7,1.6-1.1c0.2-0.2,0.4-0.2,0.6-0.4c0.6-0.5,1-0.9,1.6-1.4c0.1-0.1,0.2-0.2,0.2-0.2
	c0.5-0.5,1-0.9,1.4-1.4c0.1-0.1,0.1-0.1,0.2-0.2c0.1,0.2,0.2,0.4,0.2,0.6c1.9,4.5,5.9,11.5,13,15.3c0.2,0.1,0.2,0.2,0.4,0.2
	c0.5,0.2,0.9,0.5,1.4,0.6c0.2,0.1,0.5,0.2,0.7,0.2c0.4,0.2,0.8,0.3,1.2,0.4c0.3,0.1,0.6,0.2,1,0.2c0.4,0.1,0.8,0.2,1.2,0.3
	c0.3,0.1,0.7,0.2,1,0.2c0.2,0,0.4,0.1,0.6,0.1c0.4,0.1,0.8,0.1,1.2,0.2v25.8c0,1.3-0.1,2.6-0.2,3.9c-0.1,1.1-0.2,2.2-0.5,3.3
	l-0.1,0.4c-2.4,13.5-10.9,24.8-22.6,31c-0.2,0.1-0.3,0.2-0.4,0.2c-0.8,0.4-1.6,0.8-2.4,1.1c-0.3,0.2-0.7,0.3-1,0.4
	c-0.7,0.3-1.4,0.6-2.1,0.8c-0.6,0.2-1.2,0.4-1.8,0.6c-0.6,0.2-1,0.3-1.6,0.5c-1.2,0.3-2.3,0.6-3.6,0.8c-1.2,0.2-2.1,1.3-2.1,2.5v8.3
	c0,1.2,0.9,2.3,2.1,2.5c1.2,0.2,2.5,0.5,3.7,0.8c0.2,0.1,0.6,0.2,0.8,0.2c1.2,0.3,2.4,0.7,3.5,1.2c0,0,0.1,0,0.1,0.1
	s-0.1,0.2-0.1,0.3c-0.2,0.3-0.3,0.6-0.5,1c-0.2,0.5-0.5,0.9-0.7,1.4c-0.2,0.3-0.4,0.6-0.6,0.9c-0.3,0.4-0.6,0.8-1,1.2
	c-0.2,0.2-0.5,0.6-0.8,0.8c-0.3,0.3-0.7,0.7-1.1,1c-0.3,0.2-0.6,0.5-0.9,0.6c-0.4,0.3-0.8,0.6-1.3,0.8c-0.3,0.2-0.6,0.4-1,0.6
	c-0.5,0.2-1,0.5-1.4,0.6c-0.3,0.2-0.6,0.2-1,0.4c-0.6,0.2-1.1,0.3-1.7,0.4c-0.3,0.1-0.6,0.2-0.9,0.2c-0.9,0.2-1.8,0.2-2.6,0.2
	s-1.8-0.1-2.6-0.2c-0.3-0.1-0.6-0.2-0.9-0.2c-0.6-0.2-1.1-0.2-1.7-0.4c-0.3-0.1-0.6-0.2-1-0.4c-0.5-0.2-1-0.4-1.4-0.6
	c-0.3-0.2-0.6-0.3-1-0.6c-0.4-0.2-0.9-0.6-1.3-0.8c-0.3-0.2-0.6-0.4-0.9-0.6c-0.4-0.3-0.7-0.6-1.1-1c-0.2-0.2-0.5-0.6-0.7-0.8
	c-0.3-0.4-0.6-0.8-1-1.2c-0.2-0.3-0.4-0.6-0.6-0.9c-0.3-0.5-0.6-0.9-0.8-1.4c-0.2-0.3-0.3-0.6-0.5-1c-0.1-0.1-0.1-0.2-0.1-0.3
	c0.1,0,0.1,0,0.2-0.1C77.5,155.1,78.7,154.7,79.8,154.4z M97.9,170.2c0.2-0.1,0.3-0.1,0.5-0.2c0.9-0.2,1.8-0.6,2.6-1
	c0.2-0.1,0.3-0.2,0.4-0.2c0.8-0.4,1.7-0.9,2.4-1.4c0.1-0.1,0.2-0.2,0.2-0.2c0.8-0.6,1.5-1.1,2.2-1.8c0,0,0.1,0,0.1-0.1
	c0.7-0.6,1.4-1.4,2-2.1c0.1-0.1,0.2-0.2,0.2-0.3c0.6-0.7,1.1-1.4,1.6-2.2c0.1-0.2,0.2-0.2,0.2-0.4c0.5-0.8,0.9-1.6,1.3-2.5
	c0-0.1,0.1-0.1,0.1-0.2c0.3,0.2,0.6,0.3,0.9,0.5c0.2,0.2,0.5,0.2,0.7,0.4c2.6,1.5,5.1,3.4,7.4,5.4c-1.1,3.1-5,11.3-14.4,11.3
	c-6.7,0-9.7-2.5-11.2-4.5C96.2,170.7,97.1,170.4,97.9,170.2z M135.4,205.9H48.1v-9.7c0-5.8,1.2-11.3,3.3-16.5c1-2.4,2.2-4.8,3.7-7
	c0-0.1,0.1-0.1,0.1-0.2c1-1.5,2.2-3,3.3-4.3c2.7,5.5,8.6,12.1,18.3,12.1c7.8,0,12.4-2.9,14.9-6c2.5,3.1,7.1,6,14.8,6
	c9.8,0,15.6-6.8,18.2-12.4c3.1,3.5,5.5,7.5,7.3,11.7c2.2,5.1,3.4,10.8,3.4,16.5L135.4,205.9L135.4,205.9z"/>
</svg>
