<?xml version="1.0" encoding="utf-8"?>
<!-- Generator: Adobe Illustrator 22.1.0, SVG Export Plug-In . SVG Version: 6.00 Build 0)  -->
<svg version="1.1" id="Layer_1" xmlns="http://www.w3.org/2000/svg" xmlns:xlink="http://www.w3.org/1999/xlink" x="0px" y="0px"
	 viewBox="0 0 221.1 258.7" style="enable-background:new 0 0 221.1 258.7;" xml:space="preserve">
<style type="text/css">
	.st0{fill:#AED477;}
</style>
<path d="M171.5,689.8h16.2v0.2c-1.3,0.3-2.5,0.7-3.7,1.2c-6.9,3.1-11.4,10-11.4,17.5v4.8c0,0.6,0.4,1,1,1H210c0.6,0,1-0.4,1-1v-4.8
	c0-7.5-4.5-14.4-11.4-17.5c-1.2-0.5-2.5-1-3.7-1.2v-0.2H212c3,0,5.5-2.5,5.5-5.5v-25.8c0-14-11.4-25.6-25.4-25.7
	c-6.8-0.1-13.2,2.5-18.1,7.4c-5.1,5-8,11.9-8,18.9v25.3C166,687.4,168.5,689.8,171.5,689.8z M208.9,708.7v3.8h-34.4v-3.8
	c0-6.4,3.6-12.2,9.2-15.2c0,0,0,0,0,0.1c0.1,0.3,0.3,0.7,0.5,1c0,0.1,0.1,0.1,0.1,0.2c0.2,0.3,0.4,0.6,0.6,0.9l0.1,0.1
	c0.2,0.3,0.5,0.6,0.8,0.8l0,0c0.3,0.3,0.6,0.5,0.9,0.7c0,0,0.1,0,0.1,0.1c0.3,0.2,0.6,0.4,1,0.5c0.1,0,0.1,0.1,0.2,0.1
	c0.3,0.2,0.7,0.3,1,0.4c0.1,0,0.1,0,0.2,0.1c0.4,0.1,0.7,0.2,1.1,0.2h0.1c0.4,0.1,0.8,0.1,1.2,0.1s0.8,0,1.2-0.1h0.1
	c0.4-0.1,0.7-0.1,1.1-0.2c0.1,0,0.1,0,0.2-0.1c0.3-0.1,0.7-0.2,1-0.4c0.1,0,0.1-0.1,0.2-0.1c0.3-0.2,0.7-0.3,1-0.5
	c0,0,0.1,0,0.1-0.1c0.3-0.2,0.6-0.4,0.9-0.7l0,0c0.3-0.3,0.5-0.5,0.8-0.8l0.1-0.1c0.2-0.3,0.4-0.6,0.6-0.9c0-0.1,0.1-0.1,0.1-0.2
	c0.2-0.3,0.4-0.6,0.5-1c0,0,0,0,0-0.1C205.3,696.5,208.9,702.3,208.9,708.7z M197.9,692.7L197.9,692.7c-0.1,0.2-0.1,0.4-0.2,0.5
	c-0.1,0.2-0.2,0.4-0.3,0.5s-0.2,0.2-0.3,0.4s-0.2,0.3-0.4,0.5c-0.1,0.1-0.2,0.2-0.3,0.3s-0.3,0.3-0.4,0.4c-0.1,0.1-0.2,0.2-0.3,0.3
	c-0.2,0.1-0.3,0.2-0.5,0.3c-0.1,0.1-0.2,0.1-0.4,0.2c-0.2,0.1-0.4,0.2-0.6,0.3c-0.1,0-0.2,0.1-0.4,0.1c-0.2,0.1-0.4,0.1-0.7,0.2
	c-0.1,0-0.2,0.1-0.3,0.1c-0.3,0.1-0.7,0.1-1.1,0.1c-0.4,0-0.7,0-1.1-0.1c-0.1,0-0.2-0.1-0.3-0.1c-0.2,0-0.5-0.1-0.7-0.2
	c-0.1,0-0.3-0.1-0.4-0.1c-0.2-0.1-0.4-0.2-0.6-0.2c-0.1-0.1-0.2-0.1-0.4-0.2c-0.2-0.1-0.3-0.2-0.5-0.3c-0.1-0.1-0.2-0.2-0.3-0.3
	c-0.2-0.1-0.3-0.3-0.4-0.4c-0.1-0.1-0.2-0.2-0.3-0.3s-0.3-0.3-0.4-0.5c-0.1-0.1-0.2-0.2-0.2-0.4c-0.1-0.2-0.2-0.4-0.3-0.5
	s-0.1-0.2-0.2-0.4v-0.1c1.1-0.4,2.1-0.7,3.2-0.9c0.5-0.1,0.8-0.5,0.8-1v-2v-1.3c0-0.5-0.4-0.9-0.8-1c-8.3-1.4-14.3-8.5-14.3-16.9
	v-11.4c1-2.1,4.2-7.7,10.6-9.8c0.4-0.1,0.9-0.3,1.3-0.4c0.9,3.6,4.7,15.7,15.7,15.7c2.6,0,4.9-0.6,6.8-1.7v7.6
	c0,8.4-6,15.5-14.3,16.9c-0.5,0.1-0.8,0.5-0.8,1v1.3v2c0,0.5,0.4,0.9,0.8,1C195.7,692,196.8,692.3,197.9,692.7z M168,659.1
	c0-6.5,2.7-12.9,7.4-17.5c4.6-4.5,10.5-6.9,16.7-6.8c12.9,0.2,23.4,10.8,23.4,23.7v25.8c0,1.9-1.6,3.5-3.5,3.5h-14.3
	c0.3-0.1,0.6-0.2,0.8-0.3s0.3-0.1,0.5-0.2c0.4-0.2,0.8-0.3,1.2-0.5c0.1,0,0.2-0.1,0.3-0.1c0.5-0.2,0.9-0.5,1.4-0.8
	c0.1-0.1,0.2-0.2,0.4-0.2c0.3-0.2,0.6-0.4,0.9-0.6c0.2-0.1,0.3-0.2,0.5-0.4c0.3-0.2,0.5-0.4,0.7-0.6c0.2-0.1,0.3-0.3,0.5-0.4
	c0.2-0.2,0.4-0.4,0.6-0.6c0.2-0.2,0.3-0.3,0.5-0.5s0.4-0.4,0.6-0.7c0.1-0.2,0.3-0.4,0.4-0.5c0.2-0.2,0.3-0.5,0.5-0.7
	c0.1-0.2,0.3-0.4,0.4-0.6c0.2-0.2,0.3-0.5,0.5-0.7c0.1-0.2,0.2-0.4,0.3-0.6c0.1-0.3,0.3-0.5,0.4-0.8c0.1-0.2,0.2-0.4,0.3-0.6
	c0.1-0.3,0.2-0.5,0.3-0.8c0.1-0.2,0.2-0.4,0.2-0.6c0.1-0.3,0.2-0.6,0.3-0.9c0.1-0.2,0.1-0.4,0.2-0.6c0.1-0.3,0.1-0.6,0.2-0.9
	c0-0.2,0.1-0.4,0.1-0.6c0.1-0.3,0.1-0.7,0.1-1.1c0-0.2,0-0.4,0.1-0.5c0-0.5,0.1-1.1,0.1-1.6v-9c0-0.2,0-0.4,0-0.6v-0.1V660
	c0-0.4-0.3-0.7-0.6-0.9c-0.4-0.1-0.8-0.1-1.1,0.2c-1.1,1-2.5,1.7-4,2.1c-0.9,0.2-2,0.3-3,0.3c-11.1,0-13.9-14.9-13.9-15.1
	c-0.1-0.5-0.6-0.9-1.2-0.8c-9.1,1.6-13.3,9.4-14.4,11.7c-0.1,0.1-0.1,0.3-0.1,0.4v11.7c0,0.5,0,1.1,0.1,1.6c0,0.2,0,0.4,0.1,0.5
	c0,0.4,0.1,0.7,0.1,1.1c0,0.2,0.1,0.4,0.1,0.6c0.1,0.3,0.1,0.6,0.2,0.9c0.1,0.2,0.1,0.4,0.2,0.6c0.1,0.3,0.2,0.6,0.3,0.9
	c0.1,0.2,0.2,0.4,0.2,0.6c0.1,0.3,0.2,0.5,0.3,0.8c0.1,0.2,0.2,0.4,0.3,0.6c0.1,0.3,0.3,0.5,0.4,0.8c0.1,0.2,0.2,0.4,0.3,0.6
	c0.1,0.2,0.3,0.5,0.5,0.7c0.1,0.2,0.3,0.4,0.4,0.6c0.2,0.2,0.3,0.5,0.5,0.7c0.1,0.2,0.3,0.4,0.4,0.5c0.2,0.2,0.4,0.4,0.6,0.7
	c0.1,0.2,0.3,0.3,0.5,0.5s0.4,0.4,0.6,0.6c0.2,0.1,0.3,0.3,0.5,0.4c0.2,0.2,0.5,0.4,0.7,0.6c0.2,0.1,0.3,0.2,0.5,0.4
	c0.3,0.2,0.6,0.4,0.9,0.6c0.1,0.1,0.2,0.2,0.4,0.2c0.4,0.3,0.9,0.5,1.4,0.8c0.1,0,0.2,0.1,0.3,0.1c0.4,0.2,0.8,0.4,1.2,0.5
	c0.2,0.1,0.3,0.1,0.5,0.2c0.3,0.1,0.6,0.2,0.8,0.3h-14.3c-1.9,0-3.5-1.6-3.5-3.5v-25H168z"/>
<path d="M171.5,689.8h16.2v0.2c-1.3,0.3-2.5,0.7-3.7,1.2c-6.9,3.1-11.4,10-11.4,17.5v4.8c0,0.6,0.4,1,1,1H210c0.6,0,1-0.4,1-1v-4.8
	c0-7.5-4.5-14.4-11.4-17.5c-1.2-0.5-2.5-1-3.7-1.2v-0.2H212c3,0,5.5-2.5,5.5-5.5v-25.8c0-14-11.4-25.6-25.4-25.7
	c-6.8-0.1-13.2,2.5-18.1,7.4c-5.1,5-8,11.9-8,18.9v25.3C166,687.4,168.5,689.8,171.5,689.8z M208.9,708.7v3.8h-34.4v-3.8
	c0-6.4,3.6-12.2,9.2-15.2c0,0,0,0,0,0.1c0.1,0.3,0.3,0.7,0.5,1c0,0.1,0.1,0.1,0.1,0.2c0.2,0.3,0.4,0.6,0.6,0.9l0.1,0.1
	c0.2,0.3,0.5,0.6,0.8,0.8l0,0c0.3,0.3,0.6,0.5,0.9,0.7c0,0,0.1,0,0.1,0.1c0.3,0.2,0.6,0.4,1,0.5c0.1,0,0.1,0.1,0.2,0.1
	c0.3,0.2,0.7,0.3,1,0.4c0.1,0,0.1,0,0.2,0.1c0.4,0.1,0.7,0.2,1.1,0.2h0.1c0.4,0.1,0.8,0.1,1.2,0.1s0.8,0,1.2-0.1h0.1
	c0.4-0.1,0.7-0.1,1.1-0.2c0.1,0,0.1,0,0.2-0.1c0.3-0.1,0.7-0.2,1-0.4c0.1,0,0.1-0.1,0.2-0.1c0.3-0.2,0.7-0.3,1-0.5
	c0,0,0.1,0,0.1-0.1c0.3-0.2,0.6-0.4,0.9-0.7l0,0c0.3-0.3,0.5-0.5,0.8-0.8l0.1-0.1c0.2-0.3,0.4-0.6,0.6-0.9c0-0.1,0.1-0.1,0.1-0.2
	c0.2-0.3,0.4-0.6,0.5-1c0,0,0,0,0-0.1C205.3,696.5,208.9,702.3,208.9,708.7z M197.9,692.7L197.9,692.7c-0.1,0.2-0.1,0.4-0.2,0.5
	c-0.1,0.2-0.2,0.4-0.3,0.5s-0.2,0.2-0.3,0.4s-0.2,0.3-0.4,0.5c-0.1,0.1-0.2,0.2-0.3,0.3s-0.3,0.3-0.4,0.4c-0.1,0.1-0.2,0.2-0.3,0.3
	c-0.2,0.1-0.3,0.2-0.5,0.3c-0.1,0.1-0.2,0.1-0.4,0.2c-0.2,0.1-0.4,0.2-0.6,0.3c-0.1,0-0.2,0.1-0.4,0.1c-0.2,0.1-0.4,0.1-0.7,0.2
	c-0.1,0-0.2,0.1-0.3,0.1c-0.3,0.1-0.7,0.1-1.1,0.1c-0.4,0-0.7,0-1.1-0.1c-0.1,0-0.2-0.1-0.3-0.1c-0.2,0-0.5-0.1-0.7-0.2
	c-0.1,0-0.3-0.1-0.4-0.1c-0.2-0.1-0.4-0.2-0.6-0.2c-0.1-0.1-0.2-0.1-0.4-0.2c-0.2-0.1-0.3-0.2-0.5-0.3c-0.1-0.1-0.2-0.2-0.3-0.3
	c-0.2-0.1-0.3-0.3-0.4-0.4c-0.1-0.1-0.2-0.2-0.3-0.3s-0.3-0.3-0.4-0.5c-0.1-0.1-0.2-0.2-0.2-0.4c-0.1-0.2-0.2-0.4-0.3-0.5
	s-0.1-0.2-0.2-0.4v-0.1c1.1-0.4,2.1-0.7,3.2-0.9c0.5-0.1,0.8-0.5,0.8-1v-2v-1.3c0-0.5-0.4-0.9-0.8-1c-8.3-1.4-14.3-8.5-14.3-16.9
	v-11.4c1-2.1,4.2-7.7,10.6-9.8c0.4-0.1,0.9-0.3,1.3-0.4c0.9,3.6,4.7,15.7,15.7,15.7c2.6,0,4.9-0.6,6.8-1.7v7.6
	c0,8.4-6,15.5-14.3,16.9c-0.5,0.1-0.8,0.5-0.8,1v1.3v2c0,0.5,0.4,0.9,0.8,1C195.7,692,196.8,692.3,197.9,692.7z M168,659.1
	c0-6.5,2.7-12.9,7.4-17.5c4.6-4.5,10.5-6.9,16.7-6.8c12.9,0.2,23.4,10.8,23.4,23.7v25.8c0,1.9-1.6,3.5-3.5,3.5h-14.3
	c0.3-0.1,0.6-0.2,0.8-0.3s0.3-0.1,0.5-0.2c0.4-0.2,0.8-0.3,1.2-0.5c0.1,0,0.2-0.1,0.3-0.1c0.5-0.2,0.9-0.5,1.4-0.8
	c0.1-0.1,0.2-0.2,0.4-0.2c0.3-0.2,0.6-0.4,0.9-0.6c0.2-0.1,0.3-0.2,0.5-0.4c0.3-0.2,0.5-0.4,0.7-0.6c0.2-0.1,0.3-0.3,0.5-0.4
	c0.2-0.2,0.4-0.4,0.6-0.6c0.2-0.2,0.3-0.3,0.5-0.5s0.4-0.4,0.6-0.7c0.1-0.2,0.3-0.4,0.4-0.5c0.2-0.2,0.3-0.5,0.5-0.7
	c0.1-0.2,0.3-0.4,0.4-0.6c0.2-0.2,0.3-0.5,0.5-0.7c0.1-0.2,0.2-0.4,0.3-0.6c0.1-0.3,0.3-0.5,0.4-0.8c0.1-0.2,0.2-0.4,0.3-0.6
	c0.1-0.3,0.2-0.5,0.3-0.8c0.1-0.2,0.2-0.4,0.2-0.6c0.1-0.3,0.2-0.6,0.3-0.9c0.1-0.2,0.1-0.4,0.2-0.6c0.1-0.3,0.1-0.6,0.2-0.9
	c0-0.2,0.1-0.4,0.1-0.6c0.1-0.3,0.1-0.7,0.1-1.1c0-0.2,0-0.4,0.1-0.5c0-0.5,0.1-1.1,0.1-1.6v-9c0-0.2,0-0.4,0-0.6v-0.1V660
	c0-0.4-0.3-0.7-0.6-0.9c-0.4-0.1-0.8-0.1-1.1,0.2c-1.1,1-2.5,1.7-4,2.1c-0.9,0.2-2,0.3-3,0.3c-11.1,0-13.9-14.9-13.9-15.1
	c-0.1-0.5-0.6-0.9-1.2-0.8c-9.1,1.6-13.3,9.4-14.4,11.7c-0.1,0.1-0.1,0.3-0.1,0.4v11.7c0,0.5,0,1.1,0.1,1.6c0,0.2,0,0.4,0.1,0.5
	c0,0.4,0.1,0.7,0.1,1.1c0,0.2,0.1,0.4,0.1,0.6c0.1,0.3,0.1,0.6,0.2,0.9c0.1,0.2,0.1,0.4,0.2,0.6c0.1,0.3,0.2,0.6,0.3,0.9
	c0.1,0.2,0.2,0.4,0.2,0.6c0.1,0.3,0.2,0.5,0.3,0.8c0.1,0.2,0.2,0.4,0.3,0.6c0.1,0.3,0.3,0.5,0.4,0.8c0.1,0.2,0.2,0.4,0.3,0.6
	c0.1,0.2,0.3,0.5,0.5,0.7c0.1,0.2,0.3,0.4,0.4,0.6c0.2,0.2,0.3,0.5,0.5,0.7c0.1,0.2,0.3,0.4,0.4,0.5c0.2,0.2,0.4,0.4,0.6,0.7
	c0.1,0.2,0.3,0.3,0.5,0.5s0.4,0.4,0.6,0.6c0.2,0.1,0.3,0.3,0.5,0.4c0.2,0.2,0.5,0.4,0.7,0.6c0.2,0.1,0.3,0.2,0.5,0.4
	c0.3,0.2,0.6,0.4,0.9,0.6c0.1,0.1,0.2,0.2,0.4,0.2c0.4,0.3,0.9,0.5,1.4,0.8c0.1,0,0.2,0.1,0.3,0.1c0.4,0.2,0.8,0.4,1.2,0.5
	c0.2,0.1,0.3,0.1,0.5,0.2c0.3,0.1,0.6,0.2,0.8,0.3h-14.3c-1.9,0-3.5-1.6-3.5-3.5v-25H168z"/>
<path class="st0" d="M170.6,255.5v-15.2c0-6-0.9-11.8-2.6-17.4c2.3,0.4,4.7,0.6,7,0.6c3.4,0,6.8-0.4,10.2-1.2
	c19.3-4.4,34-21.3,35.7-40.9c1.3-15.9-5.4-31.2-18.2-40.8c-7.1-5.4-11.3-14.3-11.3-23.8V81.4c0-44.3-36-80.8-80.3-81.4
	C89.8-0.2,69.3,8,53.7,23.5c-16,15.8-25.2,37.6-25.2,59.8v33.8c0,9.7-4.2,18.8-11.2,24.4C4.8,151.5-1.6,167,0.3,183
	c2.4,20.3,18.2,36.8,38.4,39.9c4.4,0.7,8.8,0.7,13.2,0.2c-1.7,5.5-2.5,11.3-2.5,17.2v15.2c0,1.7,1.4,3.2,3.2,3.2h115
	C169.2,258.7,170.6,257.2,170.6,255.5z M54.3,216.2c-4.8,1-9.7,1.2-14.7,0.4c-17.2-2.7-31.1-17.2-33.1-34.4
	c-1.6-13.8,3.9-27.2,14.7-35.8c8.5-6.8,13.6-17.8,13.6-29.4V83.2c0-20.5,8.5-40.7,23.3-55.3C72.5,13.7,91.4,5.9,111,6.3
	c40.9,0.5,74.1,34.2,74.1,75.1v35.4c0,11.5,5.2,22.3,13.9,28.9l0,0c11,8.3,16.8,21.4,15.7,35.2c-1.4,16.9-14.1,31.4-30.8,35.2
	c-6.1,1.4-12.3,1.3-18.4-0.2c0-0.1-0.1-0.2-0.1-0.2c-1.4-3.2-3.1-6.2-5-9c-0.3-0.5-0.6-0.9-1-1.4c-0.6-0.9-1.3-1.8-2-2.7
	c-0.4-0.5-0.8-1-1.2-1.5c-0.7-0.8-1.5-1.7-2.2-2.5c-0.4-0.4-0.8-0.8-1.2-1.2c-1.1-1.1-2.3-2.2-3.5-3.2c-0.5-0.4-1-0.8-1.5-1.2
	c-0.8-0.7-1.7-1.3-2.5-1.9c-0.5-0.4-1.1-0.8-1.6-1.1c-0.9-0.6-1.9-1.2-2.9-1.8c-0.5-0.3-1-0.6-1.5-0.9c-1.5-0.8-3-1.6-4.6-2.3
	c-3.8-1.7-7.8-3-11.8-3.9v-5.3c0.2,0,0.4-0.1,0.7-0.2c1.3-0.3,2.7-0.6,4-1c0.9-0.3,1.8-0.6,2.7-0.9c0.6-0.2,1.2-0.4,1.7-0.6
	c1.1-0.4,2.2-0.9,3.2-1.4c0.3-0.1,0.6-0.3,0.9-0.4c1.2-0.6,2.4-1.2,3.6-1.9c0,0,0.1,0,0.1-0.1c18.7-10.5,30.9-30.3,30.9-52.8v-35
	c0-1.7-1.4-3.2-3.2-3.2c-1.3,0-2.5-0.1-3.7-0.3c-0.1,0-0.3-0.1-0.4-0.1c-1.2-0.2-2.3-0.5-3.3-0.8c-0.4-0.1-0.8-0.3-1.2-0.5
	c-0.7-0.3-1.4-0.6-2.1-0.9c-0.4-0.2-0.8-0.4-1.2-0.6c-0.7-0.4-1.3-0.8-1.9-1.3c-0.3-0.2-0.6-0.4-0.9-0.6c-4.7-3.7-7.7-8.9-9.7-13.5
	c-0.6-1.3-1-2.5-1.3-3.5c-0.3-0.9-0.5-1.6-0.6-2c0-0.1,0-0.2-0.1-0.2c-0.3-1.3-1.3-2.2-2.6-2.4s-2.6,0.4-3.2,1.6
	c-0.1,0.1-7.8,13.2-25.4,13.2c-17.1,0-22.7-12.4-23-12.9c0-0.1-0.1-0.2-0.2-0.3s-0.1-0.2-0.2-0.3c-0.2-0.2-0.4-0.4-0.6-0.6l0,0
	c-0.5-0.4-1.1-0.6-1.8-0.6c-0.1,0-0.1,0-0.2,0h-0.1c0,0,0,0-0.1,0s-0.2,0-0.2,0c-0.2,0-0.3,0-0.5,0.1c-0.1,0-0.1,0-0.2,0
	s-0.1,0.1-0.2,0.1l0,0c-0.1,0-0.2,0.1-0.3,0.2c-0.2,0.1-0.4,0.3-0.6,0.5c-0.1,0.1-0.2,0.2-0.2,0.2c-0.2,0.3-0.4,0.6-0.6,1
	c-0.5,1.4-1,2.7-1.6,3.9c-0.2,0.5-0.5,0.9-0.7,1.4l0,0l-0.3,0.6c-0.3,0.5-0.5,1-0.8,1.4c-0.2,0.3-0.4,0.6-0.6,1l0,0l-0.4,0.5l0,0
	l-0.4,0.6c-0.2,0.3-0.4,0.7-0.7,1l0,0c-0.1,0.1-0.2,0.2-0.3,0.3L74.7,65l0,0l-0.2,0.2l0,0c-0.3,0.4-0.7,0.8-1,1.2
	c-0.2,0.2-0.3,0.3-0.5,0.5l-0.4,0.3c-0.6,0.6-1.2,1.2-1.8,1.8l-0.7,0.8c-0.5,0.4-1.1,0.9-1.6,1.3l-0.8,0.6l0,0l-0.4,0.2
	c-0.4,0.3-0.8,0.5-1.2,0.8c-0.2,0.1-0.4,0.2-0.6,0.3l-0.4,0.2l0,0l-0.4,0.2c-0.2,0.1-0.5,0.2-0.7,0.4c-0.1,0.1-0.3,0.1-0.5,0.2
	l-0.3,0.1c-0.5,0.2-0.9,0.4-1.4,0.6c-0.2,0.1-0.4,0.2-0.7,0.3l-0.4,0.1c-0.5,0.2-1,0.4-1.5,0.6l0,0l0,0c-0.6,0.2-1.1,0.3-1.6,0.5
	l0,0l0,0l-0.4,0.1c-0.4,0.1-0.8,0.2-1.3,0.3l0,0c-0.1,0-0.3,0.1-0.3,0.1l0,0h-0.1l0,0l-0.4,0.1l-0.3,0.1L54,77.2l-0.3,0.1L53,77.4
	c-0.2,0-0.4,0.1-0.5,0.1s-0.2,0-0.2,0c-1.2,0.1-2.3,0.9-2.7,2c-0.1,0.4-0.2,0.8-0.2,1.2v36c0,24.6,14.7,46.1,36.4,55.5
	c0.1,0.1,0.3,0.1,0.4,0.2c0.8,0.4,1.7,0.7,2.5,1c0.7,0.3,1.4,0.5,2.1,0.7s1.3,0.4,2,0.6c1.3,0.4,2.7,0.8,4.1,1.1
	c0.1,0,0.2,0.1,0.3,0.1v5.2c-4,0.9-7.9,2.2-11.8,3.9c-1.6,0.7-3.2,1.5-4.7,2.4c-0.3,0.2-0.6,0.4-0.9,0.6c-1.3,0.8-2.6,1.6-3.8,2.4
	c-0.2,0.1-0.4,0.3-0.6,0.4c-6.1,4.3-11.3,9.6-15.5,15.7c0,0,0,0,0,0.1c-2,3-3.7,6.1-5.2,9.3C54.5,215.9,54.4,216.1,54.3,216.2z
	 M82.8,193.4c0.3-0.2,0.6-0.3,0.9-0.5c0.4-0.2,0.8-0.4,1.1-0.6c0,0.1,0.1,0.1,0.1,0.1c0.5,1.1,1,2.1,1.6,3.1
	c0.1,0.2,0.2,0.3,0.3,0.5c0.6,1,1.3,2,2,2.9c0.1,0.1,0.2,0.2,0.3,0.3c0.8,0.9,1.6,1.8,2.5,2.6c0,0,0,0,0.1,0
	c0.9,0.8,1.9,1.5,2.9,2.2c0.1,0.1,0.2,0.2,0.3,0.2c1,0.6,2,1.2,3,1.7c0.2,0.1,0.3,0.2,0.5,0.3c1,0.5,2.1,0.9,3.2,1.3
	c0.2,0.1,0.4,0.1,0.6,0.2c1,0.3,2,0.6,3.1,0.7c-1.8,2.5-5.6,5.6-14,5.6c-11.5,0-16.4-9.6-18-13.7C76.2,197.7,79.4,195.4,82.8,193.4z
	 M95.1,188.1c0.3-0.1,0.7-0.2,1-0.3c1.5-0.4,3.1-0.8,4.6-1c1.5-0.3,2.6-1.6,2.6-3.1v-10.4c0-1.5-1.1-2.9-2.6-3.1
	c-1.4-0.2-2.8-0.6-4.2-0.9c-0.5-0.1-1-0.3-1.6-0.4c-0.8-0.2-1.6-0.5-2.4-0.8c-0.7-0.2-1.3-0.5-2-0.7c-0.4-0.2-0.9-0.4-1.3-0.5
	c-14-5.8-25.3-17.4-30.5-32.1v-0.1c-1-2.9-1.8-5.8-2.3-8.7l-0.1-0.9c-0.2-1.2-0.4-2.4-0.5-3.6c-0.1-1.6-0.2-3.2-0.2-4.8V83.4
	c6.3-1.2,20.9-5.6,29.1-21.8c0.2,0.2,0.4,0.4,0.6,0.6c0.4,0.4,0.7,0.8,1.1,1.2c0.2,0.2,0.5,0.4,0.7,0.6c0.4,0.4,0.9,0.9,1.4,1.3
	c0.3,0.2,0.6,0.4,0.8,0.6c0.5,0.4,1,0.8,1.6,1.2c0.3,0.2,0.7,0.4,1,0.6c0.6,0.4,1.2,0.8,1.8,1.1c0.4,0.2,0.9,0.4,1.4,0.7
	c0.6,0.3,1.2,0.6,1.9,0.9c0.6,0.2,1.3,0.4,1.9,0.6s1.2,0.4,1.9,0.6c0.8,0.2,1.7,0.3,2.5,0.5c0.6,0.1,1.1,0.2,1.8,0.3
	c1.5,0.2,3.1,0.3,4.8,0.3s3.3-0.1,4.9-0.3c0.5-0.1,1-0.2,1.5-0.3c1-0.2,2-0.3,3-0.5c0.6-0.1,1.1-0.3,1.6-0.5
	c0.8-0.2,1.6-0.4,2.3-0.7c0.6-0.2,1.1-0.5,1.7-0.7c0.6-0.3,1.3-0.5,1.8-0.8c0.7-0.3,1.3-0.7,1.9-1.1c0.4-0.2,0.9-0.5,1.2-0.7
	c0.7-0.4,1.3-0.9,2-1.4c0.2-0.2,0.5-0.3,0.7-0.5c0.7-0.6,1.3-1.1,2-1.7c0.1-0.1,0.2-0.2,0.3-0.3c0.6-0.6,1.2-1.1,1.7-1.7
	c0.1-0.1,0.1-0.1,0.2-0.2c0.1,0.3,0.2,0.5,0.3,0.8c2.4,5.6,7.3,14.3,16.2,19c0.2,0.1,0.3,0.2,0.5,0.3c0.6,0.3,1.1,0.6,1.7,0.8
	c0.3,0.1,0.6,0.2,0.9,0.3c0.5,0.2,1,0.4,1.5,0.5c0.4,0.1,0.8,0.2,1.2,0.3c0.5,0.1,1,0.3,1.5,0.4c0.4,0.1,0.9,0.2,1.3,0.3
	c0.3,0,0.5,0.1,0.7,0.1c0.5,0.1,1,0.1,1.5,0.2v32.1c0,1.6-0.1,3.2-0.2,4.8c-0.1,1.4-0.3,2.8-0.6,4.1l-0.1,0.5
	c-3,16.8-13.6,30.9-28.2,38.6c-0.2,0.1-0.4,0.2-0.5,0.3c-1,0.5-2,1-3,1.4c-0.4,0.2-0.9,0.4-1.3,0.5c-0.9,0.4-1.7,0.7-2.6,1
	c-0.7,0.3-1.5,0.5-2.2,0.7s-1.3,0.4-2,0.6c-1.5,0.4-2.9,0.7-4.5,1c-1.5,0.3-2.6,1.6-2.6,3.1v10.4c0,1.5,1.1,2.9,2.6,3.1
	c1.5,0.3,3.1,0.6,4.6,1c0.3,0.1,0.7,0.2,1,0.3c1.5,0.4,3,0.9,4.4,1.5c0,0,0.1,0,0.1,0.1s-0.1,0.2-0.1,0.4c-0.2,0.4-0.4,0.8-0.6,1.2
	c-0.3,0.6-0.6,1.1-0.9,1.7c-0.3,0.4-0.5,0.8-0.8,1.1c-0.4,0.5-0.8,1-1.2,1.5c-0.3,0.3-0.6,0.7-1,1c-0.4,0.4-0.9,0.9-1.4,1.3
	c-0.4,0.3-0.7,0.6-1.1,0.8c-0.5,0.4-1,0.7-1.6,1c-0.4,0.2-0.8,0.5-1.2,0.7c-0.6,0.3-1.2,0.6-1.8,0.8c-0.4,0.2-0.8,0.3-1.2,0.5
	c-0.7,0.2-1.4,0.4-2.1,0.5c-0.4,0.1-0.7,0.2-1.1,0.2c-1.1,0.2-2.2,0.3-3.3,0.3s-2.2-0.1-3.3-0.3c-0.4-0.1-0.7-0.2-1.1-0.2
	c-0.7-0.2-1.4-0.3-2.1-0.5c-0.4-0.1-0.8-0.3-1.2-0.5c-0.6-0.2-1.2-0.5-1.8-0.8c-0.4-0.2-0.8-0.4-1.2-0.7c-0.5-0.3-1.1-0.7-1.6-1
	c-0.4-0.3-0.7-0.5-1.1-0.8c-0.5-0.4-0.9-0.8-1.4-1.3c-0.3-0.3-0.6-0.7-0.9-1c-0.4-0.5-0.8-1-1.2-1.5c-0.3-0.4-0.5-0.7-0.8-1.1
	c-0.4-0.6-0.7-1.1-1-1.7c-0.2-0.4-0.4-0.8-0.6-1.2c-0.1-0.1-0.1-0.3-0.1-0.4c0.1,0,0.1,0,0.2-0.1C92.2,189,93.7,188.5,95.1,188.1z
	 M117.6,207.8c0.2-0.1,0.4-0.1,0.6-0.2c1.1-0.3,2.2-0.8,3.2-1.2c0.2-0.1,0.4-0.2,0.5-0.3c1-0.5,2.1-1.1,3-1.7
	c0.1-0.1,0.2-0.2,0.3-0.2c1-0.7,1.9-1.4,2.8-2.2c0,0,0.1,0,0.1-0.1c0.9-0.8,1.7-1.7,2.5-2.6c0.1-0.1,0.2-0.2,0.3-0.4
	c0.7-0.9,1.4-1.8,2-2.8c0.1-0.2,0.2-0.3,0.3-0.5c0.6-1,1.1-2,1.6-3.1c0-0.1,0.1-0.1,0.1-0.2c0.4,0.2,0.7,0.4,1.1,0.6
	c0.3,0.2,0.6,0.3,0.9,0.5c3.3,1.9,6.3,4.2,9.2,6.7c-1.4,3.9-6.2,14.1-17.9,14.1c-8.3,0-12.1-3.1-13.9-5.6
	C115.5,208.4,116.6,208.1,117.6,207.8z M164.3,252.3H55.6v-12.1c0-7.2,1.5-14.1,4.1-20.6c1.3-3,2.8-6,4.6-8.7c0-0.1,0.1-0.1,0.1-0.2
	c1.3-1.9,2.7-3.7,4.1-5.4c3.4,6.9,10.7,15.1,22.8,15.1c9.7,0,15.4-3.6,18.6-7.5c3.1,3.9,8.8,7.5,18.4,7.5c12.2,0,19.4-8.5,22.7-15.5
	c3.8,4.4,6.9,9.3,9.1,14.6c2.7,6.4,4.2,13.4,4.2,20.6L164.3,252.3L164.3,252.3z"/>
</svg>
