<?xml version="1.0" encoding="utf-8"?>
<!-- Generator: Adobe Illustrator 22.1.0, SVG Export Plug-In . SVG Version: 6.00 Build 0)  -->
<svg version="1.1" id="Layer_1" xmlns="http://www.w3.org/2000/svg" xmlns:xlink="http://www.w3.org/1999/xlink" x="0px" y="0px"
	 viewBox="0 0 185 215" style="enable-background:new 0 0 185 215;" xml:space="preserve">
<style type="text/css">
	.st0{fill:#AED477;}
</style>
<path class="st0" d="M34,76.7h1c-0.8,4.6-0.2,9.3,1.9,13.5c-0.8,1.9-1.3,4-1.3,6.2c0,6.2,3.8,11.9,9.4,14.2
	c2.4,19,16.8,34.7,35.6,38.7v3.9c-3,0.7-5.9,1.6-8.9,2.9c-16.4,7.4-27.1,23.7-27.1,41.6v11.5c0,1.3,1.1,2.4,2.4,2.4h8.5h70.1h8
	c1.3,0,2.4-1.1,2.4-2.4v-11.5c0-17.9-10.7-34.3-27.1-41.6c-2.8-1.3-5.9-2.3-8.9-2.9v-3.9c18.8-4.1,33.1-19.7,35.6-38.7
	c5.6-2.4,9.4-8.1,9.4-14.2c0-2-0.4-4-1.1-5.9c2.2-4.3,2.9-9.1,2-13.8H169c3.7,0,6.8-3.1,6.8-6.8c0-3.7-3.1-6.8-6.8-6.8h-24.7
	c-0.9-23.8-17.3-44.4-40.5-50.4c-1.7-0.4-3.4-0.7-5.1-1.1c0.3-0.7,0.5-1.4,0.5-2.1c0-3.4-3.6-6.2-8.1-6.2S82.8,6,82.8,9.5
	c0,0.7,0.2,1.3,0.4,2c-1.5,0.2-3,0.4-4.5,0.7l0,0c-23.9,5.2-41.5,26.4-42.5,50.9H34c-3.7,0-6.8,3.1-6.8,6.8
	C27.2,73.6,30.2,76.7,34,76.7z M44.6,76.7v5.6c-1.7,0.8-3.3,1.9-4.6,3.2c-0.8-2.8-1-5.9-0.3-8.8H44.6z M49.4,197.9
	c0-15.1,8.5-29.1,22-36.1l0,0c0.4,1.1,1,2,1.5,2.9c-0.1,0.1-0.2,0.2-0.3,0.2c-0.3,0.2-0.7,0.5-1.1,0.8c-0.6,0.4-1.1,0.8-1.5,1.3
	c-0.3,0.3-0.7,0.7-1,0.9c-0.5,0.4-0.9,0.9-1.4,1.4c-0.3,0.3-0.7,0.7-0.9,1.1c-0.4,0.5-0.8,1-1.2,1.5c-0.2,0.3-0.6,0.7-0.8,1.1
	c-0.4,0.5-0.7,1.1-1.1,1.6c-0.2,0.4-0.5,0.7-0.7,1.1c-0.3,0.6-0.7,1.2-1.1,1.8c-0.2,0.3-0.4,0.7-0.6,1.1c-0.4,0.7-0.7,1.5-1.1,2.2
	c-0.2,0.2-0.2,0.6-0.4,0.8c-0.5,1-0.9,2-1.3,3.1c-0.1,0.2-0.2,0.5-0.2,0.7c-0.3,0.8-0.6,1.6-0.8,2.4c-0.2,0.4-0.2,0.7-0.3,1.1
	c-0.2,0.7-0.4,1.3-0.6,2c-0.1,0.4-0.2,0.8-0.3,1.2c-0.2,0.7-0.3,1.3-0.5,1.9c-0.1,0.4-0.2,0.8-0.2,1.2c-0.2,0.7-0.2,1.2-0.4,1.9
	c-0.1,0.4-0.2,0.7-0.2,1.1c-0.1,0.7-0.2,1.3-0.3,1.9c-0.1,0.3-0.1,0.7-0.2,1.1c-0.1,0.7-0.2,1.3-0.3,2c0,0.2-0.1,0.6-0.1,0.8
	c-0.1,0.7-0.2,1.5-0.2,2.2c0,0.2,0,0.3-0.1,0.4c0,0.1,0,0.2,0,0.3h-4v-9.1H49.4z M58.1,206.9c0-0.2,0.1-0.5,0.1-0.7
	c0.1-0.9,0.2-1.8,0.3-2.8c0.1-0.5,0.2-1,0.2-1.5c0.1-0.4,0.2-0.8,0.2-1.2c0.1-0.5,0.2-1.1,0.2-1.5c0.1-0.4,0.2-0.8,0.2-1.2
	c0.1-0.5,0.2-1.1,0.3-1.5c0.1-0.4,0.2-0.8,0.3-1.2c0.2-0.6,0.2-1.1,0.4-1.6c0.1-0.4,0.2-0.8,0.3-1.3c0.2-0.6,0.3-1.1,0.5-1.6
	c0.2-0.4,0.2-0.8,0.4-1.2c0.2-0.6,0.4-1.1,0.6-1.7c0.2-0.4,0.2-0.8,0.4-1.1c0.2-0.6,0.5-1.2,0.7-1.8c0.2-0.3,0.2-0.7,0.4-1.1
	c0.3-0.7,0.7-1.5,1.1-2.2c0.1-0.2,0.2-0.3,0.2-0.6c0.5-0.9,1-1.8,1.5-2.6c0.2-0.2,0.3-0.5,0.5-0.7c0.4-0.6,0.7-1.2,1.1-1.7
	c0.2-0.3,0.5-0.6,0.7-0.9c0.4-0.5,0.7-1,1.1-1.4c0.2-0.3,0.6-0.6,0.8-0.9c0.4-0.4,0.8-0.8,1.2-1.2c0.3-0.3,0.7-0.6,1-0.8
	c0.4-0.4,0.8-0.7,1.3-1.1c0.3-0.2,0.7-0.5,1.1-0.7c0.2-0.2,0.4-0.2,0.6-0.3c1.9,1.9,4.2,3.3,6.6,4.3l0,0c0.6,0.2,1.1,0.4,1.7,0.6
	c0.1,0,0.2,0.1,0.3,0.1c0.5,0.2,1,0.2,1.5,0.3c0.2,0,0.3,0.1,0.5,0.1c0.5,0.1,0.9,0.2,1.4,0.2c0.2,0,0.3,0.1,0.5,0.1
	c0.7,0.1,1.2,0.1,1.9,0.1c0.7,0,1.3,0,1.9-0.1c0.2,0,0.3-0.1,0.6-0.1c0.5-0.1,0.9-0.1,1.4-0.2c0.2,0,0.4-0.1,0.6-0.1
	c0.5-0.1,0.9-0.2,1.4-0.3c0.2,0,0.2-0.1,0.4-0.2c3.2-1,6-2.8,8.4-5.1c0.2,0.1,0.4,0.2,0.6,0.3c0.3,0.2,0.7,0.5,1.1,0.7
	c0.5,0.3,0.9,0.7,1.3,1.1c0.3,0.2,0.7,0.6,1,0.8c0.4,0.4,0.8,0.8,1.2,1.2c0.3,0.3,0.6,0.6,0.8,0.9c0.4,0.5,0.7,0.9,1.1,1.4
	c0.2,0.3,0.5,0.6,0.7,0.9c0.4,0.6,0.8,1.1,1.1,1.7c0.2,0.2,0.3,0.5,0.5,0.8c0.5,0.8,1,1.7,1.5,2.6c0.1,0.2,0.2,0.5,0.3,0.7
	c0.3,0.7,0.7,1.4,1,2c0.2,0.4,0.3,0.7,0.5,1.1c0.2,0.6,0.5,1.1,0.7,1.7c0.2,0.4,0.3,0.8,0.5,1.2c0.2,0.6,0.4,1.1,0.6,1.6
	c0.2,0.4,0.2,0.9,0.4,1.3c0.2,0.6,0.3,1.1,0.5,1.6c0.1,0.4,0.2,0.9,0.3,1.3c0.2,0.5,0.2,1.1,0.4,1.5c0.1,0.4,0.2,0.9,0.3,1.3
	c0.1,0.5,0.2,1.1,0.3,1.5c0.1,0.4,0.2,0.9,0.2,1.3c0.1,0.5,0.2,1,0.2,1.5c0.1,0.4,0.2,0.8,0.2,1.2c0.1,0.5,0.2,1,0.2,1.4
	c0.2,1.2,0.3,2.4,0.5,3.6L58.1,206.9L58.1,206.9z M131.2,197.9v9.1h-3.4c0-0.1,0-0.2,0-0.3c0-0.2-0.1-0.4-0.1-0.7
	c-0.1-0.7-0.2-1.4-0.2-2c0-0.3-0.1-0.6-0.2-0.9c-0.1-0.7-0.2-1.3-0.3-2c-0.1-0.3-0.1-0.7-0.2-1.1c-0.1-0.7-0.2-1.2-0.3-1.9
	c-0.1-0.4-0.2-0.8-0.2-1.2c-0.2-0.7-0.2-1.3-0.4-1.9c-0.1-0.4-0.2-0.8-0.2-1.2c-0.2-0.7-0.3-1.3-0.5-2c-0.1-0.4-0.2-0.8-0.3-1.2
	c-0.2-0.7-0.4-1.4-0.7-2.1c-0.1-0.3-0.2-0.7-0.3-1.1c-0.2-0.8-0.6-1.7-0.9-2.5c-0.1-0.2-0.2-0.4-0.2-0.6c-0.4-1.1-0.8-2.1-1.3-3.1
	c-0.1-0.2-0.2-0.5-0.4-0.7c-0.3-0.7-0.7-1.5-1.1-2.3c-0.2-0.3-0.4-0.7-0.6-1.1c-0.3-0.7-0.7-1.2-1.1-1.9c-0.2-0.4-0.5-0.7-0.7-1.1
	c-0.4-0.6-0.7-1.1-1.1-1.6c-0.2-0.4-0.6-0.7-0.9-1.1c-0.4-0.5-0.8-1-1.2-1.5c-0.3-0.3-0.7-0.7-1-1.1c-0.4-0.5-0.9-0.9-1.4-1.3
	c-0.3-0.3-0.7-0.7-1.1-1c-0.5-0.4-1.1-0.8-1.5-1.2c-0.4-0.2-0.7-0.6-1.1-0.8c-0.1-0.1-0.2-0.2-0.3-0.2c0.5-0.8,1-1.7,1.4-2.7l0,0
	C122.7,168.8,131.2,182.7,131.2,197.9z M132.7,106.7c-0.9,0.2-1.5,1.1-1.7,2c-1.7,18.3-15.6,33.3-33.8,36.4c-1.1,0.2-2,1.2-2,2.4
	v7.8c0,1.1,0.8,2.1,2,2.4c2.6,0.4,5.1,1.1,7.6,2.1c-0.1,0.2-0.2,0.4-0.3,0.7c-0.1,0.2-0.2,0.4-0.3,0.7c-0.5,0.9-1.1,1.8-1.7,2.6l0,0
	c-0.7,0.9-1.6,1.8-2.5,2.5l0,0c-0.5,0.3-0.9,0.7-1.4,1c-0.1,0-0.2,0.1-0.2,0.1c-0.7,0.4-1.4,0.7-2.1,1.1c-0.3,0.2-0.7,0.3-1.1,0.4
	c-0.2,0.1-0.6,0.2-0.8,0.2c-0.4,0.1-0.9,0.2-1.3,0.3c-0.2,0.1-0.5,0.1-0.7,0.1c-0.7,0.1-1.4,0.2-2.1,0.2s-1.4-0.1-2.1-0.2
	c-0.2,0-0.5-0.1-0.7-0.1c-0.5-0.1-0.9-0.2-1.3-0.3c-0.2-0.1-0.6-0.2-0.8-0.2c-0.4-0.2-0.7-0.2-1.1-0.4c-0.7-0.2-1.3-0.6-1.9-0.9
	c-0.1-0.1-0.2-0.2-0.3-0.2c-0.5-0.2-0.9-0.6-1.3-0.9l0,0c-0.9-0.7-1.7-1.5-2.5-2.4l0,0c-0.7-0.8-1.3-1.7-1.8-2.7
	c-0.2-0.2-0.2-0.5-0.3-0.7c-0.1-0.2-0.2-0.5-0.3-0.7c2.5-1,5.1-1.7,7.6-2.1c1.1-0.2,2-1.2,2-2.4v-7.8c0-1.1-0.8-2.1-2-2.4
	C65.3,142,51.4,127,49.7,108.7c-0.1-1-0.7-1.8-1.7-2c-4.5-1.4-7.6-5.6-7.6-10.3s3-8.8,7.5-10.2c1-0.3,1.6-1.2,1.6-2.3v-7.2h21.3
	c0.9,9.8,7,18.3,16.2,22.1l10.3,4.3c0.3,0.2,0.7,0.2,0.9,0.2c0.8,0,1.5-0.4,2-1.1c0.7-1,0.5-2.3-0.4-3c-0.1-0.1-5.5-5.2-6.3-10.9
	c3.3,2.4,8.5,5,16,3.7c1-0.2,1.7-0.9,2-1.8c0.2-0.9-0.2-1.9-0.9-2.4c-0.1-0.1-6.3-4.7-4.7-11.1h25.6v7.2c0,1.1,0.7,2,1.6,2.3
	c4.5,1.5,7.5,5.5,7.5,10.2C140.3,101.1,137.1,105.3,132.7,106.7z M103.6,87.5c-6.7-0.8-9.9-5.5-10.1-5.7c-0.5-0.7-1.4-1.1-2.3-1.1
	c-0.9,0.1-1.6,0.7-2,1.5c-1.8,4.7-0.4,9.4,1.5,13l-2.1-0.9c-7.4-3.1-12.4-9.9-13.2-17.7h25.3C100.2,81,101.7,84.7,103.6,87.5z
	 M140.7,85.8c-1.4-1.4-2.9-2.6-4.8-3.4v-5.6h5.1C141.8,79.8,141.6,82.8,140.7,85.8z M139.7,63.1h-10.4c0-0.1,0-0.2,0-0.2
	c0-0.2-0.1-0.5-0.1-0.8c0-0.2,0-0.3-0.1-0.5c-0.1-0.4-0.1-0.8-0.2-1.3c0-0.1,0-0.2-0.1-0.4c-0.1-0.4-0.1-0.8-0.2-1.2
	c0-0.2-0.1-0.3-0.1-0.5c-0.1-0.6-0.2-1.1-0.3-1.7c0-0.1-0.1-0.2-0.1-0.3c-0.1-0.5-0.2-1.1-0.3-1.6c-0.1-0.2-0.1-0.4-0.2-0.6
	c-0.2-0.7-0.3-1.4-0.5-2.1c0-0.1-0.1-0.2-0.1-0.3c-0.2-0.7-0.3-1.3-0.6-2c-0.1-0.2-0.2-0.4-0.2-0.7c-0.2-0.8-0.5-1.6-0.8-2.4
	c0-0.1-0.1-0.2-0.1-0.2c-0.2-0.7-0.6-1.5-0.8-2.4c-0.1-0.2-0.2-0.5-0.2-0.7c-0.3-0.9-0.7-1.8-1.1-2.7c0-0.1-0.1-0.2-0.1-0.2
	c-0.4-0.9-0.8-1.7-1.2-2.6c-0.1-0.2-0.2-0.5-0.3-0.7c-0.5-1-1-1.9-1.5-2.8l-0.1-0.1c-0.5-1-1.1-1.9-1.6-2.8
	c-0.2-0.2-0.3-0.5-0.4-0.7c-0.6-1-1.2-2-1.9-3l0,0c-0.7-1-1.4-2-2.1-3c-0.2-0.2-0.4-0.5-0.6-0.8c-0.7-1-1.5-2-2.3-3l-0.1-0.1
	C127.7,28.1,138.9,44.4,139.7,63.1z M57.7,63.1c0-0.4,0.1-0.8,0.2-1.3c0-0.1,0-0.2,0-0.2c0.1-0.5,0.2-1.1,0.2-1.6l0,0
	c0.1-0.6,0.2-1.1,0.3-1.8c0-0.1,0.1-0.2,0.1-0.3c0.1-0.7,0.2-1.3,0.4-2c0-0.1,0.1-0.2,0.1-0.3c0.2-0.7,0.3-1.4,0.5-2
	c0-0.1,0.1-0.2,0.1-0.3c0.2-0.7,0.4-1.5,0.7-2.4c0.1-0.2,0.1-0.3,0.2-0.5c0.2-0.8,0.5-1.7,0.8-2.5c0-0.1,0.1-0.2,0.1-0.2
	c0.3-0.8,0.6-1.6,0.9-2.5c0.1-0.2,0.2-0.3,0.2-0.5c0.3-0.9,0.7-1.8,1.1-2.8c0.1-0.2,0.2-0.4,0.2-0.6c0.4-1,0.9-2,1.4-2.9
	c0,0,0-0.1,0.1-0.1c0.5-1,1.1-2,1.6-3c0.2-0.2,0.2-0.5,0.4-0.7c0.6-1,1.1-2,1.8-3c0.2-0.2,0.2-0.4,0.4-0.6c0.6-1,1.2-1.9,1.9-2.8
	c0.1-0.2,0.2-0.3,0.3-0.5c0.7-1.1,1.5-2,2.3-3.1c0.2-0.2,0.4-0.5,0.6-0.7c0.8-1.1,1.7-2,2.6-3.1c0.2-0.2,0.3-0.3,0.5-0.5
	c0.8-0.9,1.7-1.9,2.6-2.8c0.2-0.2,0.2-0.3,0.4-0.4c7.1-1.4,14.5-1.3,21.4,0.4c0.1,0.1,0.2,0.2,0.3,0.3c1,1,1.9,2,2.7,3
	c0.1,0.2,0.2,0.2,0.3,0.4c0.9,1.1,1.8,2.1,2.6,3.2c0.2,0.2,0.3,0.4,0.5,0.6c0.8,1.1,1.6,2.1,2.4,3.2c0.1,0.1,0.1,0.2,0.2,0.2
	c0.7,1.1,1.4,2,2,3c0.1,0.2,0.2,0.3,0.3,0.5c0.7,1.1,1.2,2,1.8,3.1c0.1,0.2,0.2,0.3,0.3,0.5c1.1,2.1,2.2,4.2,3,6.1
	c0.1,0.2,0.2,0.3,0.2,0.5c0.4,1,0.8,1.9,1.1,2.8c0.1,0.2,0.1,0.2,0.2,0.4c0.3,0.9,0.7,1.8,1,2.6c0,0.1,0.1,0.2,0.1,0.2
	c0.3,0.9,0.6,1.7,0.8,2.6c0.1,0.2,0.1,0.3,0.2,0.4c0.2,0.8,0.5,1.6,0.7,2.4c0,0.1,0,0.2,0.1,0.2c0.2,0.7,0.4,1.5,0.5,2.2
	c0,0.1,0.1,0.2,0.1,0.2c0.2,0.7,0.3,1.4,0.4,2c0,0.1,0,0.2,0.1,0.3c0.2,1.3,0.4,2.4,0.6,3.4c0,0.1,0,0.2,0,0.2
	c0.1,0.5,0.1,0.9,0.2,1.3c0,0,0,0,0,0.1L57.7,63.1L57.7,63.1z M91.1,8.1c2.2,0,3.3,1.1,3.3,1.4c0,0.3-1.2,1.4-3.3,1.4
	c-2.2,0-3.3-1.1-3.3-1.4C87.7,9.2,88.9,8.1,91.1,8.1z M71.8,19.4c-0.1,0.1-0.1,0.1-0.1,0.2c-0.9,1.1-1.7,2.1-2.5,3.2
	c-0.2,0.2-0.2,0.4-0.4,0.6c-0.7,1-1.4,1.9-2,2.8c-0.1,0.2-0.2,0.3-0.3,0.5c-0.7,1.1-1.4,2-2,3.1c-0.2,0.2-0.2,0.4-0.3,0.6
	c-0.6,0.9-1.1,1.8-1.5,2.7c-0.1,0.2-0.2,0.3-0.2,0.5c-0.6,1-1.1,2-1.5,2.9c-0.1,0.2-0.2,0.4-0.3,0.7c-0.4,0.8-0.8,1.6-1.1,2.5
	c-0.1,0.2-0.2,0.3-0.2,0.5c-0.4,0.9-0.8,1.9-1.1,2.8c-0.1,0.2-0.2,0.4-0.2,0.6c-0.3,0.8-0.6,1.5-0.8,2.3c-0.1,0.2-0.1,0.3-0.2,0.4
	c-0.3,0.8-0.6,1.7-0.8,2.5c-0.2,0.2-0.2,0.3-0.3,0.6c-0.2,0.7-0.4,1.4-0.6,2c0,0.1-0.1,0.2-0.1,0.3c-0.2,0.7-0.4,1.5-0.6,2.2
	c0,0.2-0.1,0.3-0.1,0.5c-0.2,0.7-0.2,1.2-0.4,1.8c0,0.1,0,0.2-0.1,0.2c-0.2,0.7-0.2,1.3-0.3,1.9c0,0.2,0,0.2-0.1,0.4
	c-0.1,0.6-0.2,1.1-0.2,1.5c0,0.1,0,0.1,0,0.2c-0.1,0.6-0.2,1.1-0.2,1.5c0,0.1,0,0.2,0,0.2C53,62.3,53,62.7,53,63.1H41
	C41.8,43.7,54.1,26.5,71.8,19.4z M34,67.9h4.6h16.6h71.9h15.1h27.1c1.1,0,2,0.9,2,2c0,1.1-0.9,2-2,2h-35.6h-29.6l0,0H47H34
	c-1.1,0-2-0.9-2-2C31.9,68.8,32.9,67.9,34,67.9z"/>
</svg>
