<?xml version="1.0" encoding="utf-8"?>
<!-- Generator: Adobe Illustrator 22.1.0, SVG Export Plug-In . SVG Version: 6.00 Build 0)  -->
<svg version="1.1" id="Layer_1" xmlns="http://www.w3.org/2000/svg" xmlns:xlink="http://www.w3.org/1999/xlink" x="0px" y="0px"
	 viewBox="0 0 265 265" style="enable-background:new 0 0 265 265;" xml:space="preserve">
<style type="text/css">
	.st0{fill:#AED477;}
</style>
<path class="st0" d="M48.3,96.5h1.2c-1,5.7-0.2,11.4,2.3,16.6c-1,2.3-1.6,4.9-1.6,7.6c0,7.6,4.7,14.6,11.6,17.5
	c3,23.4,20.6,42.6,43.7,47.6v4.8c-3.7,0.8-7.3,2-10.9,3.6c-20.2,9.1-33.3,29.1-33.3,51.1v14.1c0,1.6,1.3,2.9,2.9,2.9h10.4h86.1h9.8
	c1.6,0,2.9-1.3,2.9-2.9v-14.1c0-22-13.1-42.1-33.3-51.1c-3.5-1.6-7.2-2.8-10.9-3.6v-4.8c23.1-5,40.7-24.2,43.7-47.6
	c6.9-3,11.6-9.9,11.6-17.5c0-2.5-0.5-4.9-1.4-7.2c2.7-5.3,3.6-11.2,2.5-17h28.5c4.6,0,8.4-3.8,8.4-8.4c0-4.6-3.8-8.4-8.4-8.4h-30.4
	c-1.1-29.3-21.3-54.6-49.8-61.9c-2.1-0.5-4.2-0.9-6.3-1.3c0.4-0.8,0.6-1.7,0.6-2.6c0-4.2-4.4-7.6-10-7.6c-5.6,0-10,3.3-10,7.6
	c0,0.9,0.2,1.6,0.5,2.4c-1.9,0.2-3.7,0.5-5.5,0.9c0,0,0,0,0,0C73.8,23.6,52.2,49.7,51,79.7h-2.7c-4.6,0-8.4,3.8-8.4,8.4
	C39.9,92.7,43.6,96.5,48.3,96.5z M61.3,96.5v6.9c-2.1,1-4,2.3-5.6,3.9c-1-3.5-1.2-7.2-0.4-10.8H61.3z M67.2,245.4
	c0-18.6,10.5-35.7,27-44.4c0,0,0,0,0,0c0.5,1.3,1.2,2.4,1.9,3.6c-0.1,0.1-0.3,0.2-0.4,0.3c-0.4,0.3-0.9,0.6-1.3,1
	c-0.7,0.5-1.3,1-1.9,1.6c-0.4,0.4-0.8,0.8-1.2,1.1c-0.6,0.5-1.1,1.1-1.7,1.7c-0.4,0.4-0.8,0.8-1.1,1.3c-0.5,0.6-1,1.2-1.5,1.8
	c-0.3,0.4-0.7,0.9-1,1.4c-0.5,0.6-0.9,1.3-1.4,2c-0.3,0.5-0.6,0.9-0.9,1.4c-0.4,0.7-0.9,1.5-1.3,2.2c-0.2,0.4-0.5,0.9-0.7,1.3
	c-0.5,0.9-0.9,1.8-1.3,2.7c-0.2,0.3-0.3,0.7-0.5,1c-0.6,1.2-1.1,2.5-1.6,3.8c-0.1,0.3-0.2,0.6-0.3,0.9c-0.4,1-0.7,2-1,3
	c-0.2,0.5-0.3,0.9-0.4,1.4c-0.3,0.8-0.5,1.6-0.7,2.5c-0.1,0.5-0.3,1-0.4,1.5c-0.2,0.8-0.4,1.6-0.6,2.3c-0.1,0.5-0.2,1-0.3,1.5
	c-0.2,0.8-0.3,1.5-0.5,2.3c-0.1,0.5-0.2,0.9-0.3,1.4c-0.1,0.8-0.3,1.6-0.4,2.3c-0.1,0.4-0.1,0.9-0.2,1.3c-0.1,0.8-0.2,1.6-0.4,2.4
	c0,0.3-0.1,0.7-0.1,1c-0.1,0.9-0.2,1.8-0.3,2.7c0,0.2,0,0.4-0.1,0.5c0,0.1,0,0.3,0,0.4h-4.9V245.4z M77.9,256.5
	c0-0.3,0.1-0.6,0.1-0.8c0.1-1.1,0.3-2.2,0.4-3.4c0.1-0.6,0.2-1.2,0.3-1.8c0.1-0.5,0.2-1,0.2-1.5c0.1-0.6,0.2-1.3,0.3-1.9
	c0.1-0.5,0.2-1,0.3-1.5c0.1-0.6,0.3-1.3,0.4-1.9c0.1-0.5,0.2-1,0.4-1.5c0.2-0.7,0.3-1.3,0.5-2c0.1-0.5,0.3-1,0.4-1.6
	c0.2-0.7,0.4-1.3,0.6-2c0.2-0.5,0.3-1,0.5-1.5c0.2-0.7,0.5-1.4,0.7-2.1c0.2-0.5,0.3-1,0.5-1.4c0.3-0.7,0.6-1.5,0.9-2.2
	c0.2-0.4,0.3-0.8,0.5-1.3c0.4-0.9,0.8-1.8,1.3-2.7c0.1-0.2,0.2-0.4,0.3-0.7c0.6-1.1,1.2-2.2,1.8-3.2c0.2-0.3,0.4-0.6,0.6-0.9
	c0.5-0.7,0.9-1.5,1.4-2.1c0.3-0.4,0.6-0.7,0.9-1.1c0.5-0.6,0.9-1.2,1.4-1.7c0.3-0.4,0.7-0.7,1-1.1c0.5-0.5,1-1,1.5-1.5
	c0.4-0.4,0.8-0.7,1.2-1c0.5-0.5,1-0.9,1.6-1.3c0.4-0.3,0.8-0.6,1.3-0.9c0.2-0.2,0.5-0.3,0.7-0.4c2.3,2.3,5.1,4.1,8.1,5.3
	c0,0,0,0,0,0c0.7,0.3,1.4,0.5,2.1,0.7c0.1,0,0.3,0.1,0.4,0.1c0.6,0.2,1.2,0.3,1.8,0.4c0.2,0,0.4,0.1,0.6,0.1
	c0.6,0.1,1.1,0.2,1.7,0.3c0.2,0,0.4,0.1,0.6,0.1c0.8,0.1,1.5,0.1,2.3,0.1c0.8,0,1.6,0,2.3-0.1c0.2,0,0.4-0.1,0.7-0.1
	c0.6-0.1,1.1-0.1,1.7-0.3c0.2,0,0.5-0.1,0.7-0.1c0.6-0.1,1.1-0.3,1.7-0.4c0.2,0,0.3-0.1,0.5-0.2c3.9-1.2,7.4-3.4,10.3-6.3
	c0.2,0.1,0.5,0.3,0.7,0.4c0.4,0.3,0.9,0.6,1.3,0.9c0.6,0.4,1.1,0.8,1.6,1.3c0.4,0.3,0.8,0.7,1.2,1c0.5,0.5,1,1,1.5,1.5
	c0.4,0.4,0.7,0.7,1,1.1c0.5,0.6,0.9,1.1,1.4,1.7c0.3,0.4,0.6,0.7,0.9,1.1c0.5,0.7,1,1.4,1.4,2.1c0.2,0.3,0.4,0.6,0.6,1
	c0.6,1,1.2,2.1,1.8,3.2c0.1,0.3,0.3,0.6,0.4,0.9c0.4,0.8,0.8,1.7,1.2,2.5c0.2,0.5,0.4,0.9,0.6,1.4c0.3,0.7,0.6,1.4,0.9,2.1
	c0.2,0.5,0.4,1,0.6,1.5c0.2,0.7,0.5,1.3,0.7,2c0.2,0.5,0.3,1.1,0.5,1.6c0.2,0.7,0.4,1.3,0.6,2c0.1,0.5,0.3,1.1,0.4,1.6
	c0.2,0.6,0.3,1.3,0.5,1.9c0.1,0.5,0.3,1.1,0.4,1.6c0.1,0.6,0.3,1.3,0.4,1.9c0.1,0.5,0.2,1.1,0.3,1.6c0.1,0.6,0.2,1.2,0.3,1.8
	c0.1,0.5,0.2,1,0.3,1.5c0.1,0.6,0.2,1.2,0.3,1.7c0.2,1.5,0.4,3,0.6,4.4H77.9z M167.7,245.4v11.2h-4.2c0-0.1,0-0.3,0-0.4
	c0-0.2-0.1-0.5-0.1-0.8c-0.1-0.8-0.2-1.7-0.3-2.5c0-0.4-0.1-0.7-0.2-1.1c-0.1-0.8-0.2-1.6-0.4-2.4c-0.1-0.4-0.1-0.9-0.2-1.3
	c-0.1-0.8-0.3-1.5-0.4-2.3c-0.1-0.5-0.2-1-0.3-1.5c-0.2-0.8-0.3-1.6-0.5-2.3c-0.1-0.5-0.2-1-0.3-1.5c-0.2-0.8-0.4-1.6-0.6-2.4
	c-0.1-0.5-0.3-1-0.4-1.5c-0.2-0.9-0.5-1.7-0.8-2.6c-0.1-0.4-0.3-0.9-0.4-1.3c-0.3-1-0.7-2.1-1.1-3.1c-0.1-0.2-0.2-0.5-0.3-0.7
	c-0.5-1.3-1-2.6-1.6-3.8c-0.1-0.3-0.3-0.6-0.5-0.9c-0.4-0.9-0.9-1.9-1.4-2.8c-0.2-0.4-0.5-0.9-0.7-1.3c-0.4-0.8-0.9-1.5-1.3-2.3
	c-0.3-0.5-0.6-0.9-0.9-1.4c-0.5-0.7-0.9-1.3-1.4-2c-0.3-0.5-0.7-0.9-1.1-1.4c-0.5-0.6-1-1.2-1.5-1.8c-0.4-0.4-0.8-0.9-1.2-1.3
	c-0.5-0.6-1.1-1.1-1.7-1.6c-0.4-0.4-0.8-0.8-1.3-1.2c-0.6-0.5-1.3-1-1.9-1.5c-0.5-0.3-0.9-0.7-1.4-1c-0.1-0.1-0.3-0.2-0.4-0.3
	c0.6-1,1.2-2.1,1.7-3.3c0,0,0,0,0,0C157.2,209.6,167.7,226.7,167.7,245.4z M169.5,133.3c-1.1,0.3-1.9,1.3-2.1,2.5
	c-2.1,22.5-19.2,40.9-41.5,44.7c-1.4,0.2-2.4,1.5-2.4,2.9v9.6c0,1.4,1,2.6,2.4,2.9c3.2,0.5,6.3,1.4,9.4,2.6
	c-0.1,0.3-0.2,0.5-0.4,0.8c-0.1,0.3-0.3,0.5-0.4,0.8c-0.6,1.1-1.3,2.2-2.1,3.2c0,0,0,0,0,0c-0.9,1.1-2,2.2-3.1,3.1c0,0,0,0,0,0
	c-0.6,0.4-1.1,0.8-1.7,1.2c-0.1,0-0.2,0.1-0.2,0.1c-0.8,0.5-1.7,0.9-2.6,1.3c-0.4,0.2-0.9,0.4-1.3,0.5c-0.3,0.1-0.7,0.2-1,0.3
	c-0.5,0.1-1.1,0.3-1.6,0.4c-0.3,0.1-0.6,0.1-0.9,0.1c-0.9,0.1-1.7,0.2-2.6,0.2c-0.9,0-1.7-0.1-2.6-0.2c-0.3,0-0.6-0.1-0.9-0.1
	c-0.6-0.1-1.1-0.2-1.6-0.4c-0.3-0.1-0.7-0.2-1-0.3c-0.5-0.2-0.9-0.3-1.3-0.5c-0.8-0.3-1.6-0.7-2.3-1.1c-0.1-0.1-0.3-0.2-0.4-0.2
	c-0.6-0.3-1.1-0.7-1.6-1.1c0,0,0,0,0,0c-1.1-0.9-2.1-1.9-3.1-3c0,0,0,0,0,0c-0.9-1-1.6-2.1-2.2-3.3c-0.2-0.3-0.3-0.6-0.4-0.9
	c-0.1-0.3-0.3-0.6-0.4-0.9c3.1-1.2,6.3-2.1,9.4-2.6c1.4-0.2,2.4-1.5,2.4-2.9v-9.6c0-1.4-1-2.6-2.4-2.9
	c-22.3-3.8-39.4-22.2-41.5-44.7c-0.1-1.2-0.9-2.2-2.1-2.5c-5.5-1.7-9.4-6.9-9.4-12.6c0-5.7,3.7-10.8,9.2-12.5c1.2-0.4,2-1.5,2-2.8
	v-8.9h26.2c1.1,12,8.6,22.5,19.9,27.2l12.6,5.3c0.4,0.2,0.8,0.2,1.1,0.2c1,0,1.9-0.5,2.5-1.3c0.8-1.2,0.6-2.8-0.5-3.7
	c-0.1-0.1-6.7-6.4-7.8-13.4c4,3,10.5,6.1,19.6,4.6c1.2-0.2,2.1-1.1,2.4-2.2c0.3-1.1-0.2-2.3-1.1-3c-0.1-0.1-7.7-5.8-5.8-13.6h31.4
	v8.9c0,1.3,0.8,2.4,2,2.8c5.5,1.8,9.2,6.8,9.2,12.5C178.9,126.4,175,131.6,169.5,133.3z M133.8,109.7c-8.2-1-12.2-6.7-12.4-7
	c-0.6-0.9-1.7-1.4-2.8-1.3c-1.1,0.1-2,0.9-2.4,1.9c-2.2,5.8-0.5,11.5,1.9,16l-2.6-1.1c-9.1-3.8-15.2-12.2-16.2-21.8h31.1
	C129.6,101.7,131.4,106.3,133.8,109.7z M179.4,107.6c-1.7-1.7-3.6-3.2-5.9-4.2v-6.9h6.3C180.7,100.2,180.5,104,179.4,107.6z
	 M178.1,79.7h-12.8c0-0.1,0-0.2,0-0.3c0-0.3-0.1-0.6-0.1-1c0-0.2,0-0.4-0.1-0.6c-0.1-0.5-0.1-1-0.2-1.6c0-0.1,0-0.3-0.1-0.5
	c-0.1-0.5-0.1-1-0.2-1.5c0-0.2-0.1-0.4-0.1-0.6c-0.1-0.7-0.2-1.4-0.4-2.1c0-0.1-0.1-0.3-0.1-0.4c-0.1-0.6-0.3-1.3-0.4-2
	c-0.1-0.2-0.1-0.5-0.2-0.7c-0.2-0.8-0.4-1.7-0.6-2.6c0-0.1-0.1-0.3-0.1-0.4c-0.2-0.8-0.4-1.6-0.7-2.4c-0.1-0.3-0.2-0.5-0.2-0.8
	c-0.3-1-0.6-2-1-3c0-0.1-0.1-0.2-0.1-0.3c-0.3-0.9-0.7-1.9-1-2.9c-0.1-0.3-0.2-0.6-0.3-0.8c-0.4-1.1-0.9-2.2-1.4-3.3
	c0-0.1-0.1-0.2-0.1-0.2c-0.5-1.1-1-2.1-1.5-3.2c-0.1-0.3-0.3-0.6-0.4-0.9c-0.6-1.2-1.2-2.3-1.8-3.5c0,0-0.1-0.1-0.1-0.1
	c-0.6-1.2-1.3-2.3-2-3.5c-0.2-0.3-0.4-0.6-0.5-0.9c-0.7-1.2-1.5-2.5-2.3-3.7c0,0,0,0,0,0c-0.8-1.2-1.7-2.5-2.6-3.7
	c-0.2-0.3-0.5-0.6-0.7-1c-0.9-1.2-1.8-2.4-2.8-3.7c0,0-0.1-0.1-0.1-0.1C163.4,36.7,177.1,56.8,178.1,79.7z M77.4,79.7
	c0-0.5,0.1-1,0.2-1.6c0-0.1,0-0.2,0-0.3c0.1-0.6,0.2-1.3,0.3-2c0,0,0,0,0,0c0.1-0.7,0.2-1.4,0.4-2.2c0-0.1,0.1-0.3,0.1-0.4
	c0.1-0.8,0.3-1.6,0.5-2.4c0-0.1,0.1-0.3,0.1-0.4c0.2-0.8,0.4-1.7,0.6-2.5c0-0.1,0.1-0.3,0.1-0.4c0.2-0.9,0.5-1.9,0.8-2.9
	c0.1-0.2,0.1-0.4,0.2-0.6c0.3-1,0.6-2.1,1-3.1c0-0.1,0.1-0.2,0.1-0.3c0.4-1,0.7-2,1.1-3.1c0.1-0.2,0.2-0.4,0.2-0.6
	c0.4-1.1,0.9-2.2,1.4-3.4c0.1-0.2,0.2-0.5,0.3-0.7c0.5-1.2,1.1-2.4,1.7-3.6c0,0,0-0.1,0.1-0.1c0.6-1.2,1.3-2.5,2-3.7
	c0.2-0.3,0.3-0.6,0.5-0.8c0.7-1.2,1.4-2.4,2.2-3.7c0.2-0.2,0.3-0.5,0.5-0.7c0.7-1.2,1.5-2.3,2.3-3.5c0.1-0.2,0.2-0.4,0.4-0.6
	c0.9-1.3,1.8-2.5,2.8-3.8c0.2-0.3,0.5-0.6,0.7-0.9c1-1.3,2.1-2.5,3.2-3.8c0.2-0.2,0.4-0.4,0.6-0.6c1-1.1,2.1-2.3,3.2-3.4
	c0.2-0.2,0.3-0.4,0.5-0.5c8.7-1.7,17.8-1.6,26.3,0.5c0.1,0.1,0.3,0.3,0.4,0.4c1.2,1.2,2.3,2.4,3.3,3.7c0.1,0.2,0.3,0.3,0.4,0.5
	c1.1,1.3,2.2,2.6,3.2,3.9c0.2,0.2,0.4,0.5,0.6,0.7c1,1.3,2,2.6,2.9,3.9c0.1,0.1,0.1,0.2,0.2,0.3c0.9,1.3,1.7,2.5,2.5,3.7
	c0.1,0.2,0.2,0.4,0.4,0.6c0.8,1.3,1.5,2.5,2.2,3.8c0.1,0.2,0.2,0.4,0.4,0.6c1.4,2.6,2.7,5.1,3.7,7.5c0.1,0.2,0.2,0.4,0.3,0.6
	c0.5,1.2,1,2.3,1.4,3.5c0.1,0.2,0.1,0.3,0.2,0.5c0.4,1.1,0.8,2.2,1.2,3.2c0,0.1,0.1,0.2,0.1,0.2c0.4,1.1,0.7,2.1,1,3.2
	c0.1,0.2,0.1,0.4,0.2,0.5c0.3,1,0.6,2,0.8,2.9c0,0.1,0,0.2,0.1,0.2c0.2,0.9,0.5,1.8,0.6,2.7c0,0.1,0.1,0.2,0.1,0.3
	c0.2,0.9,0.4,1.7,0.5,2.5c0,0.1,0,0.3,0.1,0.4c0.3,1.6,0.5,3,0.7,4.2c0,0.1,0,0.2,0,0.3c0.1,0.6,0.1,1.1,0.2,1.6c0,0,0,0,0,0.1
	L77.4,79.7C77.4,79.7,77.4,79.7,77.4,79.7z M118.4,12.2c2.7,0,4.1,1.3,4.1,1.7s-1.5,1.7-4.1,1.7c-2.7,0-4.1-1.3-4.1-1.7
	S115.7,12.2,118.4,12.2z M94.7,26c-0.1,0.1-0.1,0.1-0.1,0.2c-1.1,1.3-2.1,2.6-3.1,3.9c-0.2,0.2-0.3,0.5-0.5,0.7
	c-0.9,1.2-1.7,2.3-2.4,3.4c-0.1,0.2-0.3,0.4-0.4,0.6c-0.9,1.3-1.7,2.5-2.4,3.8c-0.2,0.3-0.3,0.5-0.4,0.7c-0.7,1.1-1.3,2.2-1.9,3.3
	c-0.1,0.2-0.2,0.4-0.3,0.6c-0.7,1.2-1.3,2.4-1.9,3.6c-0.1,0.3-0.2,0.5-0.4,0.8c-0.5,1-1,2-1.4,3.1c-0.1,0.2-0.2,0.4-0.3,0.6
	c-0.5,1.1-1,2.3-1.4,3.4c-0.1,0.2-0.2,0.5-0.3,0.7c-0.4,1-0.7,1.9-1,2.8c-0.1,0.2-0.1,0.4-0.2,0.5c-0.4,1-0.7,2.1-1,3.1
	C75,62,75,62.2,74.9,62.5c-0.3,0.9-0.5,1.7-0.7,2.5c0,0.1-0.1,0.3-0.1,0.4c-0.2,0.9-0.5,1.8-0.7,2.7c0,0.2-0.1,0.4-0.1,0.6
	c-0.2,0.8-0.3,1.5-0.5,2.2c0,0.1,0,0.2-0.1,0.3c-0.2,0.8-0.3,1.6-0.4,2.3c0,0.2,0,0.3-0.1,0.5c-0.1,0.7-0.2,1.3-0.3,1.9
	c0,0.1,0,0.1,0,0.2c-0.1,0.7-0.2,1.3-0.2,1.8c0,0.1,0,0.2,0,0.3c-0.1,0.5-0.1,1.1-0.1,1.5H56.8C57.8,55.9,73,34.8,94.7,26z
	 M48.3,85.6h5.6h20.4h88.3h18.6h33.3c1.4,0,2.5,1.1,2.5,2.5c0,1.4-1.1,2.5-2.5,2.5h-43.7h-36.4c0,0,0,0,0,0H64.2h-16
	c-1.4,0-2.5-1.1-2.5-2.5C45.7,86.7,46.9,85.6,48.3,85.6z"/>
</svg>
