<?xml version="1.0" encoding="utf-8"?>
<!-- Generator: Adobe Illustrator 22.1.0, SVG Export Plug-In . SVG Version: 6.00 Build 0)  -->
<svg version="1.1" id="Layer_1" xmlns="http://www.w3.org/2000/svg" xmlns:xlink="http://www.w3.org/1999/xlink" x="0px" y="0px"
	 viewBox="0 0 217.7 253.2" style="enable-background:new 0 0 217.7 253.2;" xml:space="preserve">
<style type="text/css">
	.st0{fill:#AED477;}
</style>
<path d="M169.7,687.1h16.2v0.2c-1.3,0.3-2.5,0.7-3.7,1.2c-6.9,3.1-11.4,10-11.4,17.5v4.8c0,0.6,0.4,1,1,1h36.4c0.6,0,1-0.4,1-1V706
	c0-7.5-4.5-14.4-11.4-17.5c-1.2-0.5-2.5-1-3.7-1.2v-0.2h16.1c3,0,5.5-2.5,5.5-5.5v-25.8c0-14-11.4-25.6-25.4-25.7
	c-6.8-0.1-13.2,2.5-18.1,7.4c-5.1,5-8,11.9-8,18.9v25.3C164.2,684.7,166.7,687.1,169.7,687.1z M207.1,706v3.8h-34.4V706
	c0-6.4,3.6-12.2,9.2-15.2c0,0,0,0,0,0.1c0.1,0.3,0.3,0.7,0.5,1c0,0.1,0.1,0.1,0.1,0.2c0.2,0.3,0.4,0.6,0.6,0.9l0.1,0.1
	c0.2,0.3,0.5,0.6,0.8,0.8l0,0c0.3,0.3,0.6,0.5,0.9,0.7c0,0,0.1,0,0.1,0.1c0.3,0.2,0.6,0.4,1,0.5c0.1,0,0.1,0.1,0.2,0.1
	c0.3,0.2,0.7,0.3,1,0.4c0.1,0,0.1,0,0.2,0.1c0.4,0.1,0.7,0.2,1.1,0.2h0.1c0.4,0.1,0.8,0.1,1.2,0.1s0.8,0,1.2-0.1h0.1
	c0.4-0.1,0.7-0.1,1.1-0.2c0.1,0,0.1,0,0.2-0.1c0.3-0.1,0.7-0.2,1-0.4c0.1,0,0.1-0.1,0.2-0.1c0.3-0.2,0.7-0.3,1-0.5
	c0,0,0.1,0,0.1-0.1c0.3-0.2,0.6-0.4,0.9-0.7l0,0c0.3-0.3,0.5-0.5,0.8-0.8l0.1-0.1c0.2-0.3,0.4-0.6,0.6-0.9c0-0.1,0.1-0.1,0.1-0.2
	c0.2-0.3,0.4-0.6,0.5-1c0,0,0,0,0-0.1C203.5,693.8,207.1,699.6,207.1,706z M196.1,690L196.1,690c-0.1,0.2-0.1,0.4-0.2,0.5
	c-0.1,0.2-0.2,0.4-0.3,0.5s-0.2,0.2-0.3,0.4s-0.2,0.3-0.4,0.5c-0.1,0.1-0.2,0.2-0.3,0.3s-0.3,0.3-0.4,0.4c-0.1,0.1-0.2,0.2-0.3,0.3
	c-0.2,0.1-0.3,0.2-0.5,0.3c-0.1,0.1-0.2,0.1-0.4,0.2c-0.2,0.1-0.4,0.2-0.6,0.3c-0.1,0-0.2,0.1-0.4,0.1c-0.2,0.1-0.4,0.1-0.7,0.2
	c-0.1,0-0.2,0.1-0.3,0.1c-0.3,0.1-0.7,0.1-1.1,0.1c-0.4,0-0.7,0-1.1-0.1c-0.1,0-0.2-0.1-0.3-0.1c-0.2,0-0.5-0.1-0.7-0.2
	c-0.1,0-0.3-0.1-0.4-0.1c-0.2-0.1-0.4-0.2-0.6-0.2c-0.1-0.1-0.2-0.1-0.4-0.2c-0.2-0.1-0.3-0.2-0.5-0.3c-0.1-0.1-0.2-0.2-0.3-0.3
	c-0.2-0.1-0.3-0.3-0.4-0.4c-0.1-0.1-0.2-0.2-0.3-0.3s-0.3-0.3-0.4-0.5c-0.1-0.1-0.2-0.2-0.2-0.4c-0.1-0.2-0.2-0.4-0.3-0.5
	s-0.1-0.2-0.2-0.4v-0.1c1.1-0.4,2.1-0.7,3.2-0.9c0.5-0.1,0.8-0.5,0.8-1v-2v-1.3c0-0.5-0.4-0.9-0.8-1c-8.3-1.4-14.3-8.5-14.3-16.9
	v-11.4c1-2.1,4.2-7.7,10.6-9.8c0.4-0.1,0.9-0.3,1.3-0.4c0.9,3.6,4.7,15.7,15.7,15.7c2.6,0,4.9-0.6,6.8-1.7v7.6
	c0,8.4-6,15.5-14.3,16.9c-0.5,0.1-0.8,0.5-0.8,1v1.3v2c0,0.5,0.4,0.9,0.8,1C193.9,689.3,195,689.6,196.1,690z M166.2,656.4
	c0-6.5,2.7-12.9,7.4-17.5c4.6-4.5,10.5-6.9,16.7-6.8c12.9,0.2,23.4,10.8,23.4,23.7v25.8c0,1.9-1.6,3.5-3.5,3.5h-14.3
	c0.3-0.1,0.6-0.2,0.8-0.3s0.3-0.1,0.5-0.2c0.4-0.2,0.8-0.3,1.2-0.5c0.1,0,0.2-0.1,0.3-0.1c0.5-0.2,0.9-0.5,1.4-0.8
	c0.1-0.1,0.2-0.2,0.4-0.2c0.3-0.2,0.6-0.4,0.9-0.6c0.2-0.1,0.3-0.2,0.5-0.4c0.3-0.2,0.5-0.4,0.7-0.6c0.2-0.1,0.3-0.3,0.5-0.4
	c0.2-0.2,0.4-0.4,0.6-0.6c0.2-0.2,0.3-0.3,0.5-0.5s0.4-0.4,0.6-0.7c0.1-0.2,0.3-0.4,0.4-0.5c0.2-0.2,0.3-0.5,0.5-0.7
	c0.1-0.2,0.3-0.4,0.4-0.6c0.2-0.2,0.3-0.5,0.5-0.7c0.1-0.2,0.2-0.4,0.3-0.6c0.1-0.3,0.3-0.5,0.4-0.8c0.1-0.2,0.2-0.4,0.3-0.6
	c0.1-0.3,0.2-0.5,0.3-0.8c0.1-0.2,0.2-0.4,0.2-0.6c0.1-0.3,0.2-0.6,0.3-0.9c0.1-0.2,0.1-0.4,0.2-0.6c0.1-0.3,0.1-0.6,0.2-0.9
	c0-0.2,0.1-0.4,0.1-0.6c0.1-0.3,0.1-0.7,0.1-1.1c0-0.2,0-0.4,0.1-0.5c0-0.5,0.1-1.1,0.1-1.6v-9c0-0.2,0-0.4,0-0.6v-0.1v-0.1
	c0-0.4-0.3-0.7-0.6-0.9c-0.4-0.1-0.8-0.1-1.1,0.2c-1.1,1-2.5,1.7-4,2.1c-0.9,0.2-2,0.3-3,0.3c-11.1,0-13.9-14.9-13.9-15.1
	c-0.1-0.5-0.6-0.9-1.2-0.8c-9.1,1.6-13.3,9.4-14.4,11.7c-0.1,0.1-0.1,0.3-0.1,0.4v11.7c0,0.5,0,1.1,0.1,1.6c0,0.2,0,0.4,0.1,0.5
	c0,0.4,0.1,0.7,0.1,1.1c0,0.2,0.1,0.4,0.1,0.6c0.1,0.3,0.1,0.6,0.2,0.9c0.1,0.2,0.1,0.4,0.2,0.6c0.1,0.3,0.2,0.6,0.3,0.9
	c0.1,0.2,0.2,0.4,0.2,0.6c0.1,0.3,0.2,0.5,0.3,0.8c0.1,0.2,0.2,0.4,0.3,0.6c0.1,0.3,0.3,0.5,0.4,0.8c0.1,0.2,0.2,0.4,0.3,0.6
	c0.1,0.2,0.3,0.5,0.5,0.7c0.1,0.2,0.3,0.4,0.4,0.6c0.2,0.2,0.3,0.5,0.5,0.7c0.1,0.2,0.3,0.4,0.4,0.5c0.2,0.2,0.4,0.4,0.6,0.7
	c0.1,0.2,0.3,0.3,0.5,0.5s0.4,0.4,0.6,0.6c0.2,0.1,0.3,0.3,0.5,0.4c0.2,0.2,0.5,0.4,0.7,0.6c0.2,0.1,0.3,0.2,0.5,0.4
	c0.3,0.2,0.6,0.4,0.9,0.6c0.1,0.1,0.2,0.2,0.4,0.2c0.4,0.3,0.9,0.5,1.4,0.8c0.1,0,0.2,0.1,0.3,0.1c0.4,0.2,0.8,0.4,1.2,0.5
	c0.2,0.1,0.3,0.1,0.5,0.2c0.3,0.1,0.6,0.2,0.8,0.3h-14.3c-1.9,0-3.5-1.6-3.5-3.5v-25H166.2z"/>
<path d="M169.7,687.1h16.2v0.2c-1.3,0.3-2.5,0.7-3.7,1.2c-6.9,3.1-11.4,10-11.4,17.5v4.8c0,0.6,0.4,1,1,1h36.4c0.6,0,1-0.4,1-1V706
	c0-7.5-4.5-14.4-11.4-17.5c-1.2-0.5-2.5-1-3.7-1.2v-0.2h16.1c3,0,5.5-2.5,5.5-5.5v-25.8c0-14-11.4-25.6-25.4-25.7
	c-6.8-0.1-13.2,2.5-18.1,7.4c-5.1,5-8,11.9-8,18.9v25.3C164.2,684.7,166.7,687.1,169.7,687.1z M207.1,706v3.8h-34.4V706
	c0-6.4,3.6-12.2,9.2-15.2c0,0,0,0,0,0.1c0.1,0.3,0.3,0.7,0.5,1c0,0.1,0.1,0.1,0.1,0.2c0.2,0.3,0.4,0.6,0.6,0.9l0.1,0.1
	c0.2,0.3,0.5,0.6,0.8,0.8l0,0c0.3,0.3,0.6,0.5,0.9,0.7c0,0,0.1,0,0.1,0.1c0.3,0.2,0.6,0.4,1,0.5c0.1,0,0.1,0.1,0.2,0.1
	c0.3,0.2,0.7,0.3,1,0.4c0.1,0,0.1,0,0.2,0.1c0.4,0.1,0.7,0.2,1.1,0.2h0.1c0.4,0.1,0.8,0.1,1.2,0.1s0.8,0,1.2-0.1h0.1
	c0.4-0.1,0.7-0.1,1.1-0.2c0.1,0,0.1,0,0.2-0.1c0.3-0.1,0.7-0.2,1-0.4c0.1,0,0.1-0.1,0.2-0.1c0.3-0.2,0.7-0.3,1-0.5
	c0,0,0.1,0,0.1-0.1c0.3-0.2,0.6-0.4,0.9-0.7l0,0c0.3-0.3,0.5-0.5,0.8-0.8l0.1-0.1c0.2-0.3,0.4-0.6,0.6-0.9c0-0.1,0.1-0.1,0.1-0.2
	c0.2-0.3,0.4-0.6,0.5-1c0,0,0,0,0-0.1C203.5,693.8,207.1,699.6,207.1,706z M196.1,690L196.1,690c-0.1,0.2-0.1,0.4-0.2,0.5
	c-0.1,0.2-0.2,0.4-0.3,0.5s-0.2,0.2-0.3,0.4s-0.2,0.3-0.4,0.5c-0.1,0.1-0.2,0.2-0.3,0.3s-0.3,0.3-0.4,0.4c-0.1,0.1-0.2,0.2-0.3,0.3
	c-0.2,0.1-0.3,0.2-0.5,0.3c-0.1,0.1-0.2,0.1-0.4,0.2c-0.2,0.1-0.4,0.2-0.6,0.3c-0.1,0-0.2,0.1-0.4,0.1c-0.2,0.1-0.4,0.1-0.7,0.2
	c-0.1,0-0.2,0.1-0.3,0.1c-0.3,0.1-0.7,0.1-1.1,0.1c-0.4,0-0.7,0-1.1-0.1c-0.1,0-0.2-0.1-0.3-0.1c-0.2,0-0.5-0.1-0.7-0.2
	c-0.1,0-0.3-0.1-0.4-0.1c-0.2-0.1-0.4-0.2-0.6-0.2c-0.1-0.1-0.2-0.1-0.4-0.2c-0.2-0.1-0.3-0.2-0.5-0.3c-0.1-0.1-0.2-0.2-0.3-0.3
	c-0.2-0.1-0.3-0.3-0.4-0.4c-0.1-0.1-0.2-0.2-0.3-0.3s-0.3-0.3-0.4-0.5c-0.1-0.1-0.2-0.2-0.2-0.4c-0.1-0.2-0.2-0.4-0.3-0.5
	s-0.1-0.2-0.2-0.4v-0.1c1.1-0.4,2.1-0.7,3.2-0.9c0.5-0.1,0.8-0.5,0.8-1v-2v-1.3c0-0.5-0.4-0.9-0.8-1c-8.3-1.4-14.3-8.5-14.3-16.9
	v-11.4c1-2.1,4.2-7.7,10.6-9.8c0.4-0.1,0.9-0.3,1.3-0.4c0.9,3.6,4.7,15.7,15.7,15.7c2.6,0,4.9-0.6,6.8-1.7v7.6
	c0,8.4-6,15.5-14.3,16.9c-0.5,0.1-0.8,0.5-0.8,1v1.3v2c0,0.5,0.4,0.9,0.8,1C193.9,689.3,195,689.6,196.1,690z M166.2,656.4
	c0-6.5,2.7-12.9,7.4-17.5c4.6-4.5,10.5-6.9,16.7-6.8c12.9,0.2,23.4,10.8,23.4,23.7v25.8c0,1.9-1.6,3.5-3.5,3.5h-14.3
	c0.3-0.1,0.6-0.2,0.8-0.3s0.3-0.1,0.5-0.2c0.4-0.2,0.8-0.3,1.2-0.5c0.1,0,0.2-0.1,0.3-0.1c0.5-0.2,0.9-0.5,1.4-0.8
	c0.1-0.1,0.2-0.2,0.4-0.2c0.3-0.2,0.6-0.4,0.9-0.6c0.2-0.1,0.3-0.2,0.5-0.4c0.3-0.2,0.5-0.4,0.7-0.6c0.2-0.1,0.3-0.3,0.5-0.4
	c0.2-0.2,0.4-0.4,0.6-0.6c0.2-0.2,0.3-0.3,0.5-0.5s0.4-0.4,0.6-0.7c0.1-0.2,0.3-0.4,0.4-0.5c0.2-0.2,0.3-0.5,0.5-0.7
	c0.1-0.2,0.3-0.4,0.4-0.6c0.2-0.2,0.3-0.5,0.5-0.7c0.1-0.2,0.2-0.4,0.3-0.6c0.1-0.3,0.3-0.5,0.4-0.8c0.1-0.2,0.2-0.4,0.3-0.6
	c0.1-0.3,0.2-0.5,0.3-0.8c0.1-0.2,0.2-0.4,0.2-0.6c0.1-0.3,0.2-0.6,0.3-0.9c0.1-0.2,0.1-0.4,0.2-0.6c0.1-0.3,0.1-0.6,0.2-0.9
	c0-0.2,0.1-0.4,0.1-0.6c0.1-0.3,0.1-0.7,0.1-1.1c0-0.2,0-0.4,0.1-0.5c0-0.5,0.1-1.1,0.1-1.6v-9c0-0.2,0-0.4,0-0.6v-0.1v-0.1
	c0-0.4-0.3-0.7-0.6-0.9c-0.4-0.1-0.8-0.1-1.1,0.2c-1.1,1-2.5,1.7-4,2.1c-0.9,0.2-2,0.3-3,0.3c-11.1,0-13.9-14.9-13.9-15.1
	c-0.1-0.5-0.6-0.9-1.2-0.8c-9.1,1.6-13.3,9.4-14.4,11.7c-0.1,0.1-0.1,0.3-0.1,0.4v11.7c0,0.5,0,1.1,0.1,1.6c0,0.2,0,0.4,0.1,0.5
	c0,0.4,0.1,0.7,0.1,1.1c0,0.2,0.1,0.4,0.1,0.6c0.1,0.3,0.1,0.6,0.2,0.9c0.1,0.2,0.1,0.4,0.2,0.6c0.1,0.3,0.2,0.6,0.3,0.9
	c0.1,0.2,0.2,0.4,0.2,0.6c0.1,0.3,0.2,0.5,0.3,0.8c0.1,0.2,0.2,0.4,0.3,0.6c0.1,0.3,0.3,0.5,0.4,0.8c0.1,0.2,0.2,0.4,0.3,0.6
	c0.1,0.2,0.3,0.5,0.5,0.7c0.1,0.2,0.3,0.4,0.4,0.6c0.2,0.2,0.3,0.5,0.5,0.7c0.1,0.2,0.3,0.4,0.4,0.5c0.2,0.2,0.4,0.4,0.6,0.7
	c0.1,0.2,0.3,0.3,0.5,0.5s0.4,0.4,0.6,0.6c0.2,0.1,0.3,0.3,0.5,0.4c0.2,0.2,0.5,0.4,0.7,0.6c0.2,0.1,0.3,0.2,0.5,0.4
	c0.3,0.2,0.6,0.4,0.9,0.6c0.1,0.1,0.2,0.2,0.4,0.2c0.4,0.3,0.9,0.5,1.4,0.8c0.1,0,0.2,0.1,0.3,0.1c0.4,0.2,0.8,0.4,1.2,0.5
	c0.2,0.1,0.3,0.1,0.5,0.2c0.3,0.1,0.6,0.2,0.8,0.3h-14.3c-1.9,0-3.5-1.6-3.5-3.5v-25H166.2z"/>
<path class="st0" d="M216.2,120.8c-0.9-0.6-2-0.6-2.9-0.2c-4.4,2-8.4,1.9-12.1-0.5c-8-5.1-12.7-19.5-12.7-38.6c0-0.8,0-1.8,0-3
	C187.8,35.8,152.6,0.6,109.9,0c-0.4,0-0.7,0-1.1,0C88.3,0,68.7,8.1,53.7,23C38,38.4,29,59.6,29,81.4v0.1c0,19.1-4.8,33.5-12.7,38.5
	c-3.7,2.3-7.8,2.5-12.1,0.5c-1-0.4-2.1-0.4-3,0.2s-1.4,1.5-1.5,2.6c0,2.3,0.1,4.4,0.3,6.4c2.4,19.6,18.3,35.9,37.9,38.6
	c2.1,0.3,4.3,0.4,6.4,0.4c9.6,0,18.9-3.1,26.6-8.9c7.3,6,15.9,10.2,25.1,12.3v5.1c-3.9,0.9-7.8,2.1-11.5,3.8c-1.6,0.7-3.2,1.5-5,2.6
	l0,0c-18.6,10.6-30.2,30.3-30.2,51.5v15c0,1.7,1.4,3.1,3.1,3.1H165c1.7,0,3.1-1.4,3.1-3.1v-14.9c0-8.4-1.8-16.6-5.3-24.3
	c-6-13.3-16.7-23.8-30-29.8c-3.8-1.7-7.6-3-11.5-3.8v-5.1c9.5-2.1,18.1-6.4,25.2-12.2c9.5,7.1,21.1,10.1,33,8.4
	c19.6-2.7,35.5-19,37.9-38.6c0.2-2,0.3-4.1,0.3-6.4C217.6,122.3,217.1,121.3,216.2,120.8z M161.9,247H55.5v-11.8
	c0-17.7,9-34.3,23.8-44.1c0,0.1,0.1,0.2,0.1,0.3c0.2,0.5,0.4,0.9,0.6,1.4c0.4,0.9,0.8,1.8,1.3,2.7c0.3,0.5,0.6,1,0.9,1.5
	c0.5,0.8,0.9,1.5,1.5,2.3c0.3,0.5,0.7,0.9,1.1,1.4c0.5,0.7,1.1,1.3,1.7,2c0.4,0.4,0.8,0.9,1.3,1.3c0.6,0.6,1.3,1.2,1.9,1.7
	c0.5,0.4,0.9,0.8,1.4,1.1c0.7,0.5,1.5,1,2.2,1.5c0.5,0.3,1,0.6,1.4,0.9c0.9,0.5,1.7,0.9,2.6,1.3c0.4,0.2,0.9,0.4,1.3,0.6
	c1.4,0.6,2.8,1,4.3,1.4l27.1,7.1c1.5,0.4,3,0.7,4.5,0.9c0.4,0.1,0.9,0.1,1.3,0.2c1.2,0.1,2.4,0.2,3.6,0.2c0.3,0,0.5,0,0.8,0
	c0.1,0,0.3,0,0.4,0c0.3,0,0.5,0,0.8,0c0.8,0,1.7-0.1,2.5-0.2c0.3,0,0.7-0.1,1-0.1c0.9-0.1,1.7-0.2,2.6-0.4c0.2,0,0.5-0.1,0.7-0.1
	c1.1-0.2,2.2-0.5,3.2-0.8c0.2-0.1,0.4-0.1,0.6-0.2c0.8-0.3,1.7-0.5,2.5-0.9c0.3-0.1,0.6-0.3,1-0.4c0.8-0.3,1.5-0.6,2.2-1
	c0.2-0.1,0.4-0.2,0.6-0.3c2.3,6,3.4,12.2,3.4,18.7V247H161.9z M117.7,166.6c-1.5,0.3-2.6,1.5-2.6,3.1v10.2c0,1.5,1.1,2.8,2.6,3.1
	c4.3,0.7,8.5,2,12.6,3.9c11,4.9,20,13.5,25.6,24.1c-0.1,0.1-0.2,0.1-0.3,0.2c-0.4,0.2-0.8,0.4-1.2,0.6c-0.6,0.3-1.2,0.5-1.8,0.8
	c-0.4,0.2-0.9,0.3-1.3,0.5c-0.6,0.2-1.2,0.4-1.9,0.6c-0.4,0.1-0.9,0.2-1.4,0.3c-0.6,0.1-1.3,0.3-1.9,0.4c-0.5,0.1-0.9,0.2-1.4,0.2
	c-0.6,0.1-1.3,0.1-1.9,0.2c-0.5,0-0.9,0.1-1.4,0.1c-0.7,0-1.3,0-2,0c-0.4,0-0.9,0-1.3,0c-0.7,0-1.5-0.1-2.2-0.2
	c-0.4,0-0.7-0.1-1.1-0.1c-1.1-0.2-2.2-0.4-3.3-0.7l-27.1-7.1c-1.2-0.3-2.4-0.7-3.5-1.2c-0.4-0.2-0.7-0.4-1.1-0.5
	c-0.7-0.3-1.5-0.7-2.2-1.1c-0.4-0.2-0.8-0.5-1.2-0.8c-0.6-0.4-1.2-0.8-1.8-1.2c-0.4-0.3-0.8-0.7-1.2-1c-0.5-0.4-1.1-0.9-1.6-1.4
	c-0.4-0.4-0.7-0.8-1.1-1.2c-0.5-0.5-0.9-1-1.3-1.5c-0.3-0.4-0.7-0.9-1-1.3c-0.4-0.6-0.8-1.1-1.1-1.7c-0.3-0.5-0.5-1-0.8-1.5
	c-0.3-0.6-0.6-1.2-0.9-1.8c-0.2-0.5-0.4-1-0.6-1.6c-0.1-0.3-0.2-0.5-0.2-0.8c0.8-0.4,1.6-0.8,2.3-1.1c4.1-1.8,8.3-3.1,12.6-3.9
	c1.5-0.3,2.6-1.5,2.6-3.1v-10.2c0-1.5-1.1-2.8-2.6-3.1c-9.6-1.7-18.6-6.1-26-12.5c-0.9-0.8-1.6-1.5-2.4-2.2
	c-0.8-0.8-1.6-1.6-2.4-2.5c-5.7-6.4-8.4-15-7.5-23.5c0.2-2,0.7-4,1.3-5.9c1.8-5.6,5.4-10.5,10.3-14c0,0,0.1,0,0.1-0.1
	c1.2-0.9,2.5-1.6,3.9-2.4c0.5-0.3,1-0.5,1.5-0.8c1.4-0.7,2.9-1.4,4.4-2c36.2-14.1,43.7-37.5,45.3-46.8c23.9,7.3,33.8,28.7,33.9,28.9
	c0.3,0.6,0.8,1.1,1.5,1.4c0.1,0.1,0.2,0.2,0.3,0.2l0,0l0,0c0.6,0.2,1.3,0.5,2.1,1c1.4,0.8,2.6,1.9,3.6,3.1c0.1,0.1,0.2,0.3,0.3,0.4
	c0.2,0.3,0.4,0.6,0.6,0.9c0.1,0.2,0.3,0.4,0.4,0.6c0.2,0.3,0.3,0.6,0.5,0.9c0.1,0.3,0.2,0.5,0.3,0.8s0.2,0.6,0.3,0.8
	c0.1,0.3,0.2,0.7,0.3,1.1c0,0.2,0.1,0.5,0.1,0.7c0.1,0.6,0.1,1.2,0.1,1.8c0,5.4-3.5,10.3-8.6,12.1c-1.2,0.4-2,1.6-2,2.9v2.3
	c0,1.7-0.1,3.4-0.2,5c-1,10.9-5.4,20.9-12.1,29c-0.1,0.1-0.2,0.3-0.3,0.4c-0.5,0.6-1,1.1-1.5,1.7c-1,1.1-2.1,2.2-3.3,3.2
	c-0.1,0.1-0.1,0.2-0.2,0.2C137,160.2,127.9,164.8,117.7,166.6z M211.2,129c-2.1,16.9-15.8,30.9-32.6,33.2
	c-9.9,1.4-19.6-0.9-27.5-6.5l0,0c0.6-0.6,1.1-1.2,1.6-1.7c8.9-9.4,14-21.1,15.1-34.4c0.2-1.8,0.2-3.5,0.2-5.3v-0.2
	c6.5-3.2,10.7-9.8,10.7-17.1c0-0.9-0.1-1.8-0.2-2.7c0-0.3-0.1-0.7-0.2-1c-0.1-0.5-0.2-1-0.3-1.5c-0.1-0.4-0.3-0.8-0.4-1.2
	c-0.1-0.4-0.3-0.8-0.5-1.2c-0.2-0.4-0.4-0.8-0.6-1.3c-0.2-0.3-0.4-0.7-0.6-1c-0.3-0.4-0.6-0.8-0.8-1.3c-0.2-0.3-0.4-0.5-0.6-0.8
	c-0.3-0.4-0.7-0.8-1.1-1.2c-0.2-0.2-0.4-0.4-0.6-0.6c-0.4-0.4-0.9-0.8-1.3-1.1c-0.2-0.2-0.4-0.3-0.6-0.5c-0.5-0.4-1-0.7-1.6-1.1
	l-0.1-0.1c-0.4-0.3-0.9-0.4-1.3-0.7c-0.2-0.1-0.4-0.2-0.6-0.3c-0.5-0.9-1.3-2.4-2.3-4.1c-0.1-0.1-0.1-0.2-0.2-0.3
	c-0.2-0.3-0.4-0.6-0.6-1c-0.2-0.3-0.4-0.7-0.7-1c-0.1-0.1-0.2-0.3-0.3-0.4c-5.9-8.3-17.5-20.8-36.8-25.4c-0.9-0.2-1.9,0-2.6,0.6
	c-0.6,0.5-1,1.2-1.1,2c0,0.1-0.1,0.3-0.1,0.4v0.1c-0.1,1.9-2,27.6-37.8,43c-0.1,0-0.1,0.1-0.2,0.1c-0.5,0.2-0.9,0.4-1.4,0.6
	c-0.8,0.3-1.5,0.6-2.3,0.9c-1.4,0.5-2.7,1.1-4.3,1.9c-0.3,0.1-0.5,0.3-0.8,0.4c-0.6,0.3-1.1,0.6-1.6,0.9c-1.6,0.9-3.2,1.8-4.6,2.8
	c-8,5.7-13,14.3-14.1,24.3c-0.1,1.3-0.2,2.6-0.2,3.8c0,8.9,3.2,17.7,9.2,24.4c0,0.1,0.1,0.1,0.1,0.1c0.6,0.7,1.2,1.3,1.9,2
	c-8,5.6-17.7,7.9-27.5,6.6C22,159.9,8.2,145.9,6.2,129c-0.1-0.4-0.1-0.8-0.1-1.2c4.7,1,9.4,0.2,13.5-2.4
	c9.9-6.3,15.6-22.2,15.6-43.7v-0.1c0-20.1,8.3-39.8,22.8-54.1C71.9,13.8,89.9,6.3,108.8,6.3c0.3,0,0.7,0,1,0
	c39.4,0.5,71.9,33,72.5,72.4c0,1.1,0,2.1,0,2.9c0,21.6,5.7,37.5,15.6,43.8c4.1,2.6,8.8,3.4,13.5,2.4
	C211.3,128.2,211.3,128.6,211.2,129z"/>
</svg>
