<?xml version="1.0" encoding="utf-8"?>
<!-- Generator: Adobe Illustrator 22.1.0, SVG Export Plug-In . SVG Version: 6.00 Build 0)  -->
<svg version="1.1" id="Layer_1" xmlns="http://www.w3.org/2000/svg" xmlns:xlink="http://www.w3.org/1999/xlink" x="0px" y="0px"
	 viewBox="0 0 185 215" style="enable-background:new 0 0 185 215;" xml:space="preserve">
<style type="text/css">
	.st0{fill:#AED477;}
</style>
<path d="M153.4,668h16.2v0.2c-1.3,0.3-2.5,0.7-3.7,1.2c-6.9,3.1-11.4,10-11.4,17.5v4.8c0,0.6,0.4,1,1,1h36.4c0.6,0,1-0.4,1-1v-4.8
	c0-7.5-4.5-14.4-11.4-17.5c-1.2-0.5-2.5-1-3.7-1.2V668h16.1c3,0,5.5-2.5,5.5-5.5v-25.8c0-14-11.4-25.6-25.4-25.7
	c-6.8-0.1-13.2,2.5-18.1,7.4c-5.1,5-8,11.9-8,18.9v25.3C147.9,665.6,150.4,668,153.4,668z M190.8,686.9v3.8h-34.4v-3.8
	c0-6.4,3.6-12.2,9.2-15.2c0,0,0,0,0,0.1c0.1,0.3,0.3,0.7,0.5,1c0,0.1,0.1,0.1,0.1,0.2c0.2,0.3,0.4,0.6,0.6,0.9l0.1,0.1
	c0.2,0.3,0.5,0.6,0.8,0.8l0,0c0.3,0.3,0.6,0.5,0.9,0.7c0,0,0.1,0,0.1,0.1c0.3,0.2,0.6,0.4,1,0.5c0.1,0,0.1,0.1,0.2,0.1
	c0.3,0.2,0.7,0.3,1,0.4c0.1,0,0.1,0,0.2,0.1c0.4,0.1,0.7,0.2,1.1,0.2h0.1c0.4,0.1,0.8,0.1,1.2,0.1s0.8,0,1.2-0.1h0.1
	c0.4-0.1,0.7-0.1,1.1-0.2c0.1,0,0.1,0,0.2-0.1c0.3-0.1,0.7-0.2,1-0.4c0.1,0,0.1-0.1,0.2-0.1c0.3-0.2,0.7-0.3,1-0.5
	c0,0,0.1,0,0.1-0.1c0.3-0.2,0.6-0.4,0.9-0.7l0,0c0.3-0.3,0.5-0.5,0.8-0.8l0.1-0.1c0.2-0.3,0.4-0.6,0.6-0.9c0-0.1,0.1-0.1,0.1-0.2
	c0.2-0.3,0.4-0.6,0.5-1c0,0,0,0,0-0.1C187.1,674.7,190.8,680.5,190.8,686.9z M179.8,670.9L179.8,670.9c-0.1,0.2-0.1,0.4-0.2,0.5
	c-0.1,0.2-0.2,0.4-0.3,0.5s-0.2,0.2-0.3,0.4s-0.2,0.3-0.4,0.5c-0.1,0.1-0.2,0.2-0.3,0.3s-0.3,0.3-0.4,0.4c-0.1,0.1-0.2,0.2-0.3,0.3
	c-0.2,0.1-0.3,0.2-0.5,0.3c-0.1,0.1-0.2,0.1-0.4,0.2c-0.2,0.1-0.4,0.2-0.6,0.3c-0.1,0-0.2,0.1-0.4,0.1c-0.2,0.1-0.4,0.1-0.7,0.2
	c-0.1,0-0.2,0.1-0.3,0.1c-0.3,0.1-0.7,0.1-1.1,0.1s-0.7,0-1.1-0.1c-0.1,0-0.2-0.1-0.3-0.1c-0.2,0-0.5-0.1-0.7-0.2
	c-0.1,0-0.3-0.1-0.4-0.1c-0.2-0.1-0.4-0.2-0.6-0.2c-0.1-0.1-0.2-0.1-0.4-0.2c-0.2-0.1-0.3-0.2-0.5-0.3c-0.1-0.1-0.2-0.2-0.3-0.3
	c-0.2-0.1-0.3-0.3-0.4-0.4c-0.1-0.1-0.2-0.2-0.3-0.3s-0.3-0.3-0.4-0.5c-0.1-0.1-0.2-0.2-0.2-0.4c-0.1-0.2-0.2-0.4-0.3-0.5
	s-0.1-0.2-0.2-0.4V671c1.1-0.4,2.1-0.7,3.2-0.9c0.5-0.1,0.8-0.5,0.8-1v-2v-1.3c0-0.5-0.4-0.9-0.8-1c-8.3-1.4-14.3-8.5-14.3-16.9
	v-11.4c1-2.1,4.2-7.7,10.6-9.8c0.4-0.1,0.9-0.3,1.3-0.4c0.9,3.6,4.7,15.7,15.7,15.7c2.6,0,4.9-0.6,6.8-1.7v7.6
	c0,8.4-6,15.5-14.3,16.9c-0.5,0.1-0.8,0.5-0.8,1v1.3v2c0,0.5,0.4,0.9,0.8,1C177.5,670.2,178.6,670.5,179.8,670.9z M149.9,637.3
	c0-6.5,2.7-12.9,7.4-17.5c4.6-4.5,10.5-6.9,16.7-6.8c12.9,0.2,23.4,10.8,23.4,23.7v25.8c0,1.9-1.6,3.5-3.5,3.5h-14.3
	c0.3-0.1,0.6-0.2,0.8-0.3c0.2-0.1,0.3-0.1,0.5-0.2c0.4-0.2,0.8-0.3,1.2-0.5c0.1,0,0.2-0.1,0.3-0.1c0.5-0.2,0.9-0.5,1.4-0.8
	c0.1-0.1,0.2-0.2,0.4-0.2c0.3-0.2,0.6-0.4,0.9-0.6c0.2-0.1,0.3-0.2,0.5-0.4c0.3-0.2,0.5-0.4,0.7-0.6c0.2-0.1,0.3-0.3,0.5-0.4
	c0.2-0.2,0.4-0.4,0.6-0.6c0.2-0.2,0.3-0.3,0.5-0.5c0.2-0.2,0.4-0.4,0.6-0.7c0.1-0.2,0.3-0.4,0.4-0.5c0.2-0.2,0.3-0.5,0.5-0.7
	c0.1-0.2,0.3-0.4,0.4-0.6c0.2-0.2,0.3-0.5,0.5-0.7c0.1-0.2,0.2-0.4,0.3-0.6c0.1-0.3,0.3-0.5,0.4-0.8c0.1-0.2,0.2-0.4,0.3-0.6
	c0.1-0.3,0.2-0.5,0.3-0.8c0.1-0.2,0.2-0.4,0.2-0.6c0.1-0.3,0.2-0.6,0.3-0.9c0.1-0.2,0.1-0.4,0.2-0.6c0.1-0.3,0.1-0.6,0.2-0.9
	c0-0.2,0.1-0.4,0.1-0.6c0.1-0.3,0.1-0.7,0.1-1.1c0-0.2,0-0.4,0.1-0.5c0-0.5,0.1-1.1,0.1-1.6v-9c0-0.2,0-0.4,0-0.6v-0.1v-0.1
	c0-0.4-0.3-0.7-0.6-0.9c-0.4-0.1-0.8-0.1-1.1,0.2c-1.1,1-2.5,1.7-4,2.1c-0.9,0.2-2,0.3-3,0.3c-11.1,0-13.9-14.9-13.9-15.1
	c-0.1-0.5-0.6-0.9-1.2-0.8c-9.1,1.6-13.3,9.4-14.4,11.7c-0.1,0.1-0.1,0.3-0.1,0.4v11.7c0,0.5,0,1.1,0.1,1.6c0,0.2,0,0.4,0.1,0.5
	c0,0.4,0.1,0.7,0.1,1.1c0,0.2,0.1,0.4,0.1,0.6c0.1,0.3,0.1,0.6,0.2,0.9c0.1,0.2,0.1,0.4,0.2,0.6c0.1,0.3,0.2,0.6,0.3,0.9
	c0.1,0.2,0.2,0.4,0.2,0.6c0.1,0.3,0.2,0.5,0.3,0.8c0.1,0.2,0.2,0.4,0.3,0.6c0.1,0.3,0.3,0.5,0.4,0.8c0.1,0.2,0.2,0.4,0.3,0.6
	c0.1,0.2,0.3,0.5,0.5,0.7c0.1,0.2,0.3,0.4,0.4,0.6c0.2,0.2,0.3,0.5,0.5,0.7c0.1,0.2,0.3,0.4,0.4,0.5c0.2,0.2,0.4,0.4,0.6,0.7
	c0.1,0.2,0.3,0.3,0.5,0.5c0.2,0.2,0.4,0.4,0.6,0.6c0.2,0.1,0.3,0.3,0.5,0.4c0.2,0.2,0.5,0.4,0.7,0.6c0.2,0.1,0.3,0.2,0.5,0.4
	c0.3,0.2,0.6,0.4,0.9,0.6c0.1,0.1,0.2,0.2,0.4,0.2c0.4,0.3,0.9,0.5,1.4,0.8c0.1,0,0.2,0.1,0.3,0.1c0.4,0.2,0.8,0.4,1.2,0.5
	c0.2,0.1,0.3,0.1,0.5,0.2c0.3,0.1,0.6,0.2,0.8,0.3h-14.3c-1.9,0-3.5-1.6-3.5-3.5v-25L149.9,637.3L149.9,637.3z"/>
<path d="M153.4,668h16.2v0.2c-1.3,0.3-2.5,0.7-3.7,1.2c-6.9,3.1-11.4,10-11.4,17.5v4.8c0,0.6,0.4,1,1,1h36.4c0.6,0,1-0.4,1-1v-4.8
	c0-7.5-4.5-14.4-11.4-17.5c-1.2-0.5-2.5-1-3.7-1.2V668h16.1c3,0,5.5-2.5,5.5-5.5v-25.8c0-14-11.4-25.6-25.4-25.7
	c-6.8-0.1-13.2,2.5-18.1,7.4c-5.1,5-8,11.9-8,18.9v25.3C147.9,665.6,150.4,668,153.4,668z M190.8,686.9v3.8h-34.4v-3.8
	c0-6.4,3.6-12.2,9.2-15.2c0,0,0,0,0,0.1c0.1,0.3,0.3,0.7,0.5,1c0,0.1,0.1,0.1,0.1,0.2c0.2,0.3,0.4,0.6,0.6,0.9l0.1,0.1
	c0.2,0.3,0.5,0.6,0.8,0.8l0,0c0.3,0.3,0.6,0.5,0.9,0.7c0,0,0.1,0,0.1,0.1c0.3,0.2,0.6,0.4,1,0.5c0.1,0,0.1,0.1,0.2,0.1
	c0.3,0.2,0.7,0.3,1,0.4c0.1,0,0.1,0,0.2,0.1c0.4,0.1,0.7,0.2,1.1,0.2h0.1c0.4,0.1,0.8,0.1,1.2,0.1s0.8,0,1.2-0.1h0.1
	c0.4-0.1,0.7-0.1,1.1-0.2c0.1,0,0.1,0,0.2-0.1c0.3-0.1,0.7-0.2,1-0.4c0.1,0,0.1-0.1,0.2-0.1c0.3-0.2,0.7-0.3,1-0.5
	c0,0,0.1,0,0.1-0.1c0.3-0.2,0.6-0.4,0.9-0.7l0,0c0.3-0.3,0.5-0.5,0.8-0.8l0.1-0.1c0.2-0.3,0.4-0.6,0.6-0.9c0-0.1,0.1-0.1,0.1-0.2
	c0.2-0.3,0.4-0.6,0.5-1c0,0,0,0,0-0.1C187.1,674.7,190.8,680.5,190.8,686.9z M179.8,670.9L179.8,670.9c-0.1,0.2-0.1,0.4-0.2,0.5
	c-0.1,0.2-0.2,0.4-0.3,0.5s-0.2,0.2-0.3,0.4s-0.2,0.3-0.4,0.5c-0.1,0.1-0.2,0.2-0.3,0.3s-0.3,0.3-0.4,0.4c-0.1,0.1-0.2,0.2-0.3,0.3
	c-0.2,0.1-0.3,0.2-0.5,0.3c-0.1,0.1-0.2,0.1-0.4,0.2c-0.2,0.1-0.4,0.2-0.6,0.3c-0.1,0-0.2,0.1-0.4,0.1c-0.2,0.1-0.4,0.1-0.7,0.2
	c-0.1,0-0.2,0.1-0.3,0.1c-0.3,0.1-0.7,0.1-1.1,0.1s-0.7,0-1.1-0.1c-0.1,0-0.2-0.1-0.3-0.1c-0.2,0-0.5-0.1-0.7-0.2
	c-0.1,0-0.3-0.1-0.4-0.1c-0.2-0.1-0.4-0.2-0.6-0.2c-0.1-0.1-0.2-0.1-0.4-0.2c-0.2-0.1-0.3-0.2-0.5-0.3c-0.1-0.1-0.2-0.2-0.3-0.3
	c-0.2-0.1-0.3-0.3-0.4-0.4c-0.1-0.1-0.2-0.2-0.3-0.3s-0.3-0.3-0.4-0.5c-0.1-0.1-0.2-0.2-0.2-0.4c-0.1-0.2-0.2-0.4-0.3-0.5
	s-0.1-0.2-0.2-0.4V671c1.1-0.4,2.1-0.7,3.2-0.9c0.5-0.1,0.8-0.5,0.8-1v-2v-1.3c0-0.5-0.4-0.9-0.8-1c-8.3-1.4-14.3-8.5-14.3-16.9
	v-11.4c1-2.1,4.2-7.7,10.6-9.8c0.4-0.1,0.9-0.3,1.3-0.4c0.9,3.6,4.7,15.7,15.7,15.7c2.6,0,4.9-0.6,6.8-1.7v7.6
	c0,8.4-6,15.5-14.3,16.9c-0.5,0.1-0.8,0.5-0.8,1v1.3v2c0,0.5,0.4,0.9,0.8,1C177.5,670.2,178.6,670.5,179.8,670.9z M149.9,637.3
	c0-6.5,2.7-12.9,7.4-17.5c4.6-4.5,10.5-6.9,16.7-6.8c12.9,0.2,23.4,10.8,23.4,23.7v25.8c0,1.9-1.6,3.5-3.5,3.5h-14.3
	c0.3-0.1,0.6-0.2,0.8-0.3c0.2-0.1,0.3-0.1,0.5-0.2c0.4-0.2,0.8-0.3,1.2-0.5c0.1,0,0.2-0.1,0.3-0.1c0.5-0.2,0.9-0.5,1.4-0.8
	c0.1-0.1,0.2-0.2,0.4-0.2c0.3-0.2,0.6-0.4,0.9-0.6c0.2-0.1,0.3-0.2,0.5-0.4c0.3-0.2,0.5-0.4,0.7-0.6c0.2-0.1,0.3-0.3,0.5-0.4
	c0.2-0.2,0.4-0.4,0.6-0.6c0.2-0.2,0.3-0.3,0.5-0.5c0.2-0.2,0.4-0.4,0.6-0.7c0.1-0.2,0.3-0.4,0.4-0.5c0.2-0.2,0.3-0.5,0.5-0.7
	c0.1-0.2,0.3-0.4,0.4-0.6c0.2-0.2,0.3-0.5,0.5-0.7c0.1-0.2,0.2-0.4,0.3-0.6c0.1-0.3,0.3-0.5,0.4-0.8c0.1-0.2,0.2-0.4,0.3-0.6
	c0.1-0.3,0.2-0.5,0.3-0.8c0.1-0.2,0.2-0.4,0.2-0.6c0.1-0.3,0.2-0.6,0.3-0.9c0.1-0.2,0.1-0.4,0.2-0.6c0.1-0.3,0.1-0.6,0.2-0.9
	c0-0.2,0.1-0.4,0.1-0.6c0.1-0.3,0.1-0.7,0.1-1.1c0-0.2,0-0.4,0.1-0.5c0-0.5,0.1-1.1,0.1-1.6v-9c0-0.2,0-0.4,0-0.6v-0.1v-0.1
	c0-0.4-0.3-0.7-0.6-0.9c-0.4-0.1-0.8-0.1-1.1,0.2c-1.1,1-2.5,1.7-4,2.1c-0.9,0.2-2,0.3-3,0.3c-11.1,0-13.9-14.9-13.9-15.1
	c-0.1-0.5-0.6-0.9-1.2-0.8c-9.1,1.6-13.3,9.4-14.4,11.7c-0.1,0.1-0.1,0.3-0.1,0.4v11.7c0,0.5,0,1.1,0.1,1.6c0,0.2,0,0.4,0.1,0.5
	c0,0.4,0.1,0.7,0.1,1.1c0,0.2,0.1,0.4,0.1,0.6c0.1,0.3,0.1,0.6,0.2,0.9c0.1,0.2,0.1,0.4,0.2,0.6c0.1,0.3,0.2,0.6,0.3,0.9
	c0.1,0.2,0.2,0.4,0.2,0.6c0.1,0.3,0.2,0.5,0.3,0.8c0.1,0.2,0.2,0.4,0.3,0.6c0.1,0.3,0.3,0.5,0.4,0.8c0.1,0.2,0.2,0.4,0.3,0.6
	c0.1,0.2,0.3,0.5,0.5,0.7c0.1,0.2,0.3,0.4,0.4,0.6c0.2,0.2,0.3,0.5,0.5,0.7c0.1,0.2,0.3,0.4,0.4,0.5c0.2,0.2,0.4,0.4,0.6,0.7
	c0.1,0.2,0.3,0.3,0.5,0.5c0.2,0.2,0.4,0.4,0.6,0.6c0.2,0.1,0.3,0.3,0.5,0.4c0.2,0.2,0.5,0.4,0.7,0.6c0.2,0.1,0.3,0.2,0.5,0.4
	c0.3,0.2,0.6,0.4,0.9,0.6c0.1,0.1,0.2,0.2,0.4,0.2c0.4,0.3,0.9,0.5,1.4,0.8c0.1,0,0.2,0.1,0.3,0.1c0.4,0.2,0.8,0.4,1.2,0.5
	c0.2,0.1,0.3,0.1,0.5,0.2c0.3,0.1,0.6,0.2,0.8,0.3h-14.3c-1.9,0-3.5-1.6-3.5-3.5v-25L149.9,637.3L149.9,637.3z"/>
<path class="st0" d="M181.4,102.7c-0.7-0.5-1.7-0.5-2.4-0.2c-3.6,1.7-7,1.6-10-0.4c-6.6-4.2-10.5-16.2-10.5-32c0-0.7,0-1.5,0-2.5
	c-0.6-35.4-29.7-64.6-65.1-65.1c-0.3,0-0.6,0-0.9,0c-17,0-33.2,6.7-45.7,19.1C33.7,34.4,26.3,52,26.3,70v0.1
	c0,15.8-4,27.8-10.5,31.9c-3.1,1.9-6.5,2.1-10,0.4c-0.8-0.3-1.7-0.3-2.5,0.2s-1.2,1.2-1.2,2.2c0,1.9,0.1,3.6,0.2,5.3
	c2,16.2,15.2,29.7,31.4,32c1.7,0.2,3.6,0.3,5.3,0.3c8,0,15.7-2.6,22-7.4c6,5,13.2,8.5,20.8,10.2v4.2c-3.2,0.7-6.5,1.7-9.5,3.1
	c-1.3,0.6-2.7,1.2-4.1,2.2l0,0c-15.4,8.8-25,25.1-25,42.7v12.4c0,1.4,1.2,2.6,2.6,2.6H139c1.4,0,2.6-1.2,2.6-2.6v-12.3
	c0-7-1.5-13.8-4.4-20.1c-5-11-13.8-19.7-24.9-24.7c-3.1-1.4-6.3-2.5-9.5-3.1v-4.2c7.9-1.7,15-5.3,20.9-10.1c7.9,5.9,17.5,8.4,27.3,7
	c16.2-2.2,29.4-15.7,31.4-32c0.2-1.7,0.2-3.4,0.2-5.3C182.6,103.9,182.2,103.1,181.4,102.7z M136.4,207.2H48.2v-9.8
	c0-14.7,7.5-28.4,19.7-36.5c0,0.1,0.1,0.2,0.1,0.2c0.2,0.4,0.3,0.7,0.5,1.2c0.3,0.7,0.7,1.5,1.1,2.2c0.2,0.4,0.5,0.8,0.7,1.2
	c0.4,0.7,0.7,1.2,1.2,1.9c0.2,0.4,0.6,0.7,0.9,1.2c0.4,0.6,0.9,1.1,1.4,1.7c0.3,0.3,0.7,0.7,1.1,1.1c0.5,0.5,1.1,1,1.6,1.4
	c0.4,0.3,0.7,0.7,1.2,0.9c0.6,0.4,1.2,0.8,1.8,1.2c0.4,0.2,0.8,0.5,1.2,0.7c0.7,0.4,1.4,0.7,2.2,1.1c0.3,0.2,0.7,0.3,1.1,0.5
	c1.2,0.5,2.3,0.8,3.6,1.2l22.5,5.9c1.2,0.3,2.5,0.6,3.7,0.7c0.3,0.1,0.7,0.1,1.1,0.2c1,0.1,2,0.2,3,0.2c0.2,0,0.4,0,0.7,0
	c0.1,0,0.2,0,0.3,0c0.2,0,0.4,0,0.7,0c0.7,0,1.4-0.1,2.1-0.2c0.2,0,0.6-0.1,0.8-0.1c0.7-0.1,1.4-0.2,2.2-0.3c0.2,0,0.4-0.1,0.6-0.1
	c0.9-0.2,1.8-0.4,2.7-0.7c0.2-0.1,0.3-0.1,0.5-0.2c0.7-0.2,1.4-0.4,2.1-0.7c0.2-0.1,0.5-0.2,0.8-0.3c0.7-0.2,1.2-0.5,1.8-0.8
	c0.2-0.1,0.3-0.2,0.5-0.2c1.9,5,2.8,10.1,2.8,15.5v9.8H136.4z M99.8,140.6c-1.2,0.2-2.2,1.2-2.2,2.6v8.5c0,1.2,0.9,2.3,2.2,2.6
	c3.6,0.6,7,1.7,10.4,3.2c9.1,4.1,16.6,11.2,21.2,20c-0.1,0.1-0.2,0.1-0.2,0.2c-0.3,0.2-0.7,0.3-1,0.5c-0.5,0.2-1,0.4-1.5,0.7
	c-0.3,0.2-0.7,0.2-1.1,0.4c-0.5,0.2-1,0.3-1.6,0.5c-0.3,0.1-0.7,0.2-1.2,0.2c-0.5,0.1-1.1,0.2-1.6,0.3c-0.4,0.1-0.7,0.2-1.2,0.2
	c-0.5,0.1-1.1,0.1-1.6,0.2c-0.4,0-0.7,0.1-1.2,0.1c-0.6,0-1.1,0-1.7,0c-0.3,0-0.7,0-1.1,0c-0.6,0-1.2-0.1-1.8-0.2
	c-0.3,0-0.6-0.1-0.9-0.1c-0.9-0.2-1.8-0.3-2.7-0.6l-22.5-5.9c-1-0.2-2-0.6-2.9-1c-0.3-0.2-0.6-0.3-0.9-0.4c-0.6-0.2-1.2-0.6-1.8-0.9
	c-0.3-0.2-0.7-0.4-1-0.7c-0.5-0.3-1-0.7-1.5-1c-0.3-0.2-0.7-0.6-1-0.8c-0.4-0.3-0.9-0.7-1.3-1.2c-0.3-0.3-0.6-0.7-0.9-1
	c-0.4-0.4-0.7-0.8-1.1-1.2c-0.2-0.3-0.6-0.7-0.8-1.1c-0.3-0.5-0.7-0.9-0.9-1.4c-0.2-0.4-0.4-0.8-0.7-1.2c-0.2-0.5-0.5-1-0.7-1.5
	c-0.2-0.4-0.3-0.8-0.5-1.3c-0.1-0.2-0.2-0.4-0.2-0.7c0.7-0.3,1.3-0.7,1.9-0.9c3.4-1.5,6.9-2.6,10.4-3.2c1.2-0.2,2.2-1.2,2.2-2.6
	v-8.5c0-1.2-0.9-2.3-2.2-2.6c-8-1.4-15.4-5.1-21.5-10.4c-0.7-0.7-1.3-1.2-2-1.8c-0.7-0.7-1.3-1.3-2-2.1c-4.7-5.3-7-12.4-6.2-19.5
	c0.2-1.7,0.6-3.3,1.1-4.9c1.5-4.6,4.5-8.7,8.5-11.6c0,0,0.1,0,0.1-0.1c1-0.7,2.1-1.3,3.2-2c0.4-0.2,0.8-0.4,1.2-0.7
	c1.2-0.6,2.4-1.2,3.6-1.7c30-11.7,36.2-31.1,37.5-38.8c19.8,6,28,23.8,28.1,23.9c0.2,0.5,0.7,0.9,1.2,1.2c0.1,0.1,0.2,0.2,0.2,0.2
	l0,0l0,0c0.5,0.2,1.1,0.4,1.7,0.8c1.2,0.7,2.2,1.6,3,2.6c0.1,0.1,0.2,0.2,0.2,0.3c0.2,0.2,0.3,0.5,0.5,0.7c0.1,0.2,0.2,0.3,0.3,0.5
	c0.2,0.2,0.2,0.5,0.4,0.7c0.1,0.2,0.2,0.4,0.2,0.7s0.2,0.5,0.2,0.7c0.1,0.2,0.2,0.6,0.2,0.9c0,0.2,0.1,0.4,0.1,0.6
	c0.1,0.5,0.1,1,0.1,1.5c0,4.5-2.9,8.5-7.1,10c-1,0.3-1.7,1.3-1.7,2.4V97c0,1.4-0.1,2.8-0.2,4.1c-0.8,9-4.5,17.3-10,24
	c-0.1,0.1-0.2,0.2-0.2,0.3c-0.4,0.5-0.8,0.9-1.2,1.4c-0.8,0.9-1.7,1.8-2.7,2.7c-0.1,0.1-0.1,0.2-0.2,0.2
	C115.8,135.3,108.2,139.1,99.8,140.6z M177.3,109.5c-1.7,14-13.1,25.6-27,27.5c-8.2,1.2-16.2-0.7-22.8-5.4l0,0
	c0.5-0.5,0.9-1,1.3-1.4c7.4-7.8,11.6-17.5,12.5-28.5c0.2-1.5,0.2-2.9,0.2-4.4v-0.2c5.4-2.7,8.9-8.1,8.9-14.2c0-0.7-0.1-1.5-0.2-2.2
	c0-0.2-0.1-0.6-0.2-0.8c-0.1-0.4-0.2-0.8-0.2-1.2c-0.1-0.3-0.2-0.7-0.3-1c-0.1-0.3-0.2-0.7-0.4-1c-0.2-0.3-0.3-0.7-0.5-1.1
	c-0.2-0.2-0.3-0.6-0.5-0.8c-0.2-0.3-0.5-0.7-0.7-1.1c-0.2-0.2-0.3-0.4-0.5-0.7c-0.2-0.3-0.6-0.7-0.9-1c-0.2-0.2-0.3-0.3-0.5-0.5
	c-0.3-0.3-0.7-0.7-1.1-0.9c-0.2-0.2-0.3-0.2-0.5-0.4c-0.4-0.3-0.8-0.6-1.3-0.9l-0.1-0.1c-0.3-0.2-0.7-0.3-1.1-0.6
	c-0.2-0.1-0.3-0.2-0.5-0.2c-0.4-0.7-1.1-2-1.9-3.4c-0.1-0.1-0.1-0.2-0.2-0.2c-0.2-0.2-0.3-0.5-0.5-0.8c-0.2-0.2-0.3-0.6-0.6-0.8
	c-0.1-0.1-0.2-0.2-0.2-0.3c-4.9-6.9-14.5-17.2-30.5-21c-0.7-0.2-1.6,0-2.2,0.5c-0.5,0.4-0.8,1-0.9,1.7c0,0.1-0.1,0.2-0.1,0.3v0.1
	c-0.1,1.6-1.7,22.9-31.3,35.6c-0.1,0-0.1,0.1-0.2,0.1c-0.4,0.2-0.7,0.3-1.2,0.5c-0.7,0.2-1.2,0.5-1.9,0.7c-1.2,0.4-2.2,0.9-3.6,1.6
	c-0.2,0.1-0.4,0.2-0.7,0.3c-0.5,0.2-0.9,0.5-1.3,0.7c-1.3,0.7-2.7,1.5-3.8,2.3c-6.6,4.7-10.8,11.8-11.7,20.1
	c-0.1,1.1-0.2,2.2-0.2,3.1c0,7.4,2.7,14.7,7.6,20.2c0,0.1,0.1,0.1,0.1,0.1c0.5,0.6,1,1.1,1.6,1.7c-6.6,4.6-14.7,6.5-22.8,5.5
	C20.5,135.1,9,123.5,7.4,109.5c-0.1-0.3-0.1-0.7-0.1-1c3.9,0.8,7.8,0.2,11.2-2c8.2-5.2,12.9-18.4,12.9-36.2v-0.1
	c0-16.7,6.9-33,18.9-44.8C61.8,14,76.7,7.8,92.4,7.8c0.2,0,0.6,0,0.8,0c32.6,0.4,59.6,27.3,60.1,60c0,0.9,0,1.7,0,2.4
	c0,17.9,4.7,31.1,12.9,36.3c3.4,2.2,7.3,2.8,11.2,2C177.3,108.8,177.3,109.1,177.3,109.5z"/>
</svg>
