<?xml version="1.0" encoding="utf-8"?>
<!-- Generator: Adobe Illustrator 22.1.0, SVG Export Plug-In . SVG Version: 6.00 Build 0)  -->
<svg version="1.1" id="Layer_1" xmlns="http://www.w3.org/2000/svg" xmlns:xlink="http://www.w3.org/1999/xlink" x="0px" y="0px"
	 viewBox="0 0 265 265" style="enable-background:new 0 0 265 265;" xml:space="preserve">
<style type="text/css">
	.st0{fill:#AED477;}
</style>
<g>
	<path class="st0" d="M58.1,77.4c-3.3,3.5-5.4,8.3-5.4,13.5c0,9.1,6.2,16.9,14.8,19.1v2.3c0,30.2,21,56,50.4,62.4v5.5
		c-4.2,0.9-8.4,2.3-12.4,4.1c-23,10.3-37.9,33.2-37.9,58.3v16.1c0,1.8,1.5,3.3,3.3,3.3H192c1.8,0,3.3-1.5,3.3-3.3v-16.1
		c0-25.1-14.9-47.9-37.9-58.3c-4-1.8-8.2-3.2-12.4-4.1v-5.5c29.3-6.4,50.4-32.2,50.4-62.4V110c8.6-2.2,14.8-10,14.8-19.1
		c0-4.7-1.7-9.1-4.5-12.5c7.2-5.6,11.6-14.3,11.6-23.6c0-16.5-13.4-29.9-29.9-29.9h-7.9C167.8,11.5,150.6,3,131.4,3
		s-36.3,8.5-48.1,21.9h-5.8c-16.5,0-29.9,13.4-29.9,29.9C47.7,63.6,51.5,71.8,58.1,77.4z M188.7,242.6v12.7H74.2v-12.7
		c0-21.3,12-40.8,30.8-50.7c0.1,0.2,0.2,0.3,0.3,0.5c0.2,0.3,0.3,0.7,0.5,1c0.2,0.5,0.5,0.9,0.8,1.4c0.2,0.3,0.4,0.7,0.6,1
		c0.3,0.5,0.6,1,1,1.5c0.2,0.3,0.4,0.7,0.7,1c0.4,0.5,0.7,1.1,1.1,1.6c0.2,0.3,0.4,0.6,0.6,0.9c0.4,0.6,0.9,1.2,1.4,1.8
		c0.2,0.2,0.3,0.5,0.5,0.7c1.3,1.7,2.7,3.4,4.1,5c0.1,0.2,0.3,0.3,0.4,0.5c0.6,0.6,1.1,1.3,1.6,1.9c0.2,0.2,0.4,0.5,0.6,0.7
		c0.5,0.5,0.9,1,1.4,1.5c0.2,0.2,0.4,0.5,0.7,0.7c0.4,0.5,0.8,0.9,1.2,1.4c0.2,0.2,0.4,0.4,0.6,0.7c0.4,0.4,0.8,0.8,1.2,1.2
		c0.2,0.2,0.4,0.4,0.5,0.6c0.4,0.4,0.7,0.7,1,1.1c0.2,0.2,0.3,0.3,0.5,0.5c0.3,0.3,0.6,0.6,0.8,0.8c0.1,0.1,0.3,0.3,0.4,0.4
		c0.3,0.3,0.5,0.5,0.7,0.7c0.1,0.1,0.2,0.2,0.2,0.2c0.3,0.2,0.5,0.5,0.6,0.6c0.6,0.6,1.5,1,2.3,1s1.7-0.3,2.3-1
		c0.1-0.1,0.3-0.3,0.6-0.6c0.1-0.1,0.2-0.2,0.3-0.3c0.2-0.2,0.4-0.4,0.7-0.7c0.1-0.1,0.3-0.3,0.4-0.4c0.3-0.3,0.5-0.5,0.8-0.8
		c0.2-0.2,0.3-0.3,0.5-0.5c0.3-0.3,0.6-0.7,1-1c0.2-0.2,0.4-0.4,0.6-0.6c0.4-0.4,0.7-0.8,1.1-1.2c0.2-0.2,0.4-0.4,0.6-0.7
		c0.4-0.4,0.8-0.9,1.2-1.3c0.2-0.3,0.5-0.5,0.7-0.8c0.4-0.5,0.9-1,1.3-1.5c0.2-0.3,0.5-0.5,0.7-0.8c0.5-0.6,1-1.2,1.6-1.8
		c0.2-0.2,0.3-0.4,0.5-0.6c1.4-1.6,2.7-3.3,4.1-5c0.2-0.2,0.4-0.5,0.6-0.7c0.5-0.6,0.9-1.2,1.3-1.8c0.2-0.3,0.4-0.6,0.7-0.9
		c0.4-0.5,0.8-1.1,1.1-1.6c0.2-0.3,0.4-0.7,0.7-1c0.3-0.5,0.6-1,0.9-1.5c0.2-0.3,0.4-0.7,0.6-1c0.3-0.5,0.5-0.9,0.8-1.4
		c0.2-0.3,0.4-0.7,0.5-1c0.1-0.2,0.2-0.3,0.3-0.5C176.7,201.8,188.7,221.3,188.7,242.6z M187.4,31.2c13,0,23.6,10.6,23.6,23.6
		c0,7.7-3.8,14.9-10.2,19.3c-1.7-1-3.5-1.9-5.5-2.4v-4.8c0-13.2-4-25.5-10.9-35.7H187.4z M131.4,9.7c31.6,0,57.3,25.7,57.3,57.3v7.6
		c0,1.7,1.3,3.1,3,3.3c6.7,0.7,11.8,6.3,11.8,13s-5.1,12.3-11.8,13c-1.7,0.2-3,1.6-3,3.3v5.1c0,27.9-20,51.6-47.6,56.4
		c-1.6,0.3-2.8,1.7-2.8,3.3v11c0,1.6,1.2,3,2.8,3.3c3.6,0.6,7.2,1.6,10.7,3v0.1c-0.4,0.9-0.9,1.8-1.5,2.7c-0.1,0.2-0.2,0.3-0.3,0.5
		c-0.6,0.9-1.2,1.9-1.9,2.9c-0.1,0.2-0.2,0.3-0.4,0.5c-0.7,1-1.5,2-2.3,3.1c-0.1,0.1-0.2,0.2-0.2,0.3c-0.8,1-1.6,2.1-2.5,3.1
		c-0.1,0.1-0.1,0.2-0.2,0.3c-0.9,1-1.7,2.1-2.6,3.1c-0.1,0.2-0.3,0.3-0.4,0.5c-0.8,1-1.7,1.9-2.5,2.8c-0.2,0.2-0.3,0.4-0.5,0.5
		c-0.8,0.9-1.6,1.8-2.4,2.6c-0.1,0.1-0.2,0.2-0.3,0.3c-0.8,0.8-1.6,1.7-2.3,2.4c-0.7-0.7-1.5-1.5-2.3-2.4c-0.1-0.1-0.2-0.2-0.3-0.4
		c-0.8-0.8-1.6-1.7-2.4-2.6c-0.2-0.2-0.3-0.4-0.5-0.6c-0.8-0.9-1.7-1.8-2.5-2.8c-0.1-0.2-0.3-0.3-0.5-0.5c-0.9-1-1.7-2-2.6-3.1
		c-0.1-0.1-0.2-0.2-0.2-0.3c-0.8-1-1.7-2.1-2.5-3.1c-0.1-0.1-0.2-0.2-0.3-0.3c-0.8-1-1.6-2.1-2.3-3.1c-0.1-0.2-0.2-0.3-0.4-0.5
		c-0.7-1-1.3-2-1.9-2.9c-0.1-0.2-0.2-0.3-0.3-0.5c-0.6-0.9-1.1-1.9-1.5-2.7v-0.1c3.5-1.4,7.1-2.3,10.7-3c1.6-0.3,2.8-1.7,2.8-3.3
		v-11c0-1.6-1.2-3-2.8-3.3c-27.6-4.8-47.6-28.5-47.6-56.4V107c0-1.7-1.3-3.1-3-3.3c-6.7-0.7-11.8-6.3-11.8-13s5.1-12.3,11.8-13
		c1.7-0.2,3-1.6,3-3.3v-7.6C74.2,35.4,99.9,9.7,131.4,9.7z M77.6,31.2h0.8c-6.9,10.2-10.9,22.5-10.9,35.7v4.8
		c-1.5,0.4-2.9,1-4.3,1.7C57.4,69,54,62.2,54,54.8C54,41.8,64.6,31.2,77.6,31.2z"/>
	<path class="st0" d="M104.2,40h12.4c4.6,0,9.1-1.6,12.6-4.4l2.2-1.8l2.1,1.7c3.6,2.9,8.1,4.5,12.7,4.5h12.5c0.9,0,1.7-0.7,1.7-1.7
		s-0.7-1.7-1.7-1.7h-12.5c-3.9,0-7.6-1.3-10.6-3.8l-3.1-2.5c-0.6-0.5-1.5-0.5-2.1,0l-3.3,2.6c-3,2.4-6.7,3.7-10.5,3.7h-12.4
		c-0.9,0-1.7,0.7-1.7,1.7S103.3,40,104.2,40z"/>
	<path class="st0" d="M97.5,52h19c4.6,0,9.1-1.6,12.6-4.4l2.2-1.8l2.1,1.7c3.6,2.9,8.1,4.5,12.7,4.5h19.1c0.9,0,1.7-0.7,1.7-1.7
		s-0.7-1.7-1.7-1.7h-19.1c-3.9,0-7.6-1.3-10.6-3.8l-3.1-2.5c-0.6-0.5-1.5-0.5-2.1,0l-3.3,2.6c-3,2.4-6.7,3.7-10.5,3.7h-19
		c-0.9,0-1.7,0.7-1.7,1.7S96.6,52,97.5,52z"/>
</g>
<path class="st0" d="M-159.8,208.1c12.5,9.8,30,9.2,41.7-1.7c0,0,0.3-0.3,0.8-0.3s0.7,0.2,0.8,0.2c0,0,0,0,0.1,0.1
	c6.2,5.7,14,8.6,21.8,8.6c7,0,14-2.3,19.9-7l4-3.2c1-0.8,1.5-2.2,1.2-3.4c-0.3-1.3-1.3-2.2-2.6-2.5c-10.1-1.8-19.1-7.2-25.6-15.1
	c-3.6-4.5-10.2-5.2-14.7-1.6l-3.6,2.8l-1.3,0.9l-4.8-3.7c-4.5-3.6-11.1-2.8-14.7,1.6c-6.4,7.9-15.5,13.3-25.6,15.1
	c-1.3,0.2-2.3,1.2-2.6,2.5c-0.3,1.3,0.1,2.6,1.2,3.4L-159.8,208.1z M-131.6,188.1c1.3-1.6,3.7-1.9,5.4-0.6l4,3.1l3.1,2.1
	c1.1,0.8,2.6,0.8,3.7,0l3.4-2.3l3.8-3c1.6-1.3,4.1-1,5.4,0.6c6,7.3,13.9,12.8,22.8,15.8c-9.8,6.7-22.8,5.9-31.7-2.2
	c-0.6-0.5-2.4-2.1-5.5-2.1c-3.3,0-5.2,1.9-5.4,2.1c-8.8,8.2-21.9,9-31.7,2.3C-145.5,200.9-137.6,195.5-131.6,188.1z"/>
</svg>
