<?xml version="1.0" encoding="utf-8"?>
<!-- Generator: Adobe Illustrator 22.1.0, SVG Export Plug-In . SVG Version: 6.00 Build 0)  -->
<svg version="1.1" id="Layer_1" xmlns="http://www.w3.org/2000/svg" xmlns:xlink="http://www.w3.org/1999/xlink" x="0px" y="0px"
	 viewBox="0 0 185 215" style="enable-background:new 0 0 185 215;" xml:space="preserve">
<style type="text/css">
	.st0{fill:#AED477;}
</style>
<g>
	<path class="st0" d="M30.9,63c-2.7,2.8-4.3,6.7-4.3,10.9c0,7.3,5,13.6,11.9,15.4v1.9c0,24.3,16.9,45.1,40.6,50.3v4.4
		c-3.4,0.7-6.8,1.9-10,3.3c-18.5,8.3-30.5,26.7-30.5,47v13c0,1.4,1.2,2.7,2.7,2.7h97.5c1.4,0,2.7-1.2,2.7-2.7v-13
		c0-20.2-12-38.6-30.5-47c-3.2-1.4-6.6-2.6-10-3.3v-4.4c23.6-5.2,40.6-25.9,40.6-50.3v-1.9c6.9-1.8,11.9-8.1,11.9-15.4
		c0-3.8-1.4-7.3-3.6-10.1c5.8-4.5,9.3-11.5,9.3-19c0-13.3-10.8-24.1-24.1-24.1h-6.4C119.3,10,105.4,3.1,90,3.1S60.7,10,51.2,20.8
		h-4.7c-13.3,0-24.1,10.8-24.1,24.1C22.6,51.9,25.6,58.5,30.9,63z M136.1,196.1v10.2H43.9v-10.2c0-17.2,9.7-32.9,24.8-40.8
		c0.1,0.2,0.2,0.2,0.2,0.4c0.2,0.2,0.2,0.6,0.4,0.8c0.2,0.4,0.4,0.7,0.6,1.1c0.2,0.2,0.3,0.6,0.5,0.8c0.2,0.4,0.5,0.8,0.8,1.2
		c0.2,0.2,0.3,0.6,0.6,0.8c0.3,0.4,0.6,0.9,0.9,1.3c0.2,0.2,0.3,0.5,0.5,0.7c0.3,0.5,0.7,1,1.1,1.4c0.2,0.2,0.2,0.4,0.4,0.6
		c1,1.4,2.2,2.7,3.3,4c0.1,0.2,0.2,0.2,0.3,0.4c0.5,0.5,0.9,1,1.3,1.5c0.2,0.2,0.3,0.4,0.5,0.6c0.4,0.4,0.7,0.8,1.1,1.2
		c0.2,0.2,0.3,0.4,0.6,0.6c0.3,0.4,0.6,0.7,1,1.1c0.2,0.2,0.3,0.3,0.5,0.6c0.3,0.3,0.6,0.6,1,1c0.2,0.2,0.3,0.3,0.4,0.5
		c0.3,0.3,0.6,0.6,0.8,0.9c0.2,0.2,0.2,0.2,0.4,0.4c0.2,0.2,0.5,0.5,0.6,0.6c0.1,0.1,0.2,0.2,0.3,0.3c0.2,0.2,0.4,0.4,0.6,0.6
		c0.1,0.1,0.2,0.2,0.2,0.2c0.2,0.2,0.4,0.4,0.5,0.5c0.5,0.5,1.2,0.8,1.9,0.8s1.4-0.2,1.9-0.8c0.1-0.1,0.2-0.2,0.5-0.5
		c0.1-0.1,0.2-0.2,0.2-0.2c0.2-0.2,0.3-0.3,0.6-0.6c0.1-0.1,0.2-0.2,0.3-0.3c0.2-0.2,0.4-0.4,0.6-0.6c0.2-0.2,0.2-0.2,0.4-0.4
		c0.2-0.2,0.5-0.6,0.8-0.8c0.2-0.2,0.3-0.3,0.5-0.5c0.3-0.3,0.6-0.6,0.9-1c0.2-0.2,0.3-0.3,0.5-0.6c0.3-0.3,0.6-0.7,1-1
		c0.2-0.2,0.4-0.4,0.6-0.6c0.3-0.4,0.7-0.8,1-1.2c0.2-0.2,0.4-0.4,0.6-0.6c0.4-0.5,0.8-1,1.3-1.4c0.2-0.2,0.2-0.3,0.4-0.5
		c1.1-1.3,2.2-2.7,3.3-4c0.2-0.2,0.3-0.4,0.5-0.6c0.4-0.5,0.7-1,1-1.4c0.2-0.2,0.3-0.5,0.6-0.7c0.3-0.4,0.6-0.9,0.9-1.3
		c0.2-0.2,0.3-0.6,0.6-0.8c0.2-0.4,0.5-0.8,0.7-1.2c0.2-0.2,0.3-0.6,0.5-0.8c0.2-0.4,0.4-0.7,0.6-1.1c0.2-0.2,0.3-0.6,0.4-0.8
		c0.1-0.2,0.2-0.2,0.2-0.4C126.5,163.2,136.1,178.9,136.1,196.1z M135.1,25.8c10.5,0,19,8.5,19,19c0,6.2-3.1,12-8.2,15.5
		c-1.4-0.8-2.8-1.5-4.4-1.9v-3.9c0-10.6-3.2-20.5-8.8-28.8C132.7,25.8,135.1,25.8,135.1,25.8z M90,8.5c25.5,0,46.1,20.7,46.1,46.1
		v6.1c0,1.4,1,2.5,2.4,2.7c5.4,0.6,9.5,5.1,9.5,10.5s-4.1,9.9-9.5,10.5c-1.4,0.2-2.4,1.3-2.4,2.7v4.1c0,22.5-16.1,41.6-38.3,45.4
		c-1.3,0.2-2.3,1.4-2.3,2.7v8.9c0,1.3,1,2.4,2.3,2.7c2.9,0.5,5.8,1.3,8.6,2.4v0.1c-0.3,0.7-0.7,1.4-1.2,2.2
		c-0.1,0.2-0.2,0.2-0.2,0.4c-0.5,0.7-1,1.5-1.5,2.3c-0.1,0.2-0.2,0.2-0.3,0.4c-0.6,0.8-1.2,1.6-1.9,2.5c-0.1,0.1-0.2,0.2-0.2,0.2
		c-0.6,0.8-1.3,1.7-2,2.5c-0.1,0.1-0.1,0.2-0.2,0.2c-0.7,0.8-1.4,1.7-2.1,2.5c-0.1,0.2-0.2,0.2-0.3,0.4c-0.6,0.8-1.4,1.5-2,2.3
		c-0.2,0.2-0.2,0.3-0.4,0.4c-0.6,0.7-1.3,1.4-1.9,2.1c-0.1,0.1-0.2,0.2-0.2,0.2c-0.6,0.6-1.3,1.4-1.9,1.9c-0.6-0.6-1.2-1.2-1.9-1.9
		c-0.1-0.1-0.2-0.2-0.2-0.3c-0.6-0.6-1.3-1.4-1.9-2.1c-0.2-0.2-0.2-0.3-0.4-0.5c-0.6-0.7-1.4-1.4-2-2.3c-0.1-0.2-0.2-0.2-0.4-0.4
		c-0.7-0.8-1.4-1.6-2.1-2.5c-0.1-0.1-0.2-0.2-0.2-0.2c-0.6-0.8-1.4-1.7-2-2.5c-0.1-0.1-0.2-0.2-0.2-0.2c-0.6-0.8-1.3-1.7-1.9-2.5
		c-0.1-0.2-0.2-0.2-0.3-0.4c-0.6-0.8-1-1.6-1.5-2.3c-0.1-0.2-0.2-0.2-0.2-0.4c-0.5-0.7-0.9-1.5-1.2-2.2V153c2.8-1.1,5.7-1.9,8.6-2.4
		c1.3-0.2,2.3-1.4,2.3-2.7v-8.9c0-1.3-1-2.4-2.3-2.7c-22.2-3.9-38.3-23-38.3-45.4v-4.1c0-1.4-1-2.5-2.4-2.7
		c-5.4-0.6-9.5-5.1-9.5-10.5c0-5.4,4.1-9.9,9.5-10.5c1.4-0.2,2.4-1.3,2.4-2.7v-6.1C43.9,29.2,64.6,8.5,90,8.5z M46.6,25.8h0.6
		c-5.6,8.2-8.8,18.1-8.8,28.8v3.9c-1.2,0.3-2.3,0.8-3.5,1.4c-4.7-3.5-7.4-9-7.4-15C27.6,34.4,36.2,25.8,46.6,25.8z"/>
	<path class="st0" d="M68.1,32.9h10c3.7,0,7.3-1.3,10.1-3.5l1.8-1.4l1.7,1.4c2.9,2.3,6.5,3.6,10.2,3.6H112c0.7,0,1.4-0.6,1.4-1.4
		c0-0.8-0.6-1.4-1.4-1.4h-10.1c-3.1,0-6.1-1-8.5-3.1l-2.5-2c-0.5-0.4-1.2-0.4-1.7,0l-2.7,2.1c-2.4,1.9-5.4,3-8.5,3h-10
		c-0.7,0-1.4,0.6-1.4,1.4C66.7,32.4,67.3,32.9,68.1,32.9z"/>
	<path class="st0" d="M62.7,42.6H78c3.7,0,7.3-1.3,10.1-3.5l1.8-1.4l1.7,1.4c2.9,2.3,6.5,3.6,10.2,3.6h15.4c0.7,0,1.4-0.6,1.4-1.4
		c0-0.8-0.6-1.4-1.4-1.4h-15.4c-3.1,0-6.1-1-8.5-3.1l-2.5-2c-0.5-0.4-1.2-0.4-1.7,0l-2.7,2.1c-2.4,1.9-5.4,3-8.5,3H62.7
		c-0.7,0-1.4,0.6-1.4,1.4C61.3,42,61.9,42.6,62.7,42.6z"/>
</g>
</svg>
